<svg width="238" height="229" viewBox="0 0 238 229" fill="none" xmlns="http://www.w3.org/2000/svg">
<circle cx="21.1624" cy="21.6513" r="20.8375" fill="#EEF7FE"/>
<path d="M23.1557 11.823C23.0534 11.7399 22.9186 11.7081 22.7899 11.7368L11.575 14.3248C11.3776 14.3702 11.2384 14.5468 11.2403 14.7493V29.415C11.2403 29.6278 11.3957 29.8088 11.606 29.8412L22.821 31.5666C23.0564 31.6028 23.2767 31.4413 23.3129 31.2058C23.3162 31.1842 23.3179 31.1623 23.3179 31.1404V12.1612C23.3183 12.0297 23.2586 11.9051 23.1557 11.823Z" fill="#567DF4"/>
<path d="M16.3412 24.1488H15.2238L13.8289 19.1668H14.8608L15.8146 22.8606L16.8537 19.1668H17.6935L18.7397 22.8606L19.6934 19.1668H20.7254L19.3304 24.1488H18.213L17.2736 20.8607L16.3412 24.1488Z" fill="white"/>
<path d="M31.5131 29.8463H22.8862C22.648 29.8463 22.4548 29.6531 22.4548 29.4149C22.4548 29.1767 22.648 28.9836 22.8862 28.9836H31.0818V14.3179H22.8862C22.648 14.3179 22.4548 14.1247 22.4548 13.8865C22.4548 13.6483 22.648 13.4552 22.8862 13.4552H31.5131C31.7513 13.4552 31.9444 13.6483 31.9444 13.8866V29.415C31.9444 29.6532 31.7513 29.8463 31.5131 29.8463Z" fill="#567DF4"/>
<path d="M29.7872 16.9072H22.8857C22.6475 16.9072 22.4543 16.7141 22.4543 16.4759C22.4543 16.2376 22.6475 16.0445 22.8857 16.0445H29.7872C30.0255 16.0445 30.2186 16.2376 30.2186 16.4759C30.2186 16.7141 30.0255 16.9072 29.7872 16.9072Z" fill="#567DF4"/>
<path d="M29.7867 19.4943H22.8852C22.647 19.4943 22.4539 19.3012 22.4539 19.0629C22.4539 18.8247 22.647 18.6316 22.8852 18.6316H29.7867C30.025 18.6316 30.2181 18.8247 30.2181 19.0629C30.2181 19.3012 30.025 19.4943 29.7867 19.4943Z" fill="#567DF4"/>
<path d="M29.7867 22.0833H22.8852C22.647 22.0833 22.4539 21.8902 22.4539 21.6519C22.4539 21.4137 22.647 21.2206 22.8852 21.2206H29.7867C30.025 21.2206 30.2181 21.4137 30.2181 21.6519C30.2181 21.8902 30.025 22.0833 29.7867 22.0833Z" fill="#567DF4"/>
<path d="M29.7867 24.6713H22.8852C22.647 24.6713 22.4539 24.4782 22.4539 24.24C22.4539 24.0017 22.647 23.8086 22.8852 23.8086H29.7867C30.025 23.8086 30.2181 24.0017 30.2181 24.24C30.2181 24.4782 30.025 24.6713 29.7867 24.6713Z" fill="#567DF4"/>
<path d="M29.7867 27.2603H22.8852C22.647 27.2603 22.4539 27.0672 22.4539 26.8289C22.4539 26.5907 22.647 26.3976 22.8852 26.3976H29.7867C30.025 26.3976 30.2181 26.5907 30.2181 26.8289C30.2181 27.0672 30.025 27.2603 29.7867 27.2603Z" fill="#567DF4"/>
<path d="M61.6971 18.1586V5.79865L66.1028 5.79865C67.0644 5.79865 67.861 5.97367 68.4927 6.32371C69.1243 6.67374 69.5971 7.15253 69.9109 7.76006C70.2247 8.36358 70.3817 9.04353 70.3817 9.79993C70.3817 10.5604 70.2227 11.2443 69.9049 11.8519C69.5911 12.4554 69.1163 12.9342 68.4806 13.2882C67.8489 13.6383 67.0543 13.8133 66.0967 13.8133H63.0671V12.2321H65.9277C66.5353 12.2321 67.0281 12.1275 67.4063 11.9183C67.7845 11.705 68.0622 11.4153 68.2392 11.0492C68.4162 10.6831 68.5047 10.2666 68.5047 9.79993C68.5047 9.33322 68.4162 8.91881 68.2392 8.5567C68.0622 8.19459 67.7825 7.91094 67.4003 7.70575C67.0221 7.50055 66.5232 7.39796 65.9036 7.39796L63.562 7.39796V18.1586H61.6971ZM72.423 18.1586V8.88863H74.1672V10.3612H74.2637C74.4327 9.8623 74.7305 9.47001 75.1569 9.18435C75.5874 8.89467 76.0743 8.74982 76.6174 8.74982C76.7301 8.74982 76.8629 8.75385 77.0158 8.76189C77.1727 8.76994 77.2954 8.78 77.3839 8.79207V10.5181C77.3115 10.498 77.1827 10.4759 76.9977 10.4517C76.8126 10.4236 76.6275 10.4095 76.4424 10.4095C76.0159 10.4095 75.6357 10.5 75.3018 10.6811C74.9719 10.8581 74.7103 11.1055 74.5172 11.4234C74.3241 11.7372 74.2275 12.0953 74.2275 12.4976V18.1586H72.423ZM82.5183 18.3457C81.6492 18.3457 80.8908 18.1465 80.243 17.7482C79.5953 17.3499 79.0923 16.7926 78.7343 16.0765C78.3762 15.3603 78.1971 14.5234 78.1971 13.5658C78.1971 12.6043 78.3762 11.7634 78.7343 11.0432C79.0923 10.323 79.5953 9.76372 80.243 9.36541C80.8908 8.96709 81.6492 8.76793 82.5183 8.76793C83.3873 8.76793 84.1457 8.96709 84.7935 9.36541C85.4413 9.76372 85.9442 10.323 86.3023 11.0432C86.6604 11.7634 86.8394 12.6043 86.8394 13.5658C86.8394 14.5234 86.6604 15.3603 86.3023 16.0765C85.9442 16.7926 85.4413 17.3499 84.7935 17.7482C84.1457 18.1465 83.3873 18.3457 82.5183 18.3457ZM82.5243 16.8308C83.0876 16.8308 83.5543 16.682 83.9245 16.3842C84.2946 16.0865 84.5682 15.6902 84.7452 15.1953C84.9263 14.7004 85.0168 14.1553 85.0168 13.5598C85.0168 12.9684 84.9263 12.4252 84.7452 11.9303C84.5682 11.4314 84.2946 11.0311 83.9245 10.7293C83.5543 10.4276 83.0876 10.2767 82.5243 10.2767C81.957 10.2767 81.4863 10.4276 81.1121 10.7293C80.7419 11.0311 80.4663 11.4314 80.2853 11.9303C80.1083 12.4252 80.0197 12.9684 80.0197 13.5598C80.0197 14.1553 80.1083 14.7004 80.2853 15.1953C80.4663 15.6902 80.7419 16.0865 81.1121 16.3842C81.4863 16.682 81.957 16.8308 82.5243 16.8308ZM88.8536 8.88863H90.6581V18.7621C90.6581 19.3817 90.5455 19.9047 90.3202 20.3312C90.0989 20.7577 89.769 21.0816 89.3304 21.3029C88.8959 21.5242 88.3588 21.6348 87.719 21.6348C87.6547 21.6348 87.5943 21.6348 87.538 21.6348C87.4776 21.6348 87.4153 21.6328 87.3509 21.6288V20.0777C87.4072 20.0777 87.4575 20.0777 87.5018 20.0777C87.542 20.0777 87.5883 20.0777 87.6406 20.0777C88.0671 20.0777 88.3749 19.9631 88.564 19.7337C88.7571 19.5084 88.8536 19.1805 88.8536 18.75V8.88863ZM89.7468 7.45831C89.433 7.45831 89.1634 7.3537 88.9381 7.14448C88.7168 6.93124 88.6062 6.67777 88.6062 6.38406C88.6062 6.08633 88.7168 5.83285 88.9381 5.62363C89.1634 5.41039 89.433 5.30377 89.7468 5.30377C90.0607 5.30377 90.3282 5.41039 90.5495 5.62363C90.7748 5.83285 90.8875 6.08633 90.8875 6.38406C90.8875 6.67777 90.7748 6.93124 90.5495 7.14448C90.3282 7.3537 90.0607 7.45831 89.7468 7.45831ZM97.081 18.3457C96.1677 18.3457 95.3811 18.1505 94.7213 17.7603C94.0655 17.366 93.5585 16.8127 93.2004 16.1006C92.8464 15.3844 92.6693 14.5455 92.6693 13.584C92.6693 12.6344 92.8464 11.7976 93.2004 11.0733C93.5585 10.3491 94.0574 9.78384 94.6971 9.37748C95.3409 8.97111 96.0933 8.76793 96.9543 8.76793C97.4773 8.76793 97.9843 8.85443 98.4751 9.02744C98.966 9.20045 99.4065 9.47203 99.7968 9.84218C100.187 10.2123 100.495 10.6931 100.72 11.2846C100.945 11.872 101.058 12.5861 101.058 13.427V14.0668H93.6893V12.7149H99.2899C99.2899 12.2401 99.1933 11.8197 99.0002 11.4536C98.8071 11.0834 98.5355 10.7917 98.1854 10.5785C97.8394 10.3652 97.4331 10.2586 96.9663 10.2586C96.4594 10.2586 96.0168 10.3833 95.6386 10.6328C95.2644 10.8782 94.9748 11.2001 94.7696 11.5984C94.5684 11.9927 94.4678 12.4212 94.4678 12.8839V13.94C94.4678 14.5596 94.5764 15.0867 94.7937 15.5212C95.015 15.9558 95.3228 16.2877 95.7171 16.517C96.1114 16.7423 96.572 16.855 97.0991 16.855C97.4411 16.855 97.7529 16.8067 98.0346 16.7101C98.3162 16.6096 98.5596 16.4607 98.7648 16.2635C98.97 16.0664 99.1269 15.823 99.2355 15.5333L100.943 15.8411C100.807 16.344 100.561 16.7846 100.207 17.1628C99.8572 17.537 99.4166 17.8286 98.8855 18.0379C98.3584 18.2431 97.7569 18.3457 97.081 18.3457ZM106.965 18.3457C106.068 18.3457 105.295 18.1425 104.648 17.7361C104.004 17.3257 103.509 16.7604 103.163 16.0402C102.817 15.3201 102.644 14.4953 102.644 13.5658C102.644 12.6244 102.821 11.7935 103.175 11.0733C103.529 10.3491 104.028 9.78384 104.672 9.37748C105.315 8.97111 106.074 8.76793 106.947 8.76793C107.651 8.76793 108.279 8.89869 108.83 9.16021C109.381 9.41771 109.826 9.77982 110.164 10.2465C110.506 10.7132 110.709 11.2584 110.773 11.882H109.017C108.92 11.4475 108.699 11.0733 108.353 10.7595C108.011 10.4457 107.552 10.2888 106.977 10.2888C106.474 10.2888 106.034 10.4216 105.655 10.6871C105.281 10.9486 104.99 11.3228 104.78 11.8096C104.571 12.2924 104.466 12.8638 104.466 13.5236C104.466 14.1995 104.569 14.7829 104.774 15.2738C104.979 15.7646 105.269 16.1449 105.643 16.4144C106.022 16.684 106.466 16.8188 106.977 16.8188C107.319 16.8188 107.629 16.7564 107.906 16.6317C108.188 16.5029 108.424 16.3199 108.613 16.0825C108.806 15.8451 108.941 15.5594 109.017 15.2255H110.773C110.709 15.825 110.514 16.3601 110.188 16.8308C109.862 17.3016 109.425 17.6717 108.878 17.9413C108.335 18.2109 107.697 18.3457 106.965 18.3457ZM117.03 8.88863V10.3371H111.967V8.88863H117.03ZM113.325 6.66771H115.129V15.4367C115.129 15.7868 115.181 16.0503 115.286 16.2273C115.391 16.4003 115.525 16.519 115.69 16.5834C115.859 16.6438 116.042 16.6739 116.239 16.6739C116.384 16.6739 116.511 16.6639 116.62 16.6438C116.728 16.6236 116.813 16.6075 116.873 16.5955L117.199 18.0861C117.094 18.1264 116.946 18.1666 116.752 18.2069C116.559 18.2511 116.318 18.2752 116.028 18.2793C115.553 18.2873 115.111 18.2028 114.701 18.0258C114.29 17.8488 113.958 17.5752 113.705 17.205C113.451 16.8349 113.325 16.3702 113.325 15.8109V6.66771ZM125.823 11.1518L124.188 11.4415C124.119 11.2323 124.011 11.0331 123.862 10.844C123.717 10.6549 123.52 10.5 123.27 10.3793C123.021 10.2586 122.709 10.1983 122.335 10.1983C121.824 10.1983 121.397 10.3129 121.056 10.5423C120.714 10.7676 120.543 11.0593 120.543 11.4173C120.543 11.7271 120.657 11.9766 120.887 12.1657C121.116 12.3548 121.486 12.5097 121.997 12.6304L123.47 12.9684C124.323 13.1655 124.958 13.4693 125.377 13.8797C125.795 14.2901 126.004 14.8232 126.004 15.479C126.004 16.0342 125.843 16.5291 125.521 16.9636C125.204 17.3941 124.759 17.7321 124.188 17.9775C123.62 18.2229 122.963 18.3457 122.214 18.3457C121.176 18.3457 120.329 18.1244 119.673 17.6818C119.018 17.2352 118.615 16.6015 118.466 15.7807L120.211 15.5152C120.319 15.9698 120.543 16.3138 120.88 16.5472C121.218 16.7765 121.659 16.8912 122.202 16.8912C122.794 16.8912 123.266 16.7685 123.62 16.5231C123.974 16.2736 124.152 15.9698 124.152 15.6118C124.152 15.3221 124.043 15.0786 123.826 14.8815C123.612 14.6844 123.284 14.5355 122.842 14.4349L121.273 14.0909C120.408 13.8938 119.768 13.5799 119.354 13.1494C118.943 12.7189 118.738 12.1737 118.738 11.5139C118.738 10.9667 118.891 10.4879 119.197 10.0775C119.502 9.66716 119.925 9.3473 120.464 9.11797C121.003 8.88461 121.621 8.76793 122.317 8.76793C123.319 8.76793 124.107 8.98519 124.683 9.41972C125.258 9.85023 125.638 10.4276 125.823 11.1518ZM129.177 18.2732C128.847 18.2732 128.564 18.1566 128.326 17.9232C128.089 17.6858 127.97 17.4002 127.97 17.0662C127.97 16.7363 128.089 16.4547 128.326 16.2213C128.564 15.9839 128.847 15.8652 129.177 15.8652C129.507 15.8652 129.791 15.9839 130.028 16.2213C130.266 16.4547 130.384 16.7363 130.384 17.0662C130.384 17.2875 130.328 17.4907 130.215 17.6758C130.107 17.8568 129.962 18.0017 129.781 18.1103C129.6 18.2189 129.399 18.2732 129.177 18.2732ZM136.272 18.3396C135.523 18.3396 134.855 18.1485 134.268 17.7663C133.684 17.38 133.226 16.8308 132.892 16.1187C132.562 15.4025 132.397 14.5435 132.397 13.5417C132.397 12.5399 132.564 11.6829 132.898 10.9707C133.236 10.2586 133.699 9.71343 134.286 9.33523C134.873 8.95703 135.539 8.76793 136.284 8.76793C136.859 8.76793 137.322 8.86449 137.672 9.05761C138.026 9.24671 138.299 9.468 138.492 9.72148C138.69 9.97495 138.843 10.1983 138.951 10.3914H139.06V5.79865H140.864V18.1586H139.102V16.7162H138.951C138.843 16.9133 138.686 17.1386 138.48 17.3921C138.279 17.6456 138.002 17.8669 137.648 18.056C137.293 18.2451 136.835 18.3396 136.272 18.3396ZM136.67 16.8007C137.189 16.8007 137.627 16.6639 137.986 16.3903C138.348 16.1127 138.621 15.7284 138.806 15.2376C138.995 14.7467 139.09 14.1754 139.09 13.5236C139.09 12.8799 138.997 12.3166 138.812 11.8338C138.627 11.351 138.356 10.9748 137.998 10.7052C137.64 10.4356 137.197 10.3008 136.67 10.3008C136.127 10.3008 135.674 10.4417 135.312 10.7233C134.95 11.0049 134.676 11.3892 134.491 11.876C134.31 12.3628 134.22 12.912 134.22 13.5236C134.22 14.1432 134.312 14.7004 134.497 15.1953C134.682 15.6902 134.956 16.0825 135.318 16.3722C135.684 16.6578 136.135 16.8007 136.67 16.8007ZM147.344 18.3457C146.475 18.3457 145.717 18.1465 145.069 17.7482C144.421 17.3499 143.919 16.7926 143.56 16.0765C143.202 15.3603 143.023 14.5234 143.023 13.5658C143.023 12.6043 143.202 11.7634 143.56 11.0432C143.919 10.323 144.421 9.76372 145.069 9.36541C145.717 8.96709 146.475 8.76793 147.344 8.76793C148.214 8.76793 148.972 8.96709 149.62 9.36541C150.267 9.76372 150.77 10.323 151.128 11.0432C151.487 11.7634 151.666 12.6043 151.666 13.5658C151.666 14.5234 151.487 15.3603 151.128 16.0765C150.77 16.7926 150.267 17.3499 149.62 17.7482C148.972 18.1465 148.214 18.3457 147.344 18.3457ZM147.351 16.8308C147.914 16.8308 148.38 16.682 148.751 16.3842C149.121 16.0865 149.394 15.6902 149.571 15.1953C149.752 14.7004 149.843 14.1553 149.843 13.5598C149.843 12.9684 149.752 12.4252 149.571 11.9303C149.394 11.4314 149.121 11.0311 148.751 10.7293C148.38 10.4276 147.914 10.2767 147.351 10.2767C146.783 10.2767 146.312 10.4276 145.938 10.7293C145.568 11.0311 145.293 11.4314 145.111 11.9303C144.934 12.4252 144.846 12.9684 144.846 13.5598C144.846 14.1553 144.934 14.7004 145.111 15.1953C145.293 15.6902 145.568 16.0865 145.938 16.3842C146.312 16.682 146.783 16.8308 147.351 16.8308ZM157.585 18.3457C156.687 18.3457 155.915 18.1425 155.267 17.7361C154.623 17.3257 154.128 16.7604 153.782 16.0402C153.436 15.3201 153.263 14.4953 153.263 13.5658C153.263 12.6244 153.44 11.7935 153.794 11.0733C154.149 10.3491 154.647 9.78384 155.291 9.37748C155.935 8.97111 156.693 8.76793 157.566 8.76793C158.271 8.76793 158.898 8.89869 159.449 9.16021C160.001 9.41771 160.445 9.77982 160.783 10.2465C161.125 10.7132 161.328 11.2584 161.393 11.882H159.636C159.54 11.4475 159.319 11.0733 158.973 10.7595C158.631 10.4457 158.172 10.2888 157.597 10.2888C157.094 10.2888 156.653 10.4216 156.275 10.6871C155.901 10.9486 155.609 11.3228 155.4 11.8096C155.191 12.2924 155.086 12.8638 155.086 13.5236C155.086 14.1995 155.189 14.7829 155.394 15.2738C155.599 15.7646 155.889 16.1449 156.263 16.4144C156.641 16.684 157.086 16.8188 157.597 16.8188C157.939 16.8188 158.248 16.7564 158.526 16.6317C158.808 16.5029 159.043 16.3199 159.232 16.0825C159.425 15.8451 159.56 15.5594 159.636 15.2255H161.393C161.328 15.825 161.133 16.3601 160.807 16.8308C160.481 17.3016 160.045 17.6717 159.498 17.9413C158.955 18.2109 158.317 18.3457 157.585 18.3457ZM164.664 8.88863L166.71 12.4976L168.774 8.88863H170.747L167.856 13.5236L170.771 18.1586H168.798L166.71 14.6944L164.628 18.1586H162.648L165.533 13.5236L162.684 8.88863H164.664Z" fill="white"/>
<path opacity="0.6" d="M67.5255 30.1253V39.1892H66.4633L61.5242 32.0726H61.4357V39.1892H60.3381V30.1253H61.4002L66.3571 37.2596H66.4456V30.1253H67.5255ZM72.3418 39.3308C71.7281 39.3308 71.1896 39.1848 70.7264 38.8927C70.2661 38.6006 69.9062 38.1919 69.6465 37.6668C69.3898 37.1416 69.2615 36.5279 69.2615 35.8256C69.2615 35.1175 69.3898 34.4994 69.6465 33.9712C69.9062 33.4431 70.2661 33.033 70.7264 32.7409C71.1896 32.4488 71.7281 32.3027 72.3418 32.3027C72.9555 32.3027 73.4925 32.4488 73.9528 32.7409C74.416 33.033 74.776 33.4431 75.0327 33.9712C75.2923 34.4994 75.4221 35.1175 75.4221 35.8256C75.4221 36.5279 75.2923 37.1416 75.0327 37.6668C74.776 38.1919 74.416 38.6006 73.9528 38.8927C73.4925 39.1848 72.9555 39.3308 72.3418 39.3308ZM72.3418 38.3926C72.808 38.3926 73.1916 38.2731 73.4925 38.0341C73.7935 37.7951 74.0162 37.4809 74.1608 37.0914C74.3054 36.7019 74.3777 36.28 74.3777 35.8256C74.3777 35.3713 74.3054 34.9479 74.1608 34.5554C74.0162 34.163 73.7935 33.8459 73.4925 33.6039C73.1916 33.362 72.808 33.241 72.3418 33.241C71.8756 33.241 71.4921 33.362 71.1911 33.6039C70.8902 33.8459 70.6674 34.163 70.5228 34.5554C70.3783 34.9479 70.306 35.3713 70.306 35.8256C70.306 36.28 70.3783 36.7019 70.5228 37.0914C70.6674 37.4809 70.8902 37.7951 71.1911 38.0341C71.4921 38.2731 71.8756 38.3926 72.3418 38.3926ZM82.3318 32.3913L79.818 39.1892H78.7558L76.242 32.3913H77.375L79.2515 37.8084H79.3223L81.1988 32.3913H82.3318ZM86.3172 39.3308C85.6622 39.3308 85.0972 39.1863 84.6222 38.8971C84.1501 38.605 83.7857 38.1978 83.529 37.6756C83.2753 37.1504 83.1484 36.5397 83.1484 35.8433C83.1484 35.147 83.2753 34.5333 83.529 34.0022C83.7857 33.4682 84.1427 33.0522 84.6 32.7542C85.0603 32.4532 85.5973 32.3027 86.211 32.3027C86.5651 32.3027 86.9147 32.3617 87.2599 32.4798C87.6051 32.5978 87.9193 32.7896 88.2026 33.0551C88.4858 33.3177 88.7116 33.6659 88.8797 34.0996C89.0479 34.5333 89.132 35.0674 89.132 35.7017V36.1443H83.8919V35.2414H88.0698C88.0698 34.8579 87.9931 34.5156 87.8397 34.2147C87.6892 33.9137 87.4738 33.6762 87.1935 33.5021C86.9162 33.328 86.5887 33.241 86.211 33.241C85.795 33.241 85.435 33.3443 85.1311 33.5508C84.8302 33.7544 84.5986 34.0199 84.4363 34.3474C84.274 34.6749 84.1929 35.0261 84.1929 35.4008V36.0027C84.1929 36.5161 84.2814 36.9513 84.4584 37.3083C84.6384 37.6623 84.8877 37.9323 85.2064 38.1182C85.525 38.3011 85.8953 38.3926 86.3172 38.3926C86.5916 38.3926 86.8395 38.3542 87.0608 38.2775C87.285 38.1978 87.4782 38.0798 87.6405 37.9234C87.8028 37.7641 87.9282 37.5664 88.0167 37.3304L89.0258 37.6136C88.9196 37.9559 88.7411 38.2569 88.4903 38.5165C88.2395 38.7732 87.9297 38.9738 87.5609 39.1184C87.192 39.26 86.7775 39.3308 86.3172 39.3308ZM90.7208 39.1892V32.3913H91.7299V33.4534H91.8184C91.9601 33.0905 92.1887 32.8088 92.5044 32.6081C92.8201 32.4045 93.1993 32.3027 93.6418 32.3027C94.0903 32.3027 94.4636 32.4045 94.7616 32.6081C95.0625 32.8088 95.2971 33.0905 95.4653 33.4534H95.5361C95.7101 33.1023 95.9713 32.8235 96.3194 32.617C96.6676 32.4075 97.0851 32.3027 97.5719 32.3027C98.1797 32.3027 98.6769 32.493 99.0634 32.8737C99.4499 33.2513 99.6432 33.84 99.6432 34.6395V39.1892H98.5987V34.6395C98.5987 34.138 98.4615 33.7795 98.1871 33.5641C97.9127 33.3487 97.5896 33.241 97.2179 33.241C96.7399 33.241 96.3696 33.3856 96.107 33.6747C95.8444 33.9609 95.7131 34.3238 95.7131 34.7635V39.1892H94.6509V34.5333C94.6509 34.1468 94.5255 33.8355 94.2747 33.5995C94.0239 33.3605 93.7009 33.241 93.3055 33.241C93.034 33.241 92.7803 33.3133 92.5443 33.4579C92.3112 33.6024 92.1223 33.8031 91.9778 34.0598C91.8361 34.3135 91.7653 34.6071 91.7653 34.9405V39.1892H90.7208ZM103.553 39.3485C103.123 39.3485 102.732 39.2674 102.38 39.1051C102.029 38.9399 101.751 38.7024 101.544 38.3926C101.337 38.0798 101.234 37.7022 101.234 37.2596C101.234 36.8701 101.311 36.5544 101.464 36.3125C101.618 36.0676 101.823 35.8758 102.08 35.7371C102.336 35.5984 102.619 35.4952 102.929 35.4273C103.242 35.3565 103.556 35.3004 103.872 35.2591C104.285 35.206 104.62 35.1662 104.877 35.1396C105.136 35.1101 105.325 35.0615 105.443 34.9936C105.564 34.9257 105.625 34.8077 105.625 34.6395V34.6041C105.625 34.1675 105.505 33.8281 105.266 33.5862C105.03 33.3443 104.672 33.2233 104.191 33.2233C103.692 33.2233 103.301 33.3325 103.018 33.5508C102.735 33.7691 102.535 34.0022 102.42 34.2501L101.429 33.896C101.606 33.4829 101.842 33.1613 102.137 32.9312C102.435 32.6981 102.76 32.5358 103.111 32.4444C103.465 32.3499 103.813 32.3027 104.155 32.3027C104.374 32.3027 104.624 32.3293 104.908 32.3824C105.194 32.4326 105.47 32.5373 105.735 32.6966C106.004 32.856 106.226 33.0964 106.403 33.418C106.581 33.7396 106.669 34.1704 106.669 34.7103V39.1892H105.625V38.2687H105.571C105.501 38.4162 105.383 38.574 105.217 38.7422C105.052 38.9104 104.832 39.0535 104.558 39.1715C104.284 39.2895 103.949 39.3485 103.553 39.3485ZM103.713 38.4103C104.126 38.4103 104.474 38.3291 104.757 38.1669C105.043 38.0046 105.259 37.7951 105.403 37.5384C105.551 37.2817 105.625 37.0117 105.625 36.7285V35.7725C105.58 35.8256 105.483 35.8743 105.332 35.9186C105.185 35.9599 105.014 35.9968 104.819 36.0292C104.627 36.0587 104.44 36.0853 104.257 36.1089C104.077 36.1295 103.931 36.1472 103.819 36.162C103.547 36.1974 103.294 36.2549 103.058 36.3346C102.825 36.4113 102.636 36.5279 102.491 36.6842C102.35 36.8377 102.279 37.0471 102.279 37.3127C102.279 37.6756 102.413 37.95 102.681 38.1359C102.953 38.3188 103.297 38.4103 103.713 38.4103ZM108.717 39.1892V30.1253H109.762V33.4711H109.85C109.927 33.3531 110.033 33.2026 110.169 33.0197C110.307 32.8338 110.505 32.6686 110.762 32.524C111.021 32.3765 111.373 32.3027 111.815 32.3027C112.387 32.3027 112.892 32.4458 113.329 32.732C113.765 33.0182 114.106 33.4239 114.351 33.9491C114.596 34.4743 114.718 35.0939 114.718 35.8079C114.718 36.5279 114.596 37.1519 114.351 37.68C114.106 38.2052 113.767 38.6124 113.333 38.9015C112.899 39.1877 112.399 39.3308 111.833 39.3308C111.396 39.3308 111.046 39.2585 110.784 39.114C110.521 38.9664 110.319 38.7997 110.178 38.6139C110.036 38.425 109.927 38.2687 109.85 38.1447H109.726V39.1892H108.717ZM109.744 35.7902C109.744 36.3036 109.819 36.7565 109.97 37.1489C110.12 37.5384 110.34 37.8438 110.629 38.0651C110.918 38.2834 111.272 38.3926 111.691 38.3926C112.128 38.3926 112.492 38.2775 112.784 38.0474C113.079 37.8143 113.301 37.5015 113.448 37.1091C113.599 36.7137 113.674 36.2741 113.674 35.7902C113.674 35.3123 113.6 34.8815 113.453 34.4979C113.308 34.1114 113.088 33.806 112.793 33.5818C112.501 33.3546 112.134 33.241 111.691 33.241C111.266 33.241 110.909 33.3487 110.62 33.5641C110.331 33.7765 110.113 34.0745 109.965 34.4581C109.818 34.8387 109.744 35.2827 109.744 35.7902ZM119.166 39.3308C118.511 39.3308 117.946 39.1863 117.471 38.8971C116.999 38.605 116.635 38.1978 116.378 37.6756C116.124 37.1504 115.997 36.5397 115.997 35.8433C115.997 35.147 116.124 34.5333 116.378 34.0022C116.635 33.4682 116.992 33.0522 117.449 32.7542C117.909 32.4532 118.446 32.3027 119.06 32.3027C119.414 32.3027 119.764 32.3617 120.109 32.4798C120.454 32.5978 120.768 32.7896 121.052 33.0551C121.335 33.3177 121.561 33.6659 121.729 34.0996C121.897 34.5333 121.981 35.0674 121.981 35.7017V36.1443H116.741V35.2414H120.919C120.919 34.8579 120.842 34.5156 120.689 34.2147C120.538 33.9137 120.323 33.6762 120.043 33.5021C119.765 33.328 119.438 33.241 119.06 33.241C118.644 33.241 118.284 33.3443 117.98 33.5508C117.679 33.7544 117.448 34.0199 117.285 34.3474C117.123 34.6749 117.042 35.0261 117.042 35.4008V36.0027C117.042 36.5161 117.13 36.9513 117.307 37.3083C117.487 37.6623 117.737 37.9323 118.055 38.1182C118.374 38.3011 118.744 38.3926 119.166 38.3926C119.441 38.3926 119.689 38.3542 119.91 38.2775C120.134 38.1978 120.327 38.0798 120.49 37.9234C120.652 37.7641 120.777 37.5664 120.866 37.3304L121.875 37.6136C121.769 37.9559 121.59 38.2569 121.339 38.5165C121.089 38.7732 120.779 38.9738 120.41 39.1184C120.041 39.26 119.627 39.3308 119.166 39.3308ZM123.57 39.1892V32.3913H124.579V33.418H124.65C124.774 33.0817 124.998 32.8088 125.322 32.5993C125.647 32.3898 126.013 32.285 126.42 32.285C126.497 32.285 126.593 32.2865 126.708 32.2895C126.823 32.2924 126.91 32.2968 126.969 32.3027V33.3649C126.933 33.3561 126.852 33.3428 126.725 33.3251C126.602 33.3044 126.47 33.2941 126.332 33.2941C126.001 33.2941 125.706 33.3634 125.446 33.5021C125.19 33.6378 124.986 33.8267 124.836 34.0686C124.688 34.3076 124.614 34.5805 124.614 34.8874V39.1892H123.57ZM134.881 30.1253V39.1892H133.783V31.276H133.73L131.517 32.7453V31.63L133.783 30.1253H134.881ZM140.55 39.3131C139.966 39.3131 139.445 39.2128 138.988 39.0122C138.534 38.8115 138.172 38.5327 137.904 38.1757C137.638 37.8158 137.494 37.3983 137.47 36.9232H138.585C138.609 37.2153 138.709 37.4676 138.886 37.68C139.063 37.8895 139.295 38.0518 139.581 38.1669C139.867 38.2819 140.185 38.3395 140.533 38.3395C140.922 38.3395 141.267 38.2716 141.568 38.1359C141.869 38.0002 142.105 37.8113 142.276 37.5694C142.448 37.3274 142.533 37.0471 142.533 36.7285C142.533 36.3951 142.451 36.1015 142.285 35.8478C142.12 35.5911 141.878 35.3904 141.559 35.2459C141.241 35.1013 140.851 35.029 140.391 35.029H139.665V34.0553H140.391C140.751 34.0553 141.067 33.9904 141.338 33.8606C141.613 33.7308 141.826 33.5479 141.98 33.3118C142.136 33.0758 142.214 32.7984 142.214 32.4798C142.214 32.1729 142.147 31.9059 142.011 31.6787C141.875 31.4515 141.683 31.2745 141.436 31.1476C141.191 31.0207 140.901 30.9573 140.568 30.9573C140.255 30.9573 139.96 31.0148 139.683 31.1299C139.409 31.242 139.184 31.4058 139.01 31.6212C138.836 31.8336 138.742 32.0903 138.727 32.3913H137.665C137.682 31.9162 137.826 31.5002 138.094 31.1432C138.363 30.7832 138.714 30.5029 139.147 30.3023C139.584 30.1017 140.064 30.0013 140.586 30.0013C141.146 30.0013 141.627 30.1149 142.029 30.3421C142.43 30.5664 142.738 30.8629 142.954 31.2317C143.169 31.6005 143.277 31.9988 143.277 32.4267C143.277 32.9371 143.142 33.3723 142.874 33.7323C142.608 34.0922 142.247 34.3415 141.79 34.4802V34.551C142.362 34.6454 142.809 34.8889 143.131 35.2813C143.452 35.6707 143.613 36.1531 143.613 36.7285C143.613 37.2212 143.479 37.6638 143.21 38.0562C142.945 38.4457 142.582 38.7525 142.122 38.9768C141.661 39.201 141.138 39.3131 140.55 39.3131ZM145.922 39.26C145.704 39.26 145.516 39.1818 145.36 39.0255C145.204 38.8691 145.126 38.6817 145.126 38.4634C145.126 38.245 145.204 38.0577 145.36 37.9013C145.516 37.7449 145.704 37.6668 145.922 37.6668C146.14 37.6668 146.328 37.7449 146.484 37.9013C146.641 38.0577 146.719 38.245 146.719 38.4634C146.719 38.608 146.682 38.7407 146.608 38.8617C146.537 38.9827 146.441 39.08 146.32 39.1538C146.202 39.2246 146.07 39.26 145.922 39.26ZM148.575 39.1892V38.3926L151.567 35.1175C151.918 34.734 152.207 34.4005 152.435 34.1173C152.662 33.8311 152.83 33.5626 152.939 33.3118C153.051 33.0581 153.107 32.7925 153.107 32.5152C153.107 32.1965 153.031 31.9206 152.877 31.6876C152.727 31.4545 152.52 31.2745 152.258 31.1476C151.995 31.0207 151.7 30.9573 151.372 30.9573C151.024 30.9573 150.72 31.0296 150.461 31.1742C150.204 31.3158 150.005 31.515 149.863 31.7716C149.725 32.0283 149.655 32.3293 149.655 32.6745H148.611C148.611 32.1434 148.733 31.6772 148.978 31.276C149.223 30.8747 149.556 30.5619 149.978 30.3377C150.403 30.1135 150.88 30.0013 151.408 30.0013C151.939 30.0013 152.41 30.1135 152.82 30.3377C153.23 30.5619 153.551 30.8644 153.784 31.245C154.018 31.6256 154.134 32.049 154.134 32.5152C154.134 32.8486 154.074 33.1746 153.953 33.4933C153.835 33.809 153.628 34.1616 153.333 34.551C153.041 34.9375 152.635 35.4096 152.116 35.9673L150.08 38.1447V38.2155H154.293V39.1892H148.575ZM159.078 39.3131C158.411 39.3131 157.843 39.1317 157.374 38.7688C156.905 38.4029 156.546 37.8733 156.298 37.1799C156.05 36.4836 155.927 35.6427 155.927 34.6572C155.927 33.6777 156.05 32.8412 156.298 32.1478C156.549 31.4515 156.909 30.9204 157.378 30.5546C157.85 30.1858 158.417 30.0013 159.078 30.0013C159.739 30.0013 160.304 30.1858 160.773 30.5546C161.245 30.9204 161.605 31.4515 161.853 32.1478C162.103 32.8412 162.229 33.6777 162.229 34.6572C162.229 35.6427 162.105 36.4836 161.857 37.1799C161.609 37.8733 161.251 38.4029 160.782 38.7688C160.312 39.1317 159.745 39.3131 159.078 39.3131ZM159.078 38.3395C159.739 38.3395 160.252 38.0208 160.618 37.3835C160.984 36.7462 161.167 35.8374 161.167 34.6572C161.167 33.8724 161.083 33.2041 160.914 32.6524C160.749 32.1006 160.51 31.6802 160.197 31.391C159.888 31.1019 159.514 30.9573 159.078 30.9573C158.423 30.9573 157.911 31.2804 157.542 31.9266C157.173 32.5698 156.989 33.48 156.989 34.6572C156.989 35.4421 157.071 36.1089 157.237 36.6577C157.402 37.2065 157.639 37.624 157.949 37.9102C158.262 38.1964 158.638 38.3395 159.078 38.3395ZM163.911 39.1892V38.3926L166.902 35.1175C167.254 34.734 167.543 34.4005 167.77 34.1173C167.997 33.8311 168.165 33.5626 168.274 33.3118C168.387 33.0581 168.443 32.7925 168.443 32.5152C168.443 32.1965 168.366 31.9206 168.212 31.6876C168.062 31.4545 167.855 31.2745 167.593 31.1476C167.33 31.0207 167.035 30.9573 166.708 30.9573C166.36 30.9573 166.056 31.0296 165.796 31.1742C165.539 31.3158 165.34 31.515 165.199 31.7716C165.06 32.0283 164.99 32.3293 164.99 32.6745H163.946C163.946 32.1434 164.068 31.6772 164.313 31.276C164.558 30.8747 164.892 30.5619 165.314 30.3377C165.738 30.1135 166.215 30.0013 166.743 30.0013C167.274 30.0013 167.745 30.1135 168.155 30.3377C168.565 30.5619 168.887 30.8644 169.12 31.245C169.353 31.6256 169.469 32.049 169.469 32.5152C169.469 32.8486 169.409 33.1746 169.288 33.4933C169.17 33.809 168.963 34.1616 168.668 34.551C168.376 34.9375 167.97 35.4096 167.451 35.9673L165.415 38.1447V38.2155H169.629V39.1892H163.911ZM171.457 39.1892V38.3926L174.448 35.1175C174.799 34.734 175.089 34.4005 175.316 34.1173C175.543 33.8311 175.711 33.5626 175.82 33.3118C175.932 33.0581 175.988 32.7925 175.988 32.5152C175.988 32.1965 175.912 31.9206 175.758 31.6876C175.608 31.4545 175.401 31.2745 175.139 31.1476C174.876 31.0207 174.581 30.9573 174.254 30.9573C173.905 30.9573 173.602 31.0296 173.342 31.1742C173.085 31.3158 172.886 31.515 172.744 31.7716C172.606 32.0283 172.536 32.3293 172.536 32.6745H171.492C171.492 32.1434 171.614 31.6772 171.859 31.276C172.104 30.8747 172.438 30.5619 172.859 30.3377C173.284 30.1135 173.761 30.0013 174.289 30.0013C174.82 30.0013 175.291 30.1135 175.701 30.3377C176.111 30.5619 176.433 30.8644 176.666 31.245C176.899 31.6256 177.015 32.049 177.015 32.5152C177.015 32.8486 176.955 33.1746 176.834 33.4933C176.716 33.809 176.509 34.1616 176.214 34.551C175.922 34.9375 175.516 35.4096 174.997 35.9673L172.961 38.1447V38.2155H177.175V39.1892H171.457Z" fill="#FAFAFA"/>
<g opacity="0.8">
<rect x="11.0885" y="71.766" width="14.7289" height="14.7289" rx="2.83248" stroke="#FAFAFA" stroke-width="1.13299"/>
<path fill-rule="evenodd" clip-rule="evenodd" d="M22.8189 75.9018C22.9251 76.0111 22.9848 76.1592 22.9848 76.3136C22.9848 76.4681 22.9251 76.6162 22.8189 76.7255L17.3339 82.3589C17.2275 82.468 17.0833 82.5293 16.933 82.5293C16.7826 82.5293 16.6384 82.468 16.532 82.3589L14.0732 79.8336C13.973 79.7231 13.9184 79.577 13.921 79.426C13.9236 79.275 13.9831 79.131 14.0871 79.0242C14.1911 78.9174 14.3313 78.8563 14.4783 78.8536C14.6253 78.8509 14.7676 78.907 14.8751 79.0099L16.933 81.1235L22.017 75.9018C22.1234 75.7927 22.2676 75.7314 22.418 75.7314C22.5683 75.7314 22.7126 75.7927 22.8189 75.9018Z" fill="#FAFAFA"/>
<rect x="11.0885" y="104.542" width="14.7289" height="14.7289" rx="2.83248" stroke="#FAFAFA" stroke-width="1.13299"/>
<path fill-rule="evenodd" clip-rule="evenodd" d="M22.8189 108.678C22.9251 108.787 22.9848 108.935 22.9848 109.09C22.9848 109.244 22.9251 109.392 22.8189 109.501L17.3339 115.135C17.2275 115.244 17.0833 115.305 16.933 115.305C16.7826 115.305 16.6384 115.244 16.532 115.135L14.0732 112.61C13.973 112.499 13.9184 112.353 13.921 112.202C13.9236 112.051 13.9831 111.907 14.0871 111.8C14.1911 111.693 14.3313 111.632 14.4783 111.63C14.6253 111.627 14.7676 111.683 14.8751 111.786L16.933 113.899L22.017 108.678C22.1234 108.569 22.2676 108.507 22.418 108.507C22.5683 108.507 22.7126 108.569 22.8189 108.678Z" fill="#FAFAFA"/>
<rect x="11.0885" y="137.318" width="14.7289" height="14.7289" rx="2.83248" stroke="#FAFAFA" stroke-width="1.13299"/>
<path fill-rule="evenodd" clip-rule="evenodd" d="M22.8189 141.454C22.9251 141.563 22.9848 141.711 22.9848 141.866C22.9848 142.02 22.9251 142.168 22.8189 142.277L17.3339 147.911C17.2275 148.02 17.0833 148.081 16.933 148.081C16.7826 148.081 16.6384 148.02 16.532 147.911L14.0732 145.386C13.973 145.275 13.9184 145.129 13.921 144.978C13.9236 144.827 13.9831 144.683 14.0871 144.576C14.1911 144.469 14.3313 144.408 14.4783 144.406C14.6253 144.403 14.7676 144.459 14.8751 144.562L16.933 146.675L22.017 141.454C22.1234 141.345 22.2676 141.283 22.418 141.283C22.5683 141.283 22.7126 141.345 22.8189 141.454Z" fill="#FAFAFA"/>
<rect x="11.0885" y="170.092" width="14.7289" height="14.7289" rx="2.83248" stroke="#FAFAFA" stroke-width="1.13299"/>
<rect x="11.0885" y="202.868" width="14.7289" height="14.7289" rx="2.83248" stroke="#FAFAFA" stroke-width="1.13299"/>
<path d="M58.1332 77.0994C58.027 76.7744 57.887 76.4831 57.7132 76.2256C57.5426 75.9648 57.3382 75.7428 57.1 75.5593C56.865 75.3758 56.5979 75.2358 56.2985 75.1392C55.9992 75.0427 55.6709 74.9944 55.3136 74.9944C54.7278 74.9944 54.1951 75.1457 53.7155 75.4482C53.2359 75.7508 52.8545 76.1966 52.5712 76.7856C52.288 77.3746 52.1464 78.0973 52.1464 78.9534C52.1464 79.8096 52.2896 80.5322 52.5761 81.1212C52.8625 81.7103 53.2504 82.1561 53.7396 82.4586C54.2289 82.7612 54.7793 82.9125 55.3909 82.9125C55.9574 82.9125 56.4563 82.7918 56.8876 82.5504C57.3221 82.3057 57.6601 81.9613 57.9015 81.5172C58.1461 81.0697 58.2684 80.5435 58.2684 79.9384L58.6353 80.0156H55.6612V78.9534H59.4271V80.0156C59.4271 80.83 59.2533 81.5381 58.9057 82.14C58.5613 82.7419 58.0849 83.2086 57.4766 83.5401C56.8715 83.8684 56.1762 84.0326 55.3909 84.0326C54.5154 84.0326 53.7461 83.8266 53.083 83.4146C52.4232 83.0026 51.9082 82.4168 51.538 81.6572C51.1711 80.8975 50.9876 79.9963 50.9876 78.9534C50.9876 78.1713 51.0922 77.468 51.3015 76.8436C51.5139 76.2159 51.8132 75.6816 52.1995 75.2406C52.5857 74.7997 53.0428 74.4617 53.5707 74.2267C54.0985 73.9918 54.6795 73.8743 55.3136 73.8743C55.835 73.8743 56.3211 73.9531 56.7717 74.1109C57.2255 74.2654 57.6295 74.4858 57.9835 74.7723C58.3408 75.0556 58.6386 75.3951 58.8767 75.791C59.1149 76.1837 59.2791 76.6199 59.3692 77.0994H58.1332ZM64.4327 84.0519C63.7181 84.0519 63.1017 83.8942 62.5835 83.5787C62.0685 83.2601 61.671 82.8159 61.391 82.2462C61.1142 81.6733 60.9758 81.007 60.9758 80.2474C60.9758 79.4877 61.1142 78.8182 61.391 78.2389C61.671 77.6563 62.0605 77.2024 62.5594 76.8774C63.0615 76.549 63.6473 76.3849 64.3168 76.3849C64.703 76.3849 65.0845 76.4493 65.461 76.578C65.8376 76.7068 66.1804 76.916 66.4894 77.2057C66.7984 77.4921 67.0447 77.8719 67.2281 78.3451C67.4116 78.8182 67.5033 79.4008 67.5033 80.0929V80.5757H61.7869V79.5907H66.3446C66.3446 79.1723 66.2609 78.7989 66.0935 78.4706C65.9294 78.1423 65.6944 77.8832 65.3886 77.6933C65.0861 77.5034 64.7288 77.4084 64.3168 77.4084C63.863 77.4084 63.4703 77.5211 63.1387 77.7464C62.8104 77.9685 62.5578 78.2582 62.3807 78.6155C62.2037 78.9727 62.1152 79.3558 62.1152 79.7646V80.4212C62.1152 80.9812 62.2117 81.456 62.4049 81.8455C62.6012 82.2317 62.8732 82.5262 63.2208 82.729C63.5684 82.9286 63.9724 83.0283 64.4327 83.0283C64.732 83.0283 65.0024 82.9865 65.2438 82.9028C65.4884 82.8159 65.6992 82.6872 65.8763 82.5166C66.0533 82.3428 66.1901 82.1271 66.2867 81.8696L67.3875 82.1786C67.2716 82.552 67.0769 82.8803 66.8033 83.1635C66.5297 83.4436 66.1917 83.6624 65.7894 83.8202C65.387 83.9746 64.9348 84.0519 64.4327 84.0519ZM70.376 79.4362V83.8974H69.2366V76.4814H70.3374V77.6402H70.434C70.6078 77.2636 70.8717 76.961 71.2258 76.7325C71.5799 76.5008 72.0369 76.3849 72.597 76.3849C73.0991 76.3849 73.5384 76.4879 73.915 76.6939C74.2916 76.8967 74.5845 77.2057 74.7938 77.6209C75.003 78.0329 75.1076 78.5543 75.1076 79.1852V83.8974H73.9681V79.2624C73.9681 78.6798 73.8169 78.226 73.5143 77.9009C73.2117 77.5726 72.7965 77.4084 72.2687 77.4084C71.9049 77.4084 71.5799 77.4873 71.2934 77.645C71.0101 77.8027 70.7864 78.0329 70.6223 78.3354C70.4581 78.638 70.376 79.0049 70.376 79.4362ZM80.299 84.0519C79.5844 84.0519 78.968 83.8942 78.4498 83.5787C77.9348 83.2601 77.5373 82.8159 77.2573 82.2462C76.9805 81.6733 76.8421 81.007 76.8421 80.2474C76.8421 79.4877 76.9805 78.8182 77.2573 78.2389C77.5373 77.6563 77.9268 77.2024 78.4257 76.8774C78.9278 76.549 79.5136 76.3849 80.1831 76.3849C80.5694 76.3849 80.9508 76.4493 81.3274 76.578C81.704 76.7068 82.0468 76.916 82.3558 77.2057C82.6647 77.4921 82.911 77.8719 83.0944 78.3451C83.2779 78.8182 83.3697 79.4008 83.3697 80.0929V80.5757H77.6532V79.5907H82.2109C82.2109 79.1723 82.1272 78.7989 81.9598 78.4706C81.7957 78.1423 81.5607 77.8832 81.2549 77.6933C80.9524 77.5034 80.5951 77.4084 80.1831 77.4084C79.7293 77.4084 79.3366 77.5211 79.0051 77.7464C78.6767 77.9685 78.4241 78.2582 78.247 78.6155C78.07 78.9727 77.9815 79.3558 77.9815 79.7646V80.4212C77.9815 80.9812 78.0781 81.456 78.2712 81.8455C78.4675 82.2317 78.7395 82.5262 79.0871 82.729C79.4348 82.9286 79.8387 83.0283 80.299 83.0283C80.5983 83.0283 80.8687 82.9865 81.1101 82.9028C81.3547 82.8159 81.5656 82.6872 81.7426 82.5166C81.9196 82.3428 82.0564 82.1271 82.153 81.8696L83.2538 82.1786C83.1379 82.552 82.9432 82.8803 82.6696 83.1635C82.396 83.4436 82.058 83.6624 81.6557 83.8202C81.2533 83.9746 80.8011 84.0519 80.299 84.0519ZM85.1029 83.8974V76.4814H86.2037V77.6016H86.281C86.4162 77.2346 86.6608 76.9369 87.0149 76.7084C87.3689 76.4798 87.768 76.3656 88.2122 76.3656C88.2959 76.3656 88.4005 76.3672 88.5261 76.3704C88.6516 76.3736 88.7465 76.3785 88.8109 76.3849V77.5436C88.7723 77.534 88.6838 77.5195 88.5454 77.5002C88.4102 77.4776 88.2669 77.4664 88.1157 77.4664C87.7552 77.4664 87.4333 77.542 87.15 77.6933C86.87 77.8414 86.6479 78.0474 86.4838 78.3113C86.3228 78.572 86.2424 78.8697 86.2424 79.2045V83.8974H85.1029ZM92.3439 84.0712C91.8739 84.0712 91.4475 83.9827 91.0644 83.8057C90.6814 83.6254 90.3772 83.3663 90.1519 83.0283C89.9266 82.6872 89.8139 82.2752 89.8139 81.7924C89.8139 81.3675 89.8976 81.0231 90.065 80.7591C90.2324 80.492 90.4561 80.2828 90.7361 80.1315C91.0161 79.9802 91.3251 79.8676 91.6631 79.7935C92.0043 79.7163 92.3471 79.6551 92.6915 79.6101C93.1421 79.5521 93.5074 79.5087 93.7875 79.4797C94.0707 79.4475 94.2767 79.3944 94.4055 79.3204C94.5374 79.2463 94.6034 79.1176 94.6034 78.9341V78.8955C94.6034 78.4191 94.4731 78.049 94.2123 77.785C93.9548 77.5211 93.5638 77.3891 93.0391 77.3891C92.4951 77.3891 92.0687 77.5082 91.7597 77.7464C91.4507 77.9846 91.2334 78.2389 91.1079 78.5092L90.0264 78.123C90.2195 77.6724 90.477 77.3215 90.7989 77.0705C91.124 76.8162 91.478 76.6392 91.8611 76.5394C92.2473 76.4364 92.6271 76.3849 93.0005 76.3849C93.2387 76.3849 93.5123 76.4139 93.8213 76.4718C94.1335 76.5265 94.4344 76.6408 94.7241 76.8146C95.017 76.9884 95.26 77.2507 95.4532 77.6016C95.6463 77.9524 95.7428 78.4223 95.7428 79.0114V83.8974H94.6034V82.8932H94.5455C94.4682 83.0541 94.3395 83.2263 94.1592 83.4098C93.979 83.5932 93.7392 83.7493 93.4398 83.8781C93.1405 84.0068 92.7752 84.0712 92.3439 84.0712ZM92.5177 83.0477C92.9683 83.0477 93.3481 82.9591 93.6571 82.7821C93.9693 82.6051 94.2043 82.3766 94.362 82.0965C94.5229 81.8165 94.6034 81.522 94.6034 81.213V80.1701C94.5551 80.228 94.4489 80.2812 94.2848 80.3294C94.1238 80.3745 93.9371 80.4147 93.7247 80.4501C93.5155 80.4823 93.3111 80.5113 93.1115 80.537C92.9152 80.5596 92.7559 80.5789 92.6336 80.595C92.3374 80.6336 92.0606 80.6964 91.8031 80.7833C91.5488 80.867 91.3428 80.9941 91.1851 81.1647C91.0306 81.3321 90.9534 81.5606 90.9534 81.8503C90.9534 82.2462 91.0998 82.5455 91.3927 82.7483C91.6889 82.9479 92.0638 83.0477 92.5177 83.0477ZM98.962 74.0095V83.8974H97.8225V74.0095H98.962ZM105.027 83.8974V74.0095H110.995V75.0716H106.225V78.4127H110.686V79.4749H106.225V82.8352H111.072V83.8974H105.027ZM114.138 74.0095V83.8974H112.998V74.0095H114.138ZM119.334 84.0519C118.62 84.0519 118.003 83.8942 117.485 83.5787C116.97 83.2601 116.572 82.8159 116.292 82.2462C116.016 81.6733 115.877 81.007 115.877 80.2474C115.877 79.4877 116.016 78.8182 116.292 78.2389C116.572 77.6563 116.962 77.2024 117.461 76.8774C117.963 76.549 118.549 76.3849 119.218 76.3849C119.604 76.3849 119.986 76.4493 120.362 76.578C120.739 76.7068 121.082 76.916 121.391 77.2057C121.7 77.4921 121.946 77.8719 122.13 78.3451C122.313 78.8182 122.405 79.4008 122.405 80.0929V80.5757H116.688V79.5907H121.246C121.246 79.1723 121.162 78.7989 120.995 78.4706C120.831 78.1423 120.596 77.8832 120.29 77.6933C119.988 77.5034 119.63 77.4084 119.218 77.4084C118.764 77.4084 118.372 77.5211 118.04 77.7464C117.712 77.9685 117.459 78.2582 117.282 78.6155C117.105 78.9727 117.017 79.3558 117.017 79.7646V80.4212C117.017 80.9812 117.113 81.456 117.306 81.8455C117.503 82.2317 117.775 82.5262 118.122 82.729C118.47 82.9286 118.874 83.0283 119.334 83.0283C119.633 83.0283 119.904 82.9865 120.145 82.9028C120.39 82.8159 120.601 82.6872 120.778 82.5166C120.955 82.3428 121.092 82.1271 121.188 81.8696L122.289 82.1786C122.173 82.552 121.978 82.8803 121.705 83.1635C121.431 83.4436 121.093 83.6624 120.691 83.8202C120.288 83.9746 119.836 84.0519 119.334 84.0519ZM127.151 84.0519C126.456 84.0519 125.857 83.8877 125.355 83.5594C124.853 83.2311 124.466 82.7789 124.196 82.2027C123.926 81.6266 123.79 80.9684 123.79 80.228C123.79 79.4749 123.929 78.8102 124.206 78.234C124.486 77.6547 124.875 77.2024 125.374 76.8774C125.876 76.549 126.462 76.3849 127.131 76.3849C127.653 76.3849 128.123 76.4814 128.541 76.6746C128.96 76.8677 129.303 77.1381 129.57 77.4857C129.837 77.8333 130.003 78.2389 130.067 78.7024H128.928C128.841 78.3644 128.648 78.0651 128.348 77.8043C128.052 77.5404 127.653 77.4084 127.151 77.4084C126.707 77.4084 126.317 77.5243 125.982 77.7561C125.651 77.9846 125.392 78.3081 125.205 78.7265C125.022 79.1417 124.93 79.6294 124.93 80.1894C124.93 80.7624 125.02 81.2613 125.2 81.6861C125.384 82.111 125.641 82.4409 125.973 82.6759C126.307 82.9109 126.7 83.0283 127.151 83.0283C127.447 83.0283 127.716 82.9768 127.957 82.8738C128.198 82.7708 128.403 82.6228 128.57 82.4297C128.738 82.2365 128.857 82.0048 128.928 81.7344H130.067C130.003 82.1722 129.843 82.5665 129.589 82.9173C129.338 83.2649 129.005 83.5417 128.59 83.7477C128.178 83.9505 127.698 84.0519 127.151 84.0519ZM134.958 76.4814V77.4471H131.115V76.4814H134.958ZM132.235 74.7047H133.374V81.773C133.374 82.0949 133.421 82.3363 133.514 82.4973C133.611 82.655 133.733 82.7612 133.881 82.8159C134.032 82.8674 134.192 82.8932 134.359 82.8932C134.485 82.8932 134.588 82.8867 134.668 82.8738C134.749 82.8578 134.813 82.8449 134.861 82.8352L135.093 83.8588C135.016 83.8877 134.908 83.9167 134.77 83.9457C134.631 83.9779 134.456 83.994 134.243 83.994C133.921 83.994 133.606 83.9248 133.297 83.7864C132.991 83.6479 132.737 83.4371 132.534 83.1539C132.335 82.8706 132.235 82.5133 132.235 82.082V74.7047ZM136.672 83.8974V76.4814H137.773V77.6016H137.85C137.985 77.2346 138.23 76.9369 138.584 76.7084C138.938 76.4798 139.337 76.3656 139.781 76.3656C139.865 76.3656 139.969 76.3672 140.095 76.3704C140.22 76.3736 140.315 76.3785 140.38 76.3849V77.5436C140.341 77.534 140.253 77.5195 140.114 77.5002C139.979 77.4776 139.836 77.4664 139.685 77.4664C139.324 77.4664 139.002 77.542 138.719 77.6933C138.439 77.8414 138.217 78.0474 138.053 78.3113C137.892 78.572 137.811 78.8697 137.811 79.2045V83.8974H136.672ZM141.73 83.8974V76.4814H142.87V83.8974H141.73ZM142.31 75.2455C142.088 75.2455 141.896 75.1698 141.735 75.0185C141.578 74.8673 141.499 74.6854 141.499 74.473C141.499 74.2605 141.578 74.0787 141.735 73.9274C141.896 73.7761 142.088 73.7005 142.31 73.7005C142.532 73.7005 142.722 73.7761 142.88 73.9274C143.04 74.0787 143.121 74.2605 143.121 74.473C143.121 74.6854 143.04 74.8673 142.88 75.0185C142.722 75.1698 142.532 75.2455 142.31 75.2455ZM147.97 84.0519C147.274 84.0519 146.676 83.8877 146.173 83.5594C145.671 83.2311 145.285 82.7789 145.015 82.2027C144.744 81.6266 144.609 80.9684 144.609 80.228C144.609 79.4749 144.748 78.8102 145.024 78.234C145.304 77.6547 145.694 77.2024 146.193 76.8774C146.695 76.549 147.281 76.3849 147.95 76.3849C148.472 76.3849 148.942 76.4814 149.36 76.6746C149.778 76.8677 150.121 77.1381 150.388 77.4857C150.656 77.8333 150.821 78.2389 150.886 78.7024H149.746C149.659 78.3644 149.466 78.0651 149.167 77.8043C148.871 77.5404 148.472 77.4084 147.97 77.4084C147.525 77.4084 147.136 77.5243 146.801 77.7561C146.47 77.9846 146.21 78.3081 146.024 78.7265C145.84 79.1417 145.749 79.6294 145.749 80.1894C145.749 80.7624 145.839 81.2613 146.019 81.6861C146.202 82.111 146.46 82.4409 146.791 82.6759C147.126 82.9109 147.519 83.0283 147.97 83.0283C148.266 83.0283 148.534 82.9768 148.776 82.8738C149.017 82.7708 149.222 82.6228 149.389 82.4297C149.556 82.2365 149.675 82.0048 149.746 81.7344H150.886C150.821 82.1722 150.662 82.5665 150.408 82.9173C150.157 83.2649 149.824 83.5417 149.408 83.7477C148.996 83.9505 148.517 84.0519 147.97 84.0519Z" fill="#FAFAFA"/>
<path d="M54.3289 117.13C53.6144 117.13 52.998 116.972 52.4798 116.657C51.9648 116.338 51.5672 115.894 51.2872 115.324C51.0104 114.751 50.872 114.085 50.872 113.325C50.872 112.566 51.0104 111.896 51.2872 111.317C51.5672 110.734 51.9567 110.281 52.4556 109.955C52.9577 109.627 53.5435 109.463 54.213 109.463C54.5993 109.463 54.9807 109.527 55.3573 109.656C55.7339 109.785 56.0767 109.994 56.3857 110.284C56.6947 110.57 56.9409 110.95 57.1244 111.423C57.3079 111.896 57.3996 112.479 57.3996 113.171V113.654H51.6831V112.669H56.2408C56.2408 112.25 56.1572 111.877 55.9898 111.549C55.8256 111.22 55.5907 110.961 55.2849 110.771C54.9823 110.581 54.625 110.487 54.213 110.487C53.7592 110.487 53.3665 110.599 53.035 110.824C52.7067 111.047 52.454 111.336 52.277 111.694C52.0999 112.051 52.0114 112.434 52.0114 112.843V113.499C52.0114 114.059 52.108 114.534 52.3011 114.924C52.4975 115.31 52.7694 115.604 53.1171 115.807C53.4647 116.007 53.8686 116.106 54.3289 116.106C54.6283 116.106 54.8986 116.065 55.14 115.981C55.3847 115.894 55.5955 115.765 55.7725 115.595C55.9495 115.421 56.0863 115.205 56.1829 114.948L57.2837 115.257C57.1678 115.63 56.9731 115.958 56.6995 116.242C56.4259 116.522 56.088 116.74 55.6856 116.898C55.2833 117.053 54.831 117.13 54.3289 117.13ZM59.2874 116.975V107.088H62.7443C63.4331 107.088 64.0012 107.207 64.4486 107.445C64.896 107.68 65.2291 107.997 65.448 108.396C65.6669 108.792 65.7763 109.231 65.7763 109.714C65.7763 110.139 65.7007 110.49 65.5494 110.767C65.4013 111.043 65.205 111.262 64.9604 111.423C64.719 111.584 64.4566 111.703 64.1734 111.78V111.877C64.476 111.896 64.7801 112.003 65.0859 112.196C65.3917 112.389 65.6476 112.666 65.8536 113.026C66.0596 113.387 66.1626 113.828 66.1626 114.349C66.1626 114.845 66.0499 115.29 65.8246 115.686C65.5993 116.082 65.2436 116.396 64.7576 116.628C64.2716 116.86 63.6391 116.975 62.8602 116.975H59.2874ZM60.4847 115.913H62.8602C63.6423 115.913 64.1975 115.762 64.5258 115.459C64.8574 115.154 65.0231 114.784 65.0231 114.349C65.0231 114.014 64.9378 113.705 64.7673 113.422C64.5967 113.136 64.3536 112.907 64.0382 112.736C63.7228 112.563 63.3494 112.476 62.9181 112.476H60.4847V115.913ZM60.4847 111.433H62.7057C63.0662 111.433 63.3912 111.362 63.6809 111.22C63.9738 111.079 64.2056 110.879 64.3762 110.622C64.55 110.364 64.6369 110.062 64.6369 109.714C64.6369 109.279 64.4856 108.911 64.1831 108.608C63.8805 108.303 63.4009 108.15 62.7443 108.15H60.4847V111.433ZM70.1578 117.149C69.6879 117.149 69.2614 117.061 68.8784 116.884C68.4953 116.703 68.1912 116.444 67.9659 116.106C67.7406 115.765 67.6279 115.353 67.6279 114.87C67.6279 114.446 67.7116 114.101 67.879 113.837C68.0463 113.57 68.27 113.361 68.5501 113.21C68.8301 113.058 69.1391 112.946 69.4771 112.872C69.8182 112.794 70.161 112.733 70.5054 112.688C70.9561 112.63 71.3214 112.587 71.6014 112.558C71.8847 112.526 72.0907 112.472 72.2194 112.398C72.3514 112.324 72.4174 112.196 72.4174 112.012V111.974C72.4174 111.497 72.287 111.127 72.0263 110.863C71.7688 110.599 71.3777 110.467 70.8531 110.467C70.3091 110.467 69.8826 110.586 69.5736 110.824C69.2646 111.063 69.0474 111.317 68.9218 111.587L67.8403 111.201C68.0335 110.75 68.291 110.4 68.6128 110.149C68.9379 109.894 69.292 109.717 69.675 109.617C70.0613 109.514 70.4411 109.463 70.8144 109.463C71.0526 109.463 71.3262 109.492 71.6352 109.55C71.9474 109.605 72.2484 109.719 72.5381 109.893C72.831 110.066 73.074 110.329 73.2671 110.68C73.4602 111.03 73.5568 111.5 73.5568 112.089V116.975H72.4174V115.971H72.3594C72.2822 116.132 72.1534 116.304 71.9732 116.488C71.7929 116.671 71.5531 116.827 71.2538 116.956C70.9545 117.085 70.5891 117.149 70.1578 117.149ZM70.3316 116.126C70.7823 116.126 71.1621 116.037 71.4711 115.86C71.7833 115.683 72.0182 115.455 72.176 115.175C72.3369 114.895 72.4174 114.6 72.4174 114.291V113.248C72.3691 113.306 72.2629 113.359 72.0987 113.408C71.9378 113.453 71.7511 113.493 71.5387 113.528C71.3294 113.56 71.125 113.589 70.9255 113.615C70.7291 113.638 70.5698 113.657 70.4475 113.673C70.1514 113.712 69.8746 113.774 69.6171 113.861C69.3628 113.945 69.1568 114.072 68.9991 114.243C68.8446 114.41 68.7673 114.639 68.7673 114.928C68.7673 115.324 68.9138 115.624 69.2067 115.826C69.5028 116.026 69.8778 116.126 70.3316 116.126ZM76.1048 119.756C75.9117 119.756 75.7395 119.74 75.5882 119.708C75.4369 119.679 75.3323 119.65 75.2744 119.621L75.5641 118.617C75.8409 118.688 76.0855 118.714 76.2979 118.694C76.5104 118.675 76.6987 118.58 76.8628 118.409C77.0302 118.242 77.1831 117.97 77.3215 117.593L77.5339 117.014L74.7916 109.56H76.0276L78.0747 115.469H78.1519L80.199 109.56H81.435L78.2871 118.057C78.1455 118.44 77.9701 118.757 77.7609 119.008C77.5516 119.262 77.3086 119.451 77.0318 119.573C76.7582 119.695 76.4492 119.756 76.1048 119.756Z" fill="#FAFAFA"/>
<path d="M51.3741 149.751V139.864H52.5715V148.689H57.1678V149.751H51.3741ZM61.8801 149.906C61.2106 149.906 60.6231 149.747 60.1178 149.428C59.6157 149.109 59.223 148.664 58.9397 148.091C58.6597 147.518 58.5197 146.848 58.5197 146.082C58.5197 145.31 58.6597 144.635 58.9397 144.059C59.223 143.483 59.6157 143.036 60.1178 142.717C60.6231 142.398 61.2106 142.239 61.8801 142.239C62.5496 142.239 63.1354 142.398 63.6375 142.717C64.1428 143.036 64.5355 143.483 64.8155 144.059C65.0988 144.635 65.2404 145.31 65.2404 146.082C65.2404 146.848 65.0988 147.518 64.8155 148.091C64.5355 148.664 64.1428 149.109 63.6375 149.428C63.1354 149.747 62.5496 149.906 61.8801 149.906ZM61.8801 148.882C62.3886 148.882 62.807 148.752 63.1354 148.491C63.4637 148.231 63.7067 147.888 63.8644 147.463C64.0221 147.038 64.101 146.578 64.101 146.082C64.101 145.586 64.0221 145.125 63.8644 144.696C63.7067 144.268 63.4637 143.922 63.1354 143.658C62.807 143.394 62.3886 143.263 61.8801 143.263C61.3715 143.263 60.9531 143.394 60.6248 143.658C60.2964 143.922 60.0534 144.268 59.8957 144.696C59.738 145.125 59.6591 145.586 59.6591 146.082C59.6591 146.578 59.738 147.038 59.8957 147.463C60.0534 147.888 60.2964 148.231 60.6248 148.491C60.9531 148.752 61.3715 148.882 61.8801 148.882ZM71.6533 146.719V142.336H72.7928V149.751H71.6533V148.496H71.5761C71.4023 148.873 71.1319 149.193 70.765 149.457C70.398 149.718 69.9345 149.848 69.3745 149.848C68.911 149.848 68.499 149.747 68.1385 149.544C67.778 149.338 67.4947 149.029 67.2887 148.617C67.0827 148.202 66.9797 147.679 66.9797 147.048V142.336H68.1192V146.97C68.1192 147.511 68.2704 147.943 68.573 148.264C68.8788 148.586 69.2682 148.747 69.7414 148.747C70.0246 148.747 70.3127 148.675 70.6056 148.53C70.9017 148.385 71.1496 148.163 71.3492 147.864C71.5519 147.564 71.6533 147.183 71.6533 146.719ZM74.8797 149.751V142.336H76.0191V149.751H74.8797ZM75.4591 141.1C75.237 141.1 75.0455 141.024 74.8845 140.873C74.7268 140.721 74.6479 140.539 74.6479 140.327C74.6479 140.115 74.7268 139.933 74.8845 139.781C75.0455 139.63 75.237 139.555 75.4591 139.555C75.6812 139.555 75.8711 139.63 76.0288 139.781C76.1897 139.933 76.2702 140.115 76.2702 140.327C76.2702 140.539 76.1897 140.721 76.0288 140.873C75.8711 141.024 75.6812 141.1 75.4591 141.1ZM83.359 143.996L82.3355 144.286C82.2711 144.115 82.1762 143.95 82.0506 143.789C81.9283 143.625 81.7609 143.489 81.5485 143.383C81.3361 143.277 81.0641 143.224 80.7326 143.224C80.2787 143.224 79.9005 143.328 79.5979 143.538C79.2986 143.744 79.1489 144.006 79.1489 144.325C79.1489 144.608 79.2519 144.832 79.4579 144.996C79.6639 145.16 79.9858 145.297 80.4236 145.406L81.5244 145.677C82.1874 145.837 82.6815 146.084 83.0066 146.415C83.3317 146.744 83.4942 147.167 83.4942 147.685C83.4942 148.11 83.3719 148.49 83.1273 148.824C82.8859 149.159 82.5479 149.423 82.1134 149.616C81.6789 149.809 81.1735 149.906 80.5974 149.906C79.841 149.906 79.2149 149.742 78.7192 149.413C78.2236 149.085 77.9097 148.606 77.7778 147.975L78.8593 147.704C78.9622 148.103 79.157 148.403 79.4434 148.602C79.7331 148.802 80.1113 148.902 80.5781 148.902C81.1091 148.902 81.5308 148.789 81.843 148.564C82.1584 148.335 82.3162 148.062 82.3162 147.743C82.3162 147.485 82.226 147.27 82.0458 147.096C81.8655 146.919 81.5887 146.787 81.2154 146.7L79.9794 146.41C79.3002 146.249 78.8013 146 78.4827 145.662C78.1672 145.321 78.0095 144.894 78.0095 144.383C78.0095 143.964 78.127 143.594 78.362 143.272C78.6001 142.95 78.9236 142.698 79.3324 142.514C79.7444 142.331 80.2111 142.239 80.7326 142.239C81.4664 142.239 82.0426 142.4 82.461 142.722C82.8827 143.044 83.182 143.469 83.359 143.996ZM89.5933 139.864L92.5288 148.187H92.6447L95.5801 139.864H96.8354L93.2047 149.751H91.9687L88.338 139.864H89.5933ZM102.895 146.719V142.336H104.034V149.751H102.895V148.496H102.817C102.644 148.873 102.373 149.193 102.006 149.457C101.639 149.718 101.176 149.848 100.616 149.848C100.152 149.848 99.7403 149.747 99.3799 149.544C99.0194 149.338 98.7361 149.029 98.5301 148.617C98.3241 148.202 98.2211 147.679 98.2211 147.048V142.336H99.3605V146.97C99.3605 147.511 99.5118 147.943 99.8144 148.264C100.12 148.586 100.51 148.747 100.983 148.747C101.266 148.747 101.554 148.675 101.847 148.53C102.143 148.385 102.391 148.163 102.591 147.864C102.793 147.564 102.895 147.183 102.895 146.719ZM106.121 149.751V142.336H107.261V149.751H106.121ZM106.7 141.1C106.478 141.1 106.287 141.024 106.126 140.873C105.968 140.721 105.889 140.539 105.889 140.327C105.889 140.115 105.968 139.933 106.126 139.781C106.287 139.63 106.478 139.555 106.7 139.555C106.923 139.555 107.112 139.63 107.27 139.781C107.431 139.933 107.512 140.115 107.512 140.327C107.512 140.539 107.431 140.721 107.27 140.873C107.112 141.024 106.923 141.1 106.7 141.1ZM112.573 142.336V143.301H108.729V142.336H112.573ZM109.85 140.559H110.989V147.627C110.989 147.949 111.036 148.19 111.129 148.351C111.226 148.509 111.348 148.615 111.496 148.67C111.647 148.721 111.807 148.747 111.974 148.747C112.099 148.747 112.202 148.741 112.283 148.728C112.363 148.712 112.428 148.699 112.476 148.689L112.708 149.713C112.631 149.742 112.523 149.771 112.384 149.8C112.246 149.832 112.07 149.848 111.858 149.848C111.536 149.848 111.221 149.779 110.912 149.64C110.606 149.502 110.352 149.291 110.149 149.008C109.949 148.725 109.85 148.367 109.85 147.936V140.559ZM117.512 142.336V143.301H113.669V142.336H117.512ZM114.789 140.559H115.928V147.627C115.928 147.949 115.975 148.19 116.068 148.351C116.165 148.509 116.287 148.615 116.435 148.67C116.586 148.721 116.746 148.747 116.913 148.747C117.039 148.747 117.142 148.741 117.222 148.728C117.303 148.712 117.367 148.699 117.415 148.689L117.647 149.713C117.57 149.742 117.462 149.771 117.323 149.8C117.185 149.832 117.01 149.848 116.797 149.848C116.475 149.848 116.16 149.779 115.851 149.64C115.545 149.502 115.291 149.291 115.088 149.008C114.888 148.725 114.789 148.367 114.789 147.936V140.559ZM122.159 149.906C121.489 149.906 120.902 149.747 120.397 149.428C119.894 149.109 119.502 148.664 119.218 148.091C118.938 147.518 118.798 146.848 118.798 146.082C118.798 145.31 118.938 144.635 119.218 144.059C119.502 143.483 119.894 143.036 120.397 142.717C120.902 142.398 121.489 142.239 122.159 142.239C122.828 142.239 123.414 142.398 123.916 142.717C124.422 143.036 124.814 143.483 125.094 144.059C125.378 144.635 125.519 145.31 125.519 146.082C125.519 146.848 125.378 147.518 125.094 148.091C124.814 148.664 124.422 149.109 123.916 149.428C123.414 149.747 122.828 149.906 122.159 149.906ZM122.159 148.882C122.667 148.882 123.086 148.752 123.414 148.491C123.742 148.231 123.985 147.888 124.143 147.463C124.301 147.038 124.38 146.578 124.38 146.082C124.38 145.586 124.301 145.125 124.143 144.696C123.985 144.268 123.742 143.922 123.414 143.658C123.086 143.394 122.667 143.263 122.159 143.263C121.65 143.263 121.232 143.394 120.903 143.658C120.575 143.922 120.332 144.268 120.174 144.696C120.017 145.125 119.938 145.586 119.938 146.082C119.938 146.578 120.017 147.038 120.174 147.463C120.332 147.888 120.575 148.231 120.903 148.491C121.232 148.752 121.65 148.882 122.159 148.882ZM128.398 145.29V149.751H127.258V142.336H128.359V143.494H128.456C128.63 143.118 128.894 142.815 129.248 142.587C129.602 142.355 130.059 142.239 130.619 142.239C131.121 142.239 131.56 142.342 131.937 142.548C132.313 142.751 132.606 143.06 132.816 143.475C133.025 143.887 133.129 144.408 133.129 145.039V149.751H131.99V145.116C131.99 144.534 131.839 144.08 131.536 143.755C131.234 143.427 130.818 143.263 130.291 143.263C129.927 143.263 129.602 143.341 129.315 143.499C129.032 143.657 128.808 143.887 128.644 144.19C128.48 144.492 128.398 144.859 128.398 145.29Z" fill="#FAFAFA"/>
<path d="M52.5715 172.637V182.525H51.3741V172.637H52.5715ZM54.9723 182.525V172.637H58.4292C59.118 172.637 59.6861 172.756 60.1335 172.995C60.5809 173.23 60.914 173.547 61.1329 173.946C61.3518 174.342 61.4612 174.781 61.4612 175.264C61.4612 175.689 61.3856 176.04 61.2343 176.316C61.0862 176.593 60.8899 176.812 60.6453 176.973C60.4039 177.134 60.1415 177.253 59.8583 177.33V177.427C60.1609 177.446 60.465 177.552 60.7708 177.745C61.0766 177.939 61.3325 178.215 61.5385 178.576C61.7445 178.936 61.8475 179.377 61.8475 179.899C61.8475 180.394 61.7348 180.84 61.5095 181.236C61.2842 181.632 60.9285 181.946 60.4425 182.178C59.9565 182.409 59.324 182.525 58.545 182.525H54.9723ZM56.1696 181.463H58.545C59.3272 181.463 59.8824 181.312 60.2107 181.009C60.5423 180.703 60.708 180.333 60.708 179.899C60.708 179.564 60.6227 179.255 60.4521 178.972C60.2816 178.685 60.0385 178.457 59.7231 178.286C59.4077 178.112 59.0343 178.025 58.603 178.025H56.1696V181.463ZM56.1696 176.983H58.3906C58.751 176.983 59.0761 176.912 59.3658 176.77C59.6587 176.629 59.8905 176.429 60.0611 176.171C60.2349 175.914 60.3218 175.611 60.3218 175.264C60.3218 174.829 60.1705 174.461 59.8679 174.158C59.5654 173.852 59.0858 173.7 58.4292 173.7H56.1696V176.983ZM63.8149 172.637H65.244L68.6044 180.845H68.7203L72.0806 172.637H73.5097V182.525H72.3896V175.013H72.293L69.2031 182.525H68.1216L65.0316 175.013H64.935V182.525H63.8149V172.637Z" fill="#FAFAFA"/>
<path d="M50.8334 206.476V205.413H58.2493V206.476H55.14V215.301H53.9427V206.476H50.8334ZM61.0822 210.84V215.301H59.9428V205.413H61.0822V209.044H61.1788C61.3526 208.661 61.6133 208.357 61.9609 208.132C62.3118 207.903 62.7785 207.789 63.3611 207.789C63.8664 207.789 64.309 207.89 64.6888 208.093C65.0686 208.292 65.3631 208.6 65.5723 209.015C65.7848 209.427 65.891 209.952 65.891 210.589V215.301H64.7516V210.666C64.7516 210.077 64.5987 209.622 64.2929 209.3C63.9903 208.975 63.5703 208.812 63.0328 208.812C62.6594 208.812 62.3246 208.891 62.0285 209.049C61.7356 209.207 61.5039 209.437 61.3333 209.739C61.1659 210.042 61.0822 210.409 61.0822 210.84ZM71.0848 215.456C70.3703 215.456 69.7539 215.298 69.2357 214.983C68.7207 214.664 68.3231 214.22 68.0431 213.65C67.7663 213.077 67.6279 212.411 67.6279 211.651C67.6279 210.892 67.7663 210.222 68.0431 209.643C68.3231 209.06 68.7126 208.606 69.2115 208.281C69.7136 207.953 70.2994 207.789 70.9689 207.789C71.3552 207.789 71.7366 207.853 72.1132 207.982C72.4898 208.111 72.8326 208.32 73.1416 208.61C73.4506 208.896 73.6968 209.276 73.8803 209.749C74.0637 210.222 74.1555 210.805 74.1555 211.497V211.98H68.439V210.995H72.9967C72.9967 210.576 72.9131 210.203 72.7457 209.874C72.5815 209.546 72.3466 209.287 72.0408 209.097C71.7382 208.907 71.3809 208.812 70.9689 208.812C70.5151 208.812 70.1224 208.925 69.7909 209.15C69.4626 209.372 69.2099 209.662 69.0329 210.019C68.8558 210.377 68.7673 210.76 68.7673 211.168V211.825C68.7673 212.385 68.8639 212.86 69.057 213.249C69.2534 213.636 69.5253 213.93 69.873 214.133C70.2206 214.332 70.6245 214.432 71.0848 214.432C71.3842 214.432 71.6545 214.39 71.8959 214.307C72.1406 214.22 72.3514 214.091 72.5284 213.92C72.7054 213.747 72.8422 213.531 72.9388 213.273L74.0396 213.582C73.9237 213.956 73.729 214.284 73.4554 214.567C73.1818 214.847 72.8439 215.066 72.4415 215.224C72.0392 215.379 71.5869 215.456 71.0848 215.456ZM81.6632 215.301L78.9594 205.413H80.1761L82.2425 213.467H82.3391L84.4441 205.413H85.796L87.9011 213.467H87.9976L90.064 205.413H91.2807L88.577 215.301H87.341L85.1587 207.422H85.0815L82.8992 215.301H81.6632ZM94.11 215.475C93.6401 215.475 93.2136 215.387 92.8305 215.21C92.4475 215.029 92.1433 214.77 91.918 214.432C91.6927 214.091 91.5801 213.679 91.5801 213.196C91.5801 212.771 91.6638 212.427 91.8311 212.163C91.9985 211.896 92.2222 211.687 92.5022 211.535C92.7823 211.384 93.0913 211.271 93.4292 211.197C93.7704 211.12 94.1132 211.059 94.4576 211.014C94.9082 210.956 95.2736 210.913 95.5536 210.884C95.8368 210.851 96.0428 210.798 96.1716 210.724C96.3036 210.65 96.3695 210.521 96.3695 210.338V210.299C96.3695 209.823 96.2392 209.453 95.9785 209.189C95.721 208.925 95.3299 208.793 94.8052 208.793C94.2613 208.793 93.8348 208.912 93.5258 209.15C93.2168 209.388 92.9995 209.643 92.874 209.913L91.7925 209.527C91.9856 209.076 92.2431 208.725 92.565 208.474C92.8901 208.22 93.2442 208.043 93.6272 207.943C94.0134 207.84 94.3932 207.789 94.7666 207.789C95.0048 207.789 95.2784 207.818 95.5874 207.876C95.8996 207.93 96.2006 208.045 96.4902 208.218C96.7831 208.392 97.0262 208.655 97.2193 209.005C97.4124 209.356 97.509 209.826 97.509 210.415V215.301H96.3695V214.297H96.3116C96.2343 214.458 96.1056 214.63 95.9254 214.814C95.7451 214.997 95.5053 215.153 95.206 215.282C94.9066 215.411 94.5413 215.475 94.11 215.475ZM94.2838 214.452C94.7344 214.452 95.1142 214.363 95.4232 214.186C95.7354 214.009 95.9704 213.78 96.1281 213.5C96.2891 213.22 96.3695 212.926 96.3695 212.617V211.574C96.3213 211.632 96.215 211.685 96.0509 211.733C95.8899 211.778 95.7033 211.819 95.4908 211.854C95.2816 211.886 95.0772 211.915 94.8777 211.941C94.6813 211.963 94.522 211.983 94.3997 211.999C94.1036 212.037 93.8267 212.1 93.5692 212.187C93.315 212.271 93.109 212.398 92.9512 212.569C92.7967 212.736 92.7195 212.964 92.7195 213.254C92.7195 213.65 92.866 213.949 93.1589 214.152C93.455 214.352 93.83 214.452 94.2838 214.452ZM100.728 205.413V215.301H99.5887V205.413H100.728ZM106.04 207.885V208.851H102.197V207.885H106.04ZM103.317 206.109H104.457V213.177C104.457 213.499 104.503 213.74 104.597 213.901C104.693 214.059 104.815 214.165 104.964 214.22C105.115 214.271 105.274 214.297 105.442 214.297C105.567 214.297 105.67 214.291 105.751 214.278C105.831 214.262 105.895 214.249 105.944 214.239L106.175 215.263C106.098 215.292 105.99 215.321 105.852 215.35C105.714 215.382 105.538 215.398 105.326 215.398C105.004 215.398 104.688 215.329 104.379 215.19C104.074 215.052 103.819 214.841 103.617 214.558C103.417 214.274 103.317 213.917 103.317 213.486V206.109ZM119.689 208.503H118.492C118.421 208.159 118.297 207.856 118.12 207.596C117.946 207.335 117.734 207.116 117.483 206.939C117.235 206.759 116.96 206.624 116.657 206.533C116.355 206.443 116.039 206.398 115.711 206.398C115.112 206.398 114.57 206.55 114.084 206.852C113.601 207.155 113.216 207.6 112.93 208.189C112.647 208.779 112.505 209.501 112.505 210.357C112.505 211.213 112.647 211.936 112.93 212.525C113.216 213.114 113.601 213.56 114.084 213.862C114.57 214.165 115.112 214.316 115.711 214.316C116.039 214.316 116.355 214.271 116.657 214.181C116.96 214.091 117.235 213.957 117.483 213.78C117.734 213.6 117.946 213.38 118.12 213.119C118.297 212.855 118.421 212.552 118.492 212.211H119.689C119.599 212.717 119.435 213.169 119.197 213.568C118.959 213.967 118.662 214.307 118.308 214.587C117.954 214.864 117.557 215.074 117.116 215.219C116.678 215.364 116.21 215.436 115.711 215.436C114.868 215.436 114.118 215.23 113.461 214.818C112.804 214.406 112.288 213.821 111.911 213.061C111.535 212.301 111.346 211.4 111.346 210.357C111.346 209.314 111.535 208.413 111.911 207.654C112.288 206.894 112.804 206.308 113.461 205.896C114.118 205.484 114.868 205.278 115.711 205.278C116.21 205.278 116.678 205.351 117.116 205.495C117.557 205.64 117.954 205.853 118.308 206.133C118.662 206.41 118.959 206.747 119.197 207.147C119.435 207.543 119.599 207.995 119.689 208.503ZM124.482 215.456C123.813 215.456 123.225 215.296 122.72 214.978C122.218 214.659 121.825 214.213 121.542 213.64C121.262 213.067 121.122 212.398 121.122 211.632C121.122 210.859 121.262 210.185 121.542 209.609C121.825 209.033 122.218 208.585 122.72 208.267C123.225 207.948 123.813 207.789 124.482 207.789C125.152 207.789 125.738 207.948 126.24 208.267C126.745 208.585 127.138 209.033 127.418 209.609C127.701 210.185 127.843 210.859 127.843 211.632C127.843 212.398 127.701 213.067 127.418 213.64C127.138 214.213 126.745 214.659 126.24 214.978C125.738 215.296 125.152 215.456 124.482 215.456ZM124.482 214.432C124.991 214.432 125.409 214.302 125.738 214.041C126.066 213.78 126.309 213.438 126.467 213.013C126.624 212.588 126.703 212.128 126.703 211.632C126.703 211.136 126.624 210.674 126.467 210.246C126.309 209.818 126.066 209.472 125.738 209.208C125.409 208.944 124.991 208.812 124.482 208.812C123.974 208.812 123.555 208.944 123.227 209.208C122.899 209.472 122.656 209.818 122.498 210.246C122.34 210.674 122.261 211.136 122.261 211.632C122.261 212.128 122.34 212.588 122.498 213.013C122.656 213.438 122.899 213.78 123.227 214.041C123.555 214.302 123.974 214.432 124.482 214.432ZM129.582 215.301V207.885H130.683V209.044H130.779C130.934 208.648 131.183 208.341 131.528 208.122C131.872 207.9 132.286 207.789 132.769 207.789C133.258 207.789 133.665 207.9 133.99 208.122C134.318 208.341 134.574 208.648 134.758 209.044H134.835C135.025 208.661 135.31 208.357 135.69 208.132C136.069 207.903 136.525 207.789 137.056 207.789C137.719 207.789 138.261 207.996 138.683 208.412C139.105 208.824 139.315 209.466 139.315 210.338V215.301H138.176V210.338C138.176 209.791 138.026 209.4 137.727 209.165C137.428 208.93 137.075 208.812 136.67 208.812C136.148 208.812 135.744 208.97 135.458 209.285C135.171 209.598 135.028 209.994 135.028 210.473V215.301H133.869V210.222C133.869 209.8 133.733 209.461 133.459 209.203C133.185 208.943 132.833 208.812 132.402 208.812C132.105 208.812 131.829 208.891 131.571 209.049C131.317 209.207 131.111 209.425 130.953 209.706C130.799 209.982 130.721 210.303 130.721 210.666V215.301H129.582ZM141.399 218.082V207.885H142.5V209.063H142.635C142.718 208.935 142.834 208.77 142.982 208.571C143.134 208.368 143.349 208.188 143.629 208.03C143.913 207.869 144.296 207.789 144.778 207.789C145.403 207.789 145.953 207.945 146.43 208.257C146.906 208.569 147.278 209.012 147.545 209.585C147.812 210.158 147.946 210.834 147.946 211.613C147.946 212.398 147.812 213.079 147.545 213.655C147.278 214.228 146.908 214.672 146.434 214.987C145.961 215.3 145.416 215.456 144.798 215.456C144.321 215.456 143.94 215.377 143.653 215.219C143.367 215.058 143.147 214.876 142.992 214.674C142.838 214.468 142.718 214.297 142.635 214.162H142.538V218.082H141.399ZM142.519 211.593C142.519 212.153 142.601 212.647 142.765 213.076C142.929 213.5 143.169 213.834 143.484 214.075C143.8 214.313 144.186 214.432 144.643 214.432C145.12 214.432 145.517 214.307 145.836 214.056C146.158 213.801 146.399 213.46 146.56 213.032C146.724 212.601 146.806 212.121 146.806 211.593C146.806 211.072 146.726 210.602 146.565 210.183C146.407 209.762 146.167 209.429 145.845 209.184C145.527 208.936 145.126 208.812 144.643 208.812C144.18 208.812 143.79 208.93 143.475 209.165C143.159 209.397 142.921 209.722 142.76 210.14C142.599 210.555 142.519 211.04 142.519 211.593ZM151.866 215.475C151.396 215.475 150.97 215.387 150.587 215.21C150.204 215.029 149.899 214.77 149.674 214.432C149.449 214.091 149.336 213.679 149.336 213.196C149.336 212.771 149.42 212.427 149.587 212.163C149.755 211.896 149.978 211.687 150.258 211.535C150.538 211.384 150.847 211.271 151.185 211.197C151.526 211.12 151.869 211.059 152.214 211.014C152.664 210.956 153.03 210.913 153.31 210.884C153.593 210.851 153.799 210.798 153.928 210.724C154.06 210.65 154.126 210.521 154.126 210.338V210.299C154.126 209.823 153.995 209.453 153.735 209.189C153.477 208.925 153.086 208.793 152.561 208.793C152.017 208.793 151.591 208.912 151.282 209.15C150.973 209.388 150.756 209.643 150.63 209.913L149.549 209.527C149.742 209.076 149.999 208.725 150.321 208.474C150.646 208.22 151 208.043 151.383 207.943C151.769 207.84 152.149 207.789 152.523 207.789C152.761 207.789 153.034 207.818 153.343 207.876C153.656 207.93 153.957 208.045 154.246 208.218C154.539 208.392 154.782 208.655 154.975 209.005C155.168 209.356 155.265 209.826 155.265 210.415V215.301H154.126V214.297H154.068C153.99 214.458 153.862 214.63 153.681 214.814C153.501 214.997 153.261 215.153 152.962 215.282C152.663 215.411 152.297 215.475 151.866 215.475ZM152.04 214.452C152.49 214.452 152.87 214.363 153.179 214.186C153.492 214.009 153.726 213.78 153.884 213.5C154.045 213.22 154.126 212.926 154.126 212.617V211.574C154.077 211.632 153.971 211.685 153.807 211.733C153.646 211.778 153.459 211.819 153.247 211.854C153.038 211.886 152.833 211.915 152.634 211.941C152.437 211.963 152.278 211.983 152.156 211.999C151.86 212.037 151.583 212.1 151.325 212.187C151.071 212.271 150.865 212.398 150.707 212.569C150.553 212.736 150.476 212.964 150.476 213.254C150.476 213.65 150.622 213.949 150.915 214.152C151.211 214.352 151.586 214.452 152.04 214.452ZM158.484 210.84V215.301H157.345V207.885H158.446V209.044H158.542C158.716 208.667 158.98 208.365 159.334 208.136C159.688 207.905 160.145 207.789 160.705 207.789C161.207 207.789 161.647 207.892 162.023 208.098C162.4 208.301 162.693 208.61 162.902 209.025C163.111 209.437 163.216 209.958 163.216 210.589V215.301H162.076V210.666C162.076 210.084 161.925 209.63 161.622 209.305C161.32 208.976 160.905 208.812 160.377 208.812C160.013 208.812 159.688 208.891 159.401 209.049C159.118 209.207 158.895 209.437 158.73 209.739C158.566 210.042 158.484 210.409 158.484 210.84ZM165.766 218.082C165.573 218.082 165.401 218.066 165.25 218.034C165.098 218.005 164.994 217.976 164.936 217.947L165.225 216.943C165.502 217.014 165.747 217.039 165.959 217.02C166.172 217.001 166.36 216.906 166.524 216.735C166.692 216.568 166.844 216.296 166.983 215.919L167.195 215.34L164.453 207.885H165.689L167.736 213.795H167.813L169.86 207.885H171.096L167.948 216.383C167.807 216.766 167.631 217.083 167.422 217.334C167.213 217.588 166.97 217.776 166.693 217.899C166.42 218.021 166.111 218.082 165.766 218.082Z" fill="#FAFAFA"/>
</g>
</svg>
