<svg width="471" height="471" viewBox="0 0 471 471" fill="none" xmlns="http://www.w3.org/2000/svg">
<g filter="url(#filter0_d_2436_515)">
<g clip-path="url(#clip0_2436_515)">
<rect x="75" y="70.3061" width="320.651" height="320.432" rx="21.6238" fill="#1D2125"/>
<rect x="75.0002" y="70.3059" width="320.432" height="320.432" fill="white"/>
<line opacity="0.2" x1="171.628" y1="338.326" x2="171.628" y2="142.082" stroke="black" stroke-width="0.503191" stroke-dasharray="2.01 3.02"/>
<line opacity="0.2" x1="298.521" y1="338.326" x2="298.521" y2="142.082" stroke="black" stroke-width="0.503191" stroke-dasharray="2.01 3.02"/>
<line opacity="0.2" x1="146.451" y1="338.326" x2="146.451" y2="142.082" stroke="black" stroke-width="0.503191" stroke-dasharray="2.01 3.02"/>
<line opacity="0.2" x1="247.663" y1="338.326" x2="247.663" y2="142.082" stroke="black" stroke-width="0.503191" stroke-dasharray="2.01 3.02"/>
<line opacity="0.2" x1="121.276" y1="338.326" x2="121.275" y2="142.082" stroke="black" stroke-width="0.503191" stroke-dasharray="2.01 3.02"/>
<line opacity="0.2" x1="197.309" y1="338.326" x2="197.309" y2="142.082" stroke="black" stroke-width="0.503191" stroke-dasharray="2.01 3.02"/>
<line opacity="0.2" x1="222.487" y1="338.326" x2="222.487" y2="142.082" stroke="black" stroke-width="0.503191" stroke-dasharray="2.01 3.02"/>
<line opacity="0.2" x1="323.698" y1="338.326" x2="323.698" y2="142.082" stroke="black" stroke-width="0.503191" stroke-dasharray="2.01 3.02"/>
<line opacity="0.2" x1="272.84" y1="338.326" x2="272.84" y2="142.082" stroke="black" stroke-width="0.503191" stroke-dasharray="2.01 3.02"/>
<line opacity="0.2" x1="348.875" y1="338.326" x2="348.875" y2="142.082" stroke="black" stroke-width="0.503191" stroke-dasharray="2.01 3.02"/>
<path d="M115.96 288.51C122.358 288.307 129.15 284.153 135.401 280.33C136.404 279.716 137.396 279.102 138.38 278.494C145.195 274.277 151.598 270.316 158.553 268.382C161.931 267.349 165.467 266.798 169.086 266.235C173.219 265.591 177.462 264.93 181.705 263.515C184.166 262.762 186.711 261.702 189.282 260.631C194.27 258.554 199.36 256.434 204.134 256.434C209.197 256.434 213.968 258.405 218.818 260.408C221.592 261.554 224.391 262.71 227.286 263.515C234.521 266.17 242.479 266.17 249.714 259.974C253.062 257.555 256.41 254.039 259.704 250.579C264.24 245.815 268.675 241.157 272.867 239.619C278.183 238.141 283.176 240.809 288.277 243.535C290.813 244.891 293.376 246.26 296.019 247.142C299.636 248.248 303.435 248.248 307.233 248.248C311.031 248.248 314.83 248.248 318.447 249.354C321.798 250.286 325.149 252.08 328.447 253.846C332.98 256.274 337.411 258.647 341.6 258.647C345.579 258.647 349.377 256.877 353.176 255.107C353.608 254.905 354.04 254.704 354.473 254.505" stroke="#D1D7EC" stroke-width="5.03191" stroke-linecap="round"/>
<circle opacity="0.2" cx="272.452" cy="241.714" r="21.134" fill="#3E68FF"/>
<path opacity="0.34" d="M286.106 356.821H284.991C284.948 356.582 284.868 356.373 284.752 356.192C284.635 356.011 284.492 355.857 284.323 355.731C284.154 355.604 283.964 355.509 283.755 355.445C283.547 355.38 283.327 355.348 283.093 355.348C282.672 355.348 282.294 355.454 281.961 355.666C281.629 355.878 281.367 356.189 281.174 356.599C280.984 357.009 280.888 357.509 280.888 358.1C280.888 358.696 280.984 359.198 281.174 359.608C281.367 360.018 281.631 360.328 281.964 360.537C282.298 360.747 282.673 360.852 283.09 360.852C283.321 360.852 283.54 360.821 283.747 360.759C283.957 360.695 284.147 360.601 284.316 360.477C284.485 360.353 284.628 360.202 284.745 360.023C284.864 359.842 284.946 359.635 284.991 359.401L286.106 359.405C286.047 359.764 285.931 360.096 285.76 360.398C285.59 360.698 285.372 360.958 285.105 361.177C284.841 361.394 284.538 361.562 284.198 361.681C283.857 361.8 283.485 361.86 283.083 361.86C282.449 361.86 281.884 361.71 281.389 361.409C280.893 361.107 280.502 360.674 280.217 360.112C279.933 359.55 279.791 358.879 279.791 358.1C279.791 357.319 279.934 356.648 280.22 356.088C280.506 355.526 280.897 355.095 281.392 354.794C281.888 354.492 282.451 354.341 283.083 354.341C283.471 354.341 283.833 354.397 284.169 354.508C284.507 354.618 284.811 354.78 285.08 354.995C285.35 355.207 285.572 355.466 285.749 355.774C285.925 356.079 286.044 356.428 286.106 356.821ZM290.819 359.483V356.27H291.891V361.76H290.841V360.809H290.783C290.657 361.102 290.455 361.346 290.176 361.542C289.899 361.735 289.555 361.831 289.143 361.831C288.79 361.831 288.478 361.754 288.207 361.599C287.937 361.442 287.725 361.209 287.571 360.902C287.418 360.595 287.342 360.215 287.342 359.762V356.27H288.41V359.633C288.41 360.007 288.514 360.305 288.721 360.527C288.929 360.748 289.198 360.859 289.529 360.859C289.729 360.859 289.928 360.809 290.126 360.709C290.326 360.609 290.492 360.458 290.623 360.255C290.756 360.053 290.821 359.795 290.819 359.483ZM293.327 361.76V356.27H294.36V357.142H294.417C294.517 356.847 294.693 356.615 294.946 356.445C295.201 356.274 295.489 356.188 295.811 356.188C295.878 356.188 295.956 356.191 296.047 356.195C296.14 356.2 296.212 356.206 296.265 356.213V357.235C296.222 357.223 296.146 357.21 296.036 357.196C295.926 357.179 295.817 357.171 295.707 357.171C295.455 357.171 295.229 357.225 295.032 357.332C294.836 357.437 294.681 357.583 294.567 357.771C294.453 357.957 294.396 358.169 294.396 358.407V361.76H293.327ZM301.303 357.611L300.334 357.782C300.294 357.658 300.23 357.54 300.141 357.428C300.056 357.316 299.939 357.225 299.791 357.153C299.643 357.082 299.459 357.046 299.237 357.046C298.935 357.046 298.682 357.114 298.48 357.25C298.277 357.383 298.176 357.556 298.176 357.768C298.176 357.951 298.244 358.099 298.379 358.211C298.515 358.323 298.734 358.415 299.037 358.486L299.909 358.686C300.414 358.803 300.791 358.983 301.038 359.226C301.286 359.469 301.41 359.785 301.41 360.173C301.41 360.502 301.315 360.795 301.124 361.052C300.936 361.307 300.673 361.507 300.334 361.653C299.998 361.798 299.609 361.871 299.166 361.871C298.551 361.871 298.05 361.739 297.661 361.477C297.273 361.213 297.035 360.838 296.946 360.352L297.979 360.194C298.044 360.464 298.176 360.667 298.376 360.806C298.576 360.941 298.837 361.009 299.159 361.009C299.509 361.009 299.789 360.937 299.998 360.791C300.208 360.644 300.313 360.464 300.313 360.252C300.313 360.08 300.249 359.936 300.12 359.819C299.994 359.702 299.799 359.614 299.537 359.555L298.608 359.351C298.096 359.234 297.717 359.048 297.472 358.793C297.229 358.539 297.107 358.216 297.107 357.825C297.107 357.501 297.198 357.217 297.379 356.974C297.56 356.731 297.81 356.542 298.129 356.406C298.449 356.268 298.814 356.199 299.226 356.199C299.82 356.199 300.287 356.328 300.627 356.585C300.968 356.84 301.193 357.182 301.303 357.611ZM306.062 359.483V356.27H307.134V361.76H306.084V360.809H306.027C305.9 361.102 305.698 361.346 305.419 361.542C305.143 361.735 304.798 361.831 304.386 361.831C304.034 361.831 303.721 361.754 303.45 361.599C303.181 361.442 302.969 361.209 302.814 360.902C302.661 360.595 302.585 360.215 302.585 359.762V356.27H303.654V359.633C303.654 360.007 303.757 360.305 303.964 360.527C304.172 360.748 304.441 360.859 304.772 360.859C304.972 360.859 305.171 360.809 305.369 360.709C305.569 360.609 305.735 360.458 305.866 360.255C305.999 360.053 306.065 359.795 306.062 359.483ZM312.684 357.611L311.715 357.782C311.675 357.658 311.61 357.54 311.522 357.428C311.436 357.316 311.32 357.225 311.172 357.153C311.024 357.082 310.84 357.046 310.618 357.046C310.315 357.046 310.063 357.114 309.86 357.25C309.658 357.383 309.557 357.556 309.557 357.768C309.557 357.951 309.624 358.099 309.76 358.211C309.896 358.323 310.115 358.415 310.418 358.486L311.29 358.686C311.795 358.803 312.171 358.983 312.419 359.226C312.667 359.469 312.791 359.785 312.791 360.173C312.791 360.502 312.696 360.795 312.505 361.052C312.317 361.307 312.053 361.507 311.715 361.653C311.379 361.798 310.99 361.871 310.546 361.871C309.932 361.871 309.43 361.739 309.042 361.477C308.654 361.213 308.415 360.838 308.327 360.352L309.36 360.194C309.424 360.464 309.557 360.667 309.757 360.806C309.957 360.941 310.218 361.009 310.539 361.009C310.89 361.009 311.17 360.937 311.379 360.791C311.589 360.644 311.694 360.464 311.694 360.252C311.694 360.08 311.629 359.936 311.501 359.819C311.374 359.702 311.18 359.614 310.918 359.555L309.989 359.351C309.477 359.234 309.098 359.048 308.853 358.793C308.609 358.539 308.488 358.216 308.488 357.825C308.488 357.501 308.579 357.217 308.76 356.974C308.941 356.731 309.191 356.542 309.51 356.406C309.829 356.268 310.195 356.199 310.607 356.199C311.2 356.199 311.667 356.328 312.008 356.585C312.349 356.84 312.574 357.182 312.684 357.611Z" fill="#1D2125"/>
<path opacity="0.34" d="M184.795 356.363C184.756 356.025 184.599 355.763 184.323 355.577C184.046 355.389 183.699 355.295 183.279 355.295C182.979 355.295 182.719 355.342 182.5 355.438C182.281 355.531 182.111 355.659 181.989 355.824C181.87 355.986 181.81 356.17 181.81 356.378C181.81 356.552 181.851 356.702 181.932 356.828C182.015 356.954 182.124 357.06 182.257 357.146C182.393 357.229 182.538 357.3 182.693 357.357C182.848 357.412 182.997 357.457 183.14 357.493L183.855 357.678C184.088 357.736 184.328 357.813 184.573 357.911C184.818 358.008 185.046 358.137 185.256 358.297C185.465 358.456 185.634 358.654 185.763 358.89C185.894 359.126 185.96 359.408 185.96 359.737C185.96 360.152 185.852 360.52 185.638 360.841C185.426 361.163 185.117 361.417 184.712 361.602C184.31 361.788 183.823 361.881 183.251 361.881C182.703 361.881 182.229 361.794 181.828 361.62C181.428 361.446 181.115 361.2 180.888 360.881C180.662 360.559 180.537 360.178 180.513 359.737H181.621C181.642 360.001 181.728 360.222 181.878 360.398C182.031 360.572 182.225 360.702 182.461 360.788C182.699 360.871 182.96 360.913 183.244 360.913C183.556 360.913 183.833 360.864 184.076 360.766C184.322 360.666 184.515 360.528 184.655 360.352C184.796 360.173 184.866 359.964 184.866 359.726C184.866 359.509 184.804 359.332 184.68 359.194C184.559 359.056 184.393 358.941 184.183 358.851C183.976 358.76 183.741 358.68 183.479 358.611L182.615 358.375C182.028 358.216 181.564 357.981 181.221 357.671C180.88 357.362 180.71 356.952 180.71 356.442C180.71 356.02 180.824 355.652 181.053 355.338C181.282 355.023 181.591 354.779 181.982 354.605C182.373 354.429 182.813 354.341 183.304 354.341C183.8 354.341 184.237 354.427 184.616 354.601C184.997 354.775 185.297 355.015 185.516 355.32C185.736 355.622 185.85 355.97 185.86 356.363H184.795ZM189.559 361.871C189.019 361.871 188.553 361.755 188.162 361.524C187.774 361.29 187.473 360.963 187.261 360.541C187.052 360.117 186.947 359.62 186.947 359.051C186.947 358.489 187.052 357.993 187.261 357.564C187.473 357.135 187.769 356.8 188.148 356.56C188.529 356.319 188.974 356.199 189.484 356.199C189.794 356.199 190.094 356.25 190.385 356.353C190.676 356.455 190.936 356.616 191.168 356.835C191.399 357.054 191.581 357.339 191.714 357.689C191.848 358.037 191.914 358.46 191.914 358.958V359.337H187.551V358.536H190.867C190.867 358.255 190.81 358.006 190.696 357.789C190.581 357.57 190.421 357.397 190.213 357.271C190.008 357.145 189.768 357.082 189.491 357.082C189.191 357.082 188.929 357.155 188.705 357.303C188.484 357.449 188.312 357.639 188.191 357.875C188.071 358.108 188.012 358.362 188.012 358.636V359.262C188.012 359.629 188.076 359.941 188.205 360.198C188.336 360.455 188.518 360.652 188.752 360.788C188.985 360.921 189.258 360.988 189.57 360.988C189.773 360.988 189.957 360.959 190.124 360.902C190.291 360.842 190.435 360.754 190.556 360.638C190.678 360.521 190.771 360.377 190.835 360.205L191.847 360.387C191.766 360.685 191.62 360.946 191.411 361.17C191.203 361.392 190.942 361.564 190.628 361.688C190.316 361.81 189.96 361.871 189.559 361.871ZM195.155 361.867C194.712 361.867 194.316 361.754 193.969 361.527C193.623 361.299 193.351 360.973 193.154 360.552C192.958 360.128 192.861 359.619 192.861 359.026C192.861 358.433 192.96 357.925 193.157 357.503C193.357 357.082 193.631 356.759 193.979 356.535C194.327 356.311 194.721 356.199 195.162 356.199C195.503 356.199 195.777 356.256 195.984 356.37C196.194 356.482 196.356 356.613 196.47 356.764C196.587 356.914 196.677 357.046 196.742 357.16H196.806V354.441H197.875V361.76H196.831V360.906H196.742C196.677 361.022 196.585 361.156 196.463 361.306C196.344 361.456 196.18 361.587 195.97 361.699C195.76 361.811 195.489 361.867 195.155 361.867ZM195.391 360.956C195.698 360.956 195.958 360.875 196.17 360.713C196.384 360.548 196.546 360.321 196.656 360.03C196.768 359.739 196.824 359.401 196.824 359.015C196.824 358.634 196.769 358.3 196.66 358.014C196.55 357.728 196.389 357.506 196.177 357.346C195.965 357.186 195.703 357.107 195.391 357.107C195.069 357.107 194.801 357.19 194.587 357.357C194.372 357.524 194.21 357.751 194.101 358.039C193.994 358.328 193.94 358.653 193.94 359.015C193.94 359.382 193.995 359.712 194.104 360.005C194.214 360.298 194.376 360.53 194.59 360.702C194.807 360.871 195.074 360.956 195.391 360.956Z" fill="#1D2125"/>
<path d="M217.542 354.351H219.016L221.579 360.609H221.674L224.237 354.351H225.711V362.402H224.555V356.576H224.481L222.106 362.39H221.147L218.773 356.572H218.698V362.402H217.542V354.351ZM229.926 362.524C229.36 362.524 228.866 362.394 228.444 362.135C228.022 361.875 227.695 361.512 227.461 361.046C227.228 360.579 227.112 360.034 227.112 359.41C227.112 358.784 227.228 358.236 227.461 357.767C227.695 357.298 228.022 356.934 228.444 356.674C228.866 356.415 229.36 356.285 229.926 356.285C230.492 356.285 230.986 356.415 231.408 356.674C231.83 356.934 232.158 357.298 232.391 357.767C232.624 358.236 232.741 358.784 232.741 359.41C232.741 360.034 232.624 360.579 232.391 361.046C232.158 361.512 231.83 361.875 231.408 362.135C230.986 362.394 230.492 362.524 229.926 362.524ZM229.93 361.537C230.297 361.537 230.601 361.44 230.842 361.246C231.083 361.052 231.262 360.794 231.377 360.472C231.495 360.149 231.554 359.794 231.554 359.406C231.554 359.021 231.495 358.667 231.377 358.345C231.262 358.02 231.083 357.759 230.842 357.563C230.601 357.366 230.297 357.268 229.93 357.268C229.561 357.268 229.254 357.366 229.01 357.563C228.769 357.759 228.59 358.02 228.472 358.345C228.356 358.667 228.299 359.021 228.299 359.406C228.299 359.794 228.356 360.149 228.472 360.472C228.59 360.794 228.769 361.052 229.01 361.246C229.254 361.44 229.561 361.537 229.93 361.537ZM235.229 354.351V362.402H234.053V354.351H235.229ZM239.412 362.524C238.817 362.524 238.305 362.397 237.875 362.143C237.448 361.886 237.118 361.525 236.885 361.061C236.654 360.595 236.539 360.049 236.539 359.422C236.539 358.804 236.654 358.259 236.885 357.787C237.118 357.315 237.443 356.947 237.859 356.682C238.279 356.417 238.769 356.285 239.33 356.285C239.67 356.285 240.001 356.341 240.32 356.454C240.64 356.567 240.927 356.744 241.181 356.985C241.436 357.226 241.636 357.539 241.783 357.924C241.93 358.307 242.003 358.772 242.003 359.32V359.737H237.203V358.856H240.851C240.851 358.547 240.788 358.273 240.662 358.034C240.537 357.793 240.36 357.603 240.132 357.464C239.906 357.326 239.642 357.256 239.338 357.256C239.007 357.256 238.719 357.337 238.473 357.5C238.229 357.66 238.04 357.869 237.907 358.129C237.776 358.386 237.71 358.665 237.71 358.966V359.654C237.71 360.058 237.781 360.401 237.922 360.684C238.066 360.967 238.267 361.183 238.524 361.333C238.781 361.479 239.081 361.553 239.424 361.553C239.647 361.553 239.85 361.521 240.033 361.459C240.217 361.393 240.375 361.296 240.509 361.168C240.643 361.039 240.745 360.881 240.816 360.692L241.928 360.892C241.839 361.22 241.679 361.507 241.449 361.753C241.221 361.997 240.934 362.187 240.588 362.323C240.244 362.457 239.853 362.524 239.412 362.524ZM247.832 357.838L246.767 358.027C246.722 357.89 246.651 357.761 246.554 357.637C246.46 357.514 246.331 357.413 246.169 357.335C246.006 357.256 245.803 357.217 245.56 357.217C245.227 357.217 244.949 357.291 244.726 357.441C244.503 357.588 244.392 357.778 244.392 358.011C244.392 358.213 244.467 358.375 244.616 358.498C244.766 358.622 245.007 358.722 245.339 358.801L246.299 359.021C246.854 359.15 247.268 359.347 247.541 359.615C247.814 359.882 247.95 360.229 247.95 360.657C247.95 361.018 247.845 361.341 247.635 361.624C247.428 361.904 247.139 362.124 246.767 362.284C246.397 362.444 245.968 362.524 245.481 362.524C244.805 362.524 244.253 362.38 243.826 362.091C243.399 361.801 243.137 361.388 243.04 360.853L244.176 360.68C244.247 360.976 244.392 361.2 244.612 361.352C244.832 361.502 245.119 361.576 245.473 361.576C245.858 361.576 246.166 361.497 246.397 361.337C246.628 361.174 246.743 360.976 246.743 360.743C246.743 360.554 246.672 360.396 246.531 360.267C246.392 360.139 246.178 360.042 245.89 359.976L244.868 359.752C244.304 359.624 243.888 359.42 243.618 359.139C243.35 358.859 243.217 358.504 243.217 358.074C243.217 357.717 243.316 357.405 243.515 357.138C243.715 356.871 243.99 356.662 244.341 356.513C244.692 356.361 245.094 356.285 245.548 356.285C246.2 356.285 246.714 356.427 247.089 356.71C247.464 356.99 247.711 357.366 247.832 357.838ZM252.061 356.364V357.307H248.763V356.364H252.061ZM249.647 354.917H250.823V360.629C250.823 360.857 250.857 361.029 250.925 361.144C250.993 361.257 251.081 361.334 251.188 361.376C251.298 361.415 251.417 361.435 251.546 361.435C251.64 361.435 251.723 361.428 251.794 361.415C251.864 361.402 251.919 361.392 251.959 361.384L252.171 362.355C252.103 362.381 252.006 362.407 251.88 362.433C251.754 362.462 251.597 362.478 251.408 362.481C251.099 362.486 250.811 362.431 250.543 362.316C250.276 362.2 250.06 362.022 249.895 361.781C249.73 361.54 249.647 361.237 249.647 360.873V354.917ZM253.361 362.402V356.364H254.536V362.402H253.361ZM253.955 355.432C253.75 355.432 253.575 355.364 253.428 355.228C253.284 355.089 253.212 354.924 253.212 354.732C253.212 354.538 253.284 354.373 253.428 354.237C253.575 354.098 253.75 354.029 253.955 354.029C254.159 354.029 254.333 354.098 254.478 354.237C254.624 354.373 254.698 354.538 254.698 354.732C254.698 354.924 254.624 355.089 254.478 355.228C254.333 355.364 254.159 355.432 253.955 355.432ZM258.72 362.524C258.125 362.524 257.613 362.397 257.183 362.143C256.756 361.886 256.426 361.525 256.193 361.061C255.962 360.595 255.847 360.049 255.847 359.422C255.847 358.804 255.962 358.259 256.193 357.787C256.426 357.315 256.751 356.947 257.167 356.682C257.587 356.417 258.077 356.285 258.638 356.285C258.978 356.285 259.309 356.341 259.628 356.454C259.948 356.567 260.235 356.744 260.489 356.985C260.744 357.226 260.944 357.539 261.091 357.924C261.238 358.307 261.311 358.772 261.311 359.32V359.737H256.511V358.856H260.159C260.159 358.547 260.096 358.273 259.97 358.034C259.845 357.793 259.668 357.603 259.44 357.464C259.214 357.326 258.95 357.256 258.646 357.256C258.315 357.256 258.027 357.337 257.781 357.5C257.537 357.66 257.348 357.869 257.215 358.129C257.084 358.386 257.018 358.665 257.018 358.966V359.654C257.018 360.058 257.089 360.401 257.23 360.684C257.374 360.967 257.575 361.183 257.832 361.333C258.089 361.479 258.389 361.553 258.732 361.553C258.955 361.553 259.158 361.521 259.341 361.459C259.525 361.393 259.683 361.296 259.817 361.168C259.951 361.039 260.053 360.881 260.124 360.692L261.236 360.892C261.147 361.22 260.987 361.507 260.757 361.753C260.529 361.997 260.242 362.187 259.896 362.323C259.552 362.457 259.161 362.524 258.72 362.524Z" fill="#CB5B66"/>
<path opacity="0.34" d="M334.532 361.906V354.587H339.12V355.538H335.636V357.768H338.881V358.715H335.636V360.956H339.163V361.906H334.532ZM341.578 354.587V361.906H340.51V354.587H341.578ZM343.016 361.906V356.417H344.084V361.906H343.016ZM343.556 355.57C343.37 355.57 343.21 355.508 343.077 355.384C342.946 355.258 342.88 355.108 342.88 354.934C342.88 354.758 342.946 354.607 343.077 354.484C343.21 354.357 343.37 354.294 343.556 354.294C343.741 354.294 343.9 354.357 344.031 354.484C344.164 354.607 344.231 354.758 344.231 354.934C344.231 355.108 344.164 355.258 344.031 355.384C343.9 355.508 343.741 355.57 343.556 355.57ZM348.084 356.417V357.275H345.086V356.417H348.084ZM345.89 355.102H346.959V360.295C346.959 360.502 346.99 360.658 347.052 360.763C347.114 360.865 347.193 360.935 347.291 360.974C347.391 361.009 347.5 361.027 347.616 361.027C347.702 361.027 347.777 361.021 347.841 361.009C347.906 360.997 347.956 360.988 347.991 360.981L348.184 361.863C348.123 361.887 348.034 361.911 347.92 361.935C347.806 361.961 347.663 361.975 347.491 361.978C347.21 361.983 346.948 361.933 346.705 361.828C346.462 361.723 346.265 361.561 346.115 361.342C345.965 361.122 345.89 360.847 345.89 360.516V355.102Z" fill="#1D2125"/>
<path opacity="0.34" d="M122.606 361.906V354.587H127.145V355.538H123.71V357.768H126.819V358.715H123.71V361.906H122.606ZM129.995 362.028C129.647 362.028 129.332 361.964 129.051 361.835C128.77 361.704 128.547 361.514 128.383 361.267C128.221 361.019 128.14 360.715 128.14 360.355C128.14 360.046 128.199 359.791 128.319 359.591C128.438 359.39 128.599 359.232 128.801 359.115C129.004 358.998 129.23 358.91 129.48 358.851C129.73 358.791 129.985 358.746 130.245 358.715C130.574 358.677 130.84 358.646 131.045 358.622C131.25 358.596 131.399 358.554 131.492 358.497C131.585 358.44 131.631 358.347 131.631 358.218V358.193C131.631 357.881 131.543 357.639 131.367 357.468C131.193 357.296 130.933 357.21 130.588 357.21C130.228 357.21 129.945 357.29 129.737 357.45C129.532 357.607 129.391 357.782 129.312 357.975L128.308 357.746C128.427 357.413 128.601 357.144 128.83 356.939C129.061 356.731 129.326 356.581 129.627 356.488C129.927 356.393 130.242 356.346 130.574 356.346C130.793 356.346 131.025 356.372 131.271 356.424C131.518 356.474 131.749 356.567 131.964 356.703C132.181 356.839 132.358 357.033 132.496 357.285C132.635 357.536 132.704 357.861 132.704 358.261V361.906H131.66V361.156H131.617C131.548 361.294 131.444 361.43 131.306 361.563C131.168 361.697 130.991 361.807 130.774 361.896C130.557 361.984 130.297 362.028 129.995 362.028ZM130.227 361.17C130.522 361.17 130.775 361.112 130.985 360.995C131.197 360.878 131.357 360.726 131.467 360.538C131.579 360.347 131.635 360.143 131.635 359.926V359.219C131.597 359.257 131.523 359.293 131.413 359.326C131.306 359.357 131.184 359.384 131.045 359.408C130.907 359.43 130.773 359.45 130.642 359.469C130.511 359.486 130.401 359.5 130.313 359.512C130.105 359.538 129.916 359.582 129.745 359.644C129.575 359.706 129.44 359.795 129.337 359.912C129.237 360.027 129.187 360.179 129.187 360.37C129.187 360.634 129.285 360.834 129.48 360.97C129.675 361.103 129.924 361.17 130.227 361.17ZM136.439 362.017C135.908 362.017 135.45 361.897 135.067 361.656C134.686 361.413 134.393 361.078 134.188 360.652C133.983 360.225 133.88 359.737 133.88 359.187C133.88 358.629 133.985 358.137 134.195 357.711C134.404 357.282 134.7 356.947 135.081 356.706C135.462 356.466 135.911 356.346 136.428 356.346C136.845 356.346 137.217 356.423 137.543 356.578C137.87 356.73 138.133 356.945 138.333 357.221C138.536 357.497 138.656 357.82 138.694 358.19H137.654C137.597 357.932 137.466 357.711 137.261 357.525C137.059 357.339 136.787 357.246 136.446 357.246C136.148 357.246 135.888 357.325 135.664 357.482C135.442 357.637 135.269 357.858 135.145 358.147C135.022 358.433 134.96 358.771 134.96 359.162C134.96 359.562 135.02 359.907 135.142 360.198C135.263 360.489 135.435 360.714 135.656 360.874C135.88 361.033 136.144 361.113 136.446 361.113C136.649 361.113 136.832 361.076 136.997 361.002C137.163 360.926 137.303 360.818 137.415 360.677C137.529 360.536 137.609 360.367 137.654 360.169H138.694C138.656 360.524 138.541 360.841 138.348 361.12C138.155 361.399 137.896 361.618 137.572 361.778C137.25 361.937 136.873 362.017 136.439 362.017ZM139.837 361.906V356.417H140.905V361.906H139.837ZM140.377 355.57C140.191 355.57 140.031 355.508 139.898 355.384C139.767 355.258 139.701 355.108 139.701 354.934C139.701 354.758 139.767 354.607 139.898 354.484C140.031 354.357 140.191 354.294 140.377 354.294C140.562 354.294 140.721 354.357 140.852 354.484C140.985 354.607 141.052 354.758 141.052 354.934C141.052 355.108 140.985 355.258 140.852 355.384C140.721 355.508 140.562 355.57 140.377 355.57ZM143.412 354.587V361.906H142.343V354.587H143.412ZM144.849 361.906V356.417H145.918V361.906H144.849ZM145.389 355.57C145.203 355.57 145.043 355.508 144.91 355.384C144.779 355.258 144.713 355.108 144.713 354.934C144.713 354.758 144.779 354.607 144.91 354.484C145.043 354.357 145.203 354.294 145.389 354.294C145.575 354.294 145.733 354.357 145.864 354.484C145.998 354.607 146.064 354.758 146.064 354.934C146.064 355.108 145.998 355.258 145.864 355.384C145.733 355.508 145.575 355.57 145.389 355.57ZM151.469 357.757L150.5 357.929C150.46 357.805 150.395 357.687 150.307 357.575C150.222 357.463 150.105 357.371 149.957 357.3C149.809 357.228 149.625 357.192 149.403 357.192C149.101 357.192 148.848 357.26 148.645 357.396C148.443 357.53 148.342 357.702 148.342 357.914C148.342 358.098 148.41 358.246 148.545 358.358C148.681 358.47 148.9 358.561 149.203 358.633L150.075 358.833C150.58 358.95 150.957 359.129 151.204 359.373C151.452 359.616 151.576 359.931 151.576 360.32C151.576 360.648 151.481 360.941 151.29 361.199C151.102 361.454 150.839 361.654 150.5 361.799C150.164 361.944 149.775 362.017 149.332 362.017C148.717 362.017 148.215 361.886 147.827 361.624C147.439 361.36 147.2 360.984 147.112 360.498L148.145 360.341C148.209 360.61 148.342 360.814 148.542 360.952C148.742 361.088 149.003 361.156 149.324 361.156C149.675 361.156 149.955 361.083 150.164 360.938C150.374 360.79 150.479 360.61 150.479 360.398C150.479 360.227 150.414 360.083 150.286 359.966C150.16 359.849 149.965 359.761 149.703 359.701L148.774 359.498C148.262 359.381 147.883 359.195 147.638 358.94C147.395 358.685 147.273 358.362 147.273 357.972C147.273 357.648 147.364 357.364 147.545 357.121C147.726 356.878 147.976 356.689 148.295 356.553C148.614 356.415 148.98 356.346 149.392 356.346C149.986 356.346 150.453 356.474 150.793 356.731C151.134 356.986 151.359 357.328 151.469 357.757ZM152.751 361.906V356.417H153.819V361.906H152.751ZM153.291 355.57C153.105 355.57 152.945 355.508 152.812 355.384C152.681 355.258 152.615 355.108 152.615 354.934C152.615 354.758 152.681 354.607 152.812 354.484C152.945 354.357 153.105 354.294 153.291 354.294C153.476 354.294 153.635 354.357 153.766 354.484C153.899 354.607 153.966 354.758 153.966 354.934C153.966 355.108 153.899 355.258 153.766 355.384C153.635 355.508 153.476 355.57 153.291 355.57ZM159.37 357.757L158.402 357.929C158.361 357.805 158.297 357.687 158.209 357.575C158.123 357.463 158.006 357.371 157.859 357.3C157.711 357.228 157.526 357.192 157.305 357.192C157.002 357.192 156.75 357.26 156.547 357.396C156.345 357.53 156.243 357.702 156.243 357.914C156.243 358.098 156.311 358.246 156.447 358.358C156.583 358.47 156.802 358.561 157.105 358.633L157.977 358.833C158.482 358.95 158.858 359.129 159.106 359.373C159.354 359.616 159.478 359.931 159.478 360.32C159.478 360.648 159.382 360.941 159.192 361.199C159.004 361.454 158.74 361.654 158.402 361.799C158.066 361.944 157.676 362.017 157.233 362.017C156.619 362.017 156.117 361.886 155.729 361.624C155.34 361.36 155.102 360.984 155.014 360.498L156.047 360.341C156.111 360.61 156.243 360.814 156.443 360.952C156.644 361.088 156.905 361.156 157.226 361.156C157.576 361.156 157.856 361.083 158.066 360.938C158.276 360.79 158.38 360.61 158.38 360.398C158.38 360.227 158.316 360.083 158.188 359.966C158.061 359.849 157.867 359.761 157.605 359.701L156.676 359.498C156.164 359.381 155.785 359.195 155.539 358.94C155.296 358.685 155.175 358.362 155.175 357.972C155.175 357.648 155.265 357.364 155.446 357.121C155.627 356.878 155.878 356.689 156.197 356.553C156.516 356.415 156.882 356.346 157.294 356.346C157.887 356.346 158.354 356.474 158.695 356.731C159.036 356.986 159.261 357.328 159.37 357.757Z" fill="#1D2125"/>
<path d="M236.242 185.596C234.919 185.596 233.742 185.381 232.711 184.952C231.685 184.516 230.88 183.923 230.296 183.173C229.712 182.422 229.419 181.572 229.419 180.621C229.419 179.887 229.586 179.214 229.918 178.601C230.256 177.983 230.714 177.47 231.293 177.063C231.871 176.651 232.519 176.387 233.235 176.273V176.152C232.295 175.963 231.533 175.508 230.949 174.786C230.365 174.058 230.072 173.213 230.072 172.251C230.072 171.34 230.339 170.529 230.872 169.819C231.404 169.103 232.135 168.542 233.063 168.135C233.997 167.722 235.056 167.516 236.242 167.516C237.428 167.516 238.485 167.722 239.413 168.135C240.347 168.547 241.08 169.112 241.613 169.828C242.146 170.538 242.415 171.346 242.421 172.251C242.415 173.219 242.117 174.064 241.527 174.786C240.937 175.508 240.181 175.963 239.258 176.152V176.273C239.963 176.387 240.602 176.651 241.175 177.063C241.753 177.47 242.212 177.983 242.55 178.601C242.893 179.214 243.068 179.887 243.074 180.621C243.068 181.572 242.773 182.422 242.189 183.173C241.604 183.923 240.797 184.516 239.765 184.952C238.74 185.381 237.566 185.596 236.242 185.596ZM236.242 182.863C236.832 182.863 237.348 182.757 237.789 182.545C238.23 182.328 238.574 182.03 238.82 181.652C239.072 181.268 239.198 180.827 239.198 180.328C239.198 179.819 239.069 179.369 238.812 178.979C238.554 178.584 238.204 178.275 237.763 178.051C237.322 177.822 236.815 177.708 236.242 177.708C235.675 177.708 235.168 177.822 234.721 178.051C234.274 178.275 233.922 178.584 233.664 178.979C233.412 179.369 233.286 179.819 233.286 180.328C233.286 180.827 233.409 181.268 233.656 181.652C233.902 182.03 234.249 182.328 234.696 182.545C235.142 182.757 235.658 182.863 236.242 182.863ZM236.242 175.001C236.735 175.001 237.173 174.9 237.557 174.7C237.941 174.499 238.242 174.222 238.459 173.866C238.677 173.511 238.786 173.102 238.786 172.638C238.786 172.179 238.677 171.778 238.459 171.435C238.242 171.085 237.944 170.813 237.566 170.618C237.188 170.418 236.746 170.317 236.242 170.317C235.744 170.317 235.303 170.418 234.919 170.618C234.535 170.813 234.234 171.085 234.017 171.435C233.805 171.778 233.699 172.179 233.699 172.638C233.699 173.102 233.808 173.511 234.025 173.866C234.243 174.222 234.544 174.499 234.928 174.7C235.311 174.9 235.75 175.001 236.242 175.001ZM245.675 185.355V182.674L251.94 176.874C252.472 176.358 252.919 175.894 253.28 175.482C253.647 175.069 253.925 174.666 254.114 174.27C254.303 173.869 254.397 173.437 254.397 172.973C254.397 172.457 254.28 172.013 254.045 171.641C253.81 171.263 253.489 170.973 253.083 170.773C252.676 170.567 252.215 170.464 251.699 170.464C251.161 170.464 250.691 170.572 250.29 170.79C249.889 171.008 249.579 171.32 249.362 171.727C249.144 172.134 249.035 172.618 249.035 173.179H245.503C245.503 172.028 245.764 171.028 246.285 170.18C246.807 169.332 247.537 168.676 248.477 168.212C249.416 167.748 250.499 167.516 251.725 167.516C252.985 167.516 254.082 167.74 255.016 168.186C255.956 168.628 256.686 169.24 257.207 170.025C257.729 170.81 257.989 171.71 257.989 172.724C257.989 173.388 257.857 174.044 257.594 174.691C257.336 175.339 256.875 176.058 256.21 176.848C255.546 177.633 254.609 178.575 253.401 179.675L250.831 182.193V182.313H258.221V185.355H245.675ZM264.93 182.949L264.836 183.895C264.761 184.651 264.618 185.404 264.406 186.155C264.2 186.911 263.982 187.595 263.753 188.208C263.53 188.821 263.349 189.302 263.212 189.652H260.84C260.926 189.314 261.043 188.841 261.192 188.234C261.341 187.633 261.482 186.957 261.613 186.206C261.745 185.456 261.828 184.691 261.863 183.912L261.906 182.949H264.93ZM274.181 185.596C272.898 185.596 271.755 185.375 270.752 184.934C269.755 184.487 268.968 183.875 268.389 183.095C267.816 182.311 267.521 181.405 267.504 180.38H271.251C271.273 180.81 271.414 181.188 271.672 181.514C271.935 181.835 272.285 182.084 272.72 182.262C273.155 182.439 273.645 182.528 274.189 182.528C274.756 182.528 275.258 182.428 275.693 182.228C276.129 182.027 276.469 181.749 276.716 181.394C276.962 181.039 277.085 180.629 277.085 180.165C277.085 179.695 276.953 179.28 276.69 178.919C276.432 178.553 276.06 178.266 275.573 178.06C275.092 177.854 274.519 177.751 273.854 177.751H272.213V175.018H273.854C274.416 175.018 274.911 174.921 275.341 174.726C275.776 174.531 276.114 174.262 276.355 173.918C276.595 173.569 276.716 173.162 276.716 172.698C276.716 172.257 276.61 171.87 276.398 171.538C276.192 171.2 275.899 170.936 275.521 170.747C275.149 170.558 274.714 170.464 274.215 170.464C273.711 170.464 273.25 170.555 272.832 170.739C272.413 170.916 272.078 171.171 271.826 171.503C271.574 171.836 271.44 172.225 271.422 172.672H267.856C267.873 171.658 268.163 170.764 268.724 169.991C269.286 169.218 270.042 168.613 270.993 168.178C271.949 167.737 273.029 167.516 274.232 167.516C275.447 167.516 276.509 167.737 277.42 168.178C278.331 168.619 279.039 169.215 279.543 169.965C280.053 170.71 280.305 171.546 280.299 172.474C280.305 173.46 279.998 174.282 279.38 174.941C278.767 175.599 277.967 176.018 276.982 176.195V176.333C278.277 176.499 279.262 176.948 279.938 177.682C280.62 178.409 280.958 179.32 280.952 180.414C280.958 181.417 280.669 182.308 280.084 183.087C279.506 183.866 278.706 184.479 277.687 184.926C276.667 185.373 275.498 185.596 274.181 185.596ZM283.36 182.262V179.332L290.707 167.757H293.234V171.813H291.739L287.107 179.143V179.28H297.548V182.262H283.36ZM291.807 185.355V181.368L291.876 180.071V167.757H295.365V185.355H291.807ZM300.723 185.355L308.018 170.919V170.799H299.52V167.757H311.868V170.842L304.564 185.355H300.723Z" fill="black"/>
<path opacity="0.5" d="M214.968 203.905V196.586H219.356V197.372H215.854V199.845H219.028V200.631H215.854V203.905H214.968ZM222.375 204.033C222.028 204.033 221.712 203.968 221.428 203.837C221.145 203.703 220.92 203.512 220.753 203.261C220.586 203.009 220.503 202.704 220.503 202.346C220.503 202.032 220.565 201.777 220.689 201.582C220.812 201.384 220.978 201.229 221.185 201.117C221.393 201.005 221.621 200.922 221.872 200.867C222.124 200.81 222.378 200.764 222.633 200.731C222.966 200.688 223.237 200.656 223.444 200.635C223.654 200.611 223.806 200.572 223.901 200.517C223.999 200.462 224.048 200.367 224.048 200.231V200.202C224.048 199.85 223.951 199.576 223.759 199.38C223.568 199.185 223.278 199.087 222.89 199.087C222.487 199.087 222.172 199.175 221.943 199.352C221.714 199.528 221.553 199.716 221.461 199.916L220.66 199.63C220.803 199.297 220.994 199.037 221.232 198.851C221.472 198.663 221.735 198.532 222.018 198.458C222.304 198.382 222.585 198.344 222.861 198.344C223.038 198.344 223.24 198.365 223.469 198.408C223.7 198.449 223.923 198.533 224.137 198.662C224.354 198.791 224.534 198.985 224.677 199.244C224.82 199.504 224.891 199.852 224.891 200.288V203.905H224.048V203.161H224.005C223.948 203.28 223.853 203.408 223.719 203.544C223.586 203.68 223.408 203.795 223.187 203.89C222.965 203.986 222.695 204.033 222.375 204.033ZM222.504 203.276C222.838 203.276 223.119 203.21 223.348 203.079C223.579 202.948 223.753 202.779 223.869 202.572C223.988 202.364 224.048 202.146 224.048 201.918V201.146C224.012 201.189 223.934 201.228 223.812 201.264C223.693 201.297 223.555 201.327 223.398 201.353C223.243 201.377 223.091 201.398 222.944 201.417C222.798 201.434 222.68 201.448 222.59 201.46C222.371 201.489 222.166 201.535 221.975 201.6C221.787 201.662 221.634 201.756 221.518 201.882C221.403 202.006 221.346 202.175 221.346 202.389C221.346 202.682 221.455 202.904 221.671 203.054C221.891 203.202 222.168 203.276 222.504 203.276ZM228.661 204.019C228.146 204.019 227.703 203.898 227.331 203.655C226.96 203.411 226.674 203.077 226.474 202.65C226.274 202.224 226.173 201.737 226.173 201.189C226.173 200.631 226.276 200.139 226.481 199.713C226.688 199.284 226.976 198.949 227.346 198.708C227.717 198.465 228.151 198.344 228.647 198.344C229.033 198.344 229.38 198.415 229.69 198.558C230 198.701 230.254 198.901 230.451 199.159C230.649 199.416 230.772 199.716 230.819 200.059H229.976C229.912 199.809 229.769 199.588 229.547 199.395C229.328 199.199 229.033 199.101 228.661 199.101C228.332 199.101 228.044 199.187 227.796 199.359C227.551 199.528 227.359 199.767 227.221 200.077C227.085 200.384 227.017 200.745 227.017 201.16C227.017 201.584 227.084 201.953 227.217 202.268C227.353 202.582 227.543 202.827 227.789 203C228.037 203.174 228.327 203.261 228.661 203.261C228.88 203.261 229.079 203.223 229.258 203.147C229.436 203.071 229.588 202.961 229.712 202.818C229.835 202.675 229.924 202.504 229.976 202.304H230.819C230.772 202.628 230.654 202.919 230.466 203.179C230.28 203.437 230.033 203.641 229.726 203.794C229.421 203.944 229.066 204.019 228.661 204.019ZM232.052 203.905V198.415H232.896V203.905H232.052ZM232.481 197.5C232.317 197.5 232.175 197.444 232.056 197.332C231.939 197.22 231.881 197.086 231.881 196.929C231.881 196.771 231.939 196.637 232.056 196.525C232.175 196.413 232.317 196.357 232.481 196.357C232.646 196.357 232.786 196.413 232.903 196.525C233.022 196.637 233.082 196.771 233.082 196.929C233.082 197.086 233.022 197.22 232.903 197.332C232.786 197.444 232.646 197.5 232.481 197.5ZM235.284 196.586V203.905H234.441V196.586H235.284ZM236.829 203.905V198.415H237.672V203.905H236.829ZM237.258 197.5C237.093 197.5 236.951 197.444 236.832 197.332C236.716 197.22 236.657 197.086 236.657 196.929C236.657 196.771 236.716 196.637 236.832 196.525C236.951 196.413 237.093 196.357 237.258 196.357C237.422 196.357 237.563 196.413 237.679 196.525C237.798 196.637 237.858 196.771 237.858 196.929C237.858 197.086 237.798 197.22 237.679 197.332C237.563 197.444 237.422 197.5 237.258 197.5ZM243.105 199.645L242.348 199.859C242.3 199.733 242.23 199.61 242.137 199.491C242.046 199.37 241.922 199.269 241.765 199.191C241.608 199.112 241.407 199.073 241.161 199.073C240.825 199.073 240.545 199.15 240.321 199.305C240.1 199.458 239.989 199.652 239.989 199.888C239.989 200.097 240.065 200.263 240.218 200.384C240.37 200.506 240.608 200.607 240.932 200.688L241.747 200.888C242.238 201.008 242.604 201.19 242.844 201.435C243.085 201.678 243.205 201.991 243.205 202.375C243.205 202.69 243.115 202.971 242.934 203.219C242.755 203.466 242.505 203.662 242.183 203.805C241.862 203.948 241.488 204.019 241.061 204.019C240.501 204.019 240.038 203.898 239.671 203.655C239.304 203.411 239.072 203.056 238.974 202.59L239.774 202.389C239.851 202.685 239.995 202.906 240.207 203.054C240.421 203.202 240.701 203.276 241.047 203.276C241.44 203.276 241.752 203.192 241.983 203.026C242.217 202.856 242.333 202.654 242.333 202.418C242.333 202.227 242.267 202.068 242.133 201.939C242 201.808 241.795 201.71 241.519 201.646L240.604 201.432C240.101 201.312 239.732 201.128 239.496 200.878C239.262 200.625 239.145 200.309 239.145 199.931C239.145 199.621 239.232 199.347 239.406 199.109C239.583 198.87 239.822 198.683 240.125 198.548C240.43 198.412 240.775 198.344 241.161 198.344C241.704 198.344 242.131 198.463 242.441 198.701C242.753 198.939 242.974 199.254 243.105 199.645ZM244.475 203.905V198.415H245.318V203.905H244.475ZM244.904 197.5C244.739 197.5 244.598 197.444 244.478 197.332C244.362 197.22 244.303 197.086 244.303 196.929C244.303 196.771 244.362 196.637 244.478 196.525C244.598 196.413 244.739 196.357 244.904 196.357C245.068 196.357 245.209 196.413 245.325 196.525C245.445 196.637 245.504 196.771 245.504 196.929C245.504 197.086 245.445 197.22 245.325 197.332C245.209 197.444 245.068 197.5 244.904 197.5ZM249.694 203.905V198.415H250.537V203.905H249.694ZM250.122 197.5C249.958 197.5 249.816 197.444 249.697 197.332C249.58 197.22 249.522 197.086 249.522 196.929C249.522 196.771 249.58 196.637 249.697 196.525C249.816 196.413 249.958 196.357 250.122 196.357C250.287 196.357 250.427 196.413 250.544 196.525C250.663 196.637 250.723 196.771 250.723 196.929C250.723 197.086 250.663 197.22 250.544 197.332C250.427 197.444 250.287 197.5 250.122 197.5ZM252.925 200.602V203.905H252.082V198.415H252.897V199.273H252.968C253.097 198.994 253.292 198.77 253.554 198.601C253.816 198.43 254.155 198.344 254.569 198.344C254.941 198.344 255.266 198.42 255.545 198.573C255.824 198.723 256.04 198.951 256.195 199.259C256.35 199.564 256.428 199.95 256.428 200.417V203.905H255.584V200.474C255.584 200.043 255.472 199.707 255.248 199.466C255.024 199.223 254.717 199.101 254.326 199.101C254.057 199.101 253.816 199.16 253.604 199.277C253.395 199.393 253.229 199.564 253.107 199.788C252.986 200.012 252.925 200.283 252.925 200.602ZM260.799 203.905V198.415H261.614V199.273H261.685C261.8 198.98 261.984 198.752 262.239 198.59C262.494 198.426 262.8 198.344 263.158 198.344C263.52 198.344 263.821 198.426 264.062 198.59C264.305 198.752 264.494 198.98 264.63 199.273H264.687C264.828 198.99 265.039 198.764 265.32 198.598C265.601 198.428 265.938 198.344 266.331 198.344C266.822 198.344 267.224 198.498 267.536 198.805C267.848 199.11 268.004 199.585 268.004 200.231V203.905H267.161V200.231C267.161 199.826 267.05 199.536 266.828 199.362C266.607 199.188 266.346 199.101 266.045 199.101C265.66 199.101 265.361 199.218 265.148 199.452C264.936 199.683 264.83 199.976 264.83 200.331V203.905H263.973V200.145C263.973 199.833 263.871 199.582 263.669 199.391C263.466 199.198 263.206 199.101 262.886 199.101C262.667 199.101 262.462 199.16 262.272 199.277C262.083 199.393 261.931 199.555 261.814 199.763C261.7 199.968 261.643 200.205 261.643 200.474V203.905H260.799ZM271.161 204.033C270.814 204.033 270.498 203.968 270.214 203.837C269.931 203.703 269.706 203.512 269.539 203.261C269.372 203.009 269.289 202.704 269.289 202.346C269.289 202.032 269.351 201.777 269.475 201.582C269.598 201.384 269.764 201.229 269.971 201.117C270.179 201.005 270.407 200.922 270.657 200.867C270.91 200.81 271.164 200.764 271.419 200.731C271.752 200.688 272.023 200.656 272.23 200.635C272.44 200.611 272.592 200.572 272.687 200.517C272.785 200.462 272.834 200.367 272.834 200.231V200.202C272.834 199.85 272.737 199.576 272.544 199.38C272.354 199.185 272.064 199.087 271.676 199.087C271.273 199.087 270.958 199.175 270.729 199.352C270.5 199.528 270.339 199.716 270.246 199.916L269.446 199.63C269.589 199.297 269.78 199.037 270.018 198.851C270.258 198.663 270.52 198.532 270.804 198.458C271.09 198.382 271.371 198.344 271.647 198.344C271.824 198.344 272.026 198.365 272.255 198.408C272.486 198.449 272.709 198.533 272.923 198.662C273.14 198.791 273.32 198.985 273.463 199.244C273.606 199.504 273.677 199.852 273.677 200.288V203.905H272.834V203.161H272.791C272.734 203.28 272.639 203.408 272.505 203.544C272.372 203.68 272.194 203.795 271.973 203.89C271.751 203.986 271.481 204.033 271.161 204.033ZM271.29 203.276C271.624 203.276 271.905 203.21 272.133 203.079C272.365 202.948 272.538 202.779 272.655 202.572C272.774 202.364 272.834 202.146 272.834 201.918V201.146C272.798 201.189 272.72 201.228 272.598 201.264C272.479 201.297 272.341 201.327 272.183 201.353C272.029 201.377 271.877 201.398 271.73 201.417C271.584 201.434 271.466 201.448 271.376 201.46C271.157 201.489 270.952 201.535 270.761 201.6C270.573 201.662 270.42 201.756 270.304 201.882C270.189 202.006 270.132 202.175 270.132 202.389C270.132 202.682 270.241 202.904 270.457 203.054C270.677 203.202 270.954 203.276 271.29 203.276ZM277.433 206.078C277.025 206.078 276.675 206.025 276.382 205.92C276.089 205.818 275.845 205.682 275.649 205.513C275.456 205.346 275.303 205.167 275.188 204.977L275.86 204.505C275.936 204.605 276.033 204.719 276.15 204.848C276.266 204.979 276.426 205.092 276.628 205.188C276.833 205.285 277.101 205.334 277.433 205.334C277.876 205.334 278.241 205.227 278.53 205.013C278.818 204.798 278.962 204.462 278.962 204.005V202.89H278.891C278.829 202.99 278.741 203.114 278.626 203.261C278.514 203.407 278.352 203.537 278.14 203.651C277.93 203.763 277.647 203.819 277.29 203.819C276.846 203.819 276.449 203.714 276.096 203.504C275.746 203.295 275.468 202.99 275.263 202.59C275.061 202.189 274.959 201.703 274.959 201.131C274.959 200.569 275.058 200.08 275.256 199.663C275.454 199.243 275.729 198.919 276.082 198.69C276.434 198.459 276.842 198.344 277.304 198.344C277.661 198.344 277.945 198.403 278.154 198.523C278.366 198.639 278.528 198.773 278.64 198.923C278.755 199.071 278.843 199.192 278.905 199.287H278.991V198.415H279.806V204.062C279.806 204.534 279.698 204.917 279.484 205.213C279.272 205.51 278.986 205.729 278.626 205.867C278.269 206.007 277.871 206.078 277.433 206.078ZM277.404 203.061C277.742 203.061 278.028 202.984 278.262 202.829C278.495 202.674 278.673 202.451 278.794 202.161C278.916 201.87 278.976 201.522 278.976 201.117C278.976 200.722 278.917 200.373 278.798 200.07C278.679 199.767 278.502 199.53 278.269 199.359C278.035 199.187 277.747 199.101 277.404 199.101C277.047 199.101 276.749 199.192 276.51 199.373C276.275 199.554 276.097 199.797 275.978 200.102C275.861 200.407 275.803 200.745 275.803 201.117C275.803 201.498 275.862 201.835 275.982 202.128C276.103 202.419 276.282 202.648 276.518 202.815C276.756 202.979 277.051 203.061 277.404 203.061ZM282.193 200.602V203.905H281.349V198.415H282.164V199.273H282.236C282.364 198.994 282.56 198.77 282.822 198.601C283.084 198.43 283.422 198.344 283.837 198.344C284.208 198.344 284.534 198.42 284.812 198.573C285.091 198.723 285.308 198.951 285.463 199.259C285.618 199.564 285.695 199.95 285.695 200.417V203.905H284.852V200.474C284.852 200.043 284.74 199.707 284.516 199.466C284.292 199.223 283.984 199.101 283.594 199.101C283.325 199.101 283.084 199.16 282.872 199.277C282.662 199.393 282.497 199.564 282.375 199.788C282.254 200.012 282.193 200.283 282.193 200.602ZM288.852 204.033C288.504 204.033 288.188 203.968 287.905 203.837C287.621 203.703 287.396 203.512 287.229 203.261C287.062 203.009 286.979 202.704 286.979 202.346C286.979 202.032 287.041 201.777 287.165 201.582C287.289 201.384 287.454 201.229 287.662 201.117C287.869 201.005 288.098 200.922 288.348 200.867C288.6 200.81 288.854 200.764 289.109 200.731C289.443 200.688 289.713 200.656 289.92 200.635C290.13 200.611 290.282 200.572 290.378 200.517C290.475 200.462 290.524 200.367 290.524 200.231V200.202C290.524 199.85 290.428 199.576 290.235 199.38C290.044 199.185 289.755 199.087 289.366 199.087C288.964 199.087 288.648 199.175 288.419 199.352C288.191 199.528 288.03 199.716 287.937 199.916L287.136 199.63C287.279 199.297 287.47 199.037 287.708 198.851C287.949 198.663 288.211 198.532 288.494 198.458C288.78 198.382 289.061 198.344 289.338 198.344C289.514 198.344 289.717 198.365 289.945 198.408C290.176 198.449 290.399 198.533 290.614 198.662C290.83 198.791 291.01 198.985 291.153 199.244C291.296 199.504 291.368 199.852 291.368 200.288V203.905H290.524V203.161H290.481C290.424 203.28 290.329 203.408 290.195 203.544C290.062 203.68 289.885 203.795 289.663 203.89C289.441 203.986 289.171 204.033 288.852 204.033ZM288.98 203.276C289.314 203.276 289.595 203.21 289.824 203.079C290.055 202.948 290.229 202.779 290.346 202.572C290.465 202.364 290.524 202.146 290.524 201.918V201.146C290.488 201.189 290.41 201.228 290.288 201.264C290.169 201.297 290.031 201.327 289.874 201.353C289.719 201.377 289.568 201.398 289.42 201.417C289.275 201.434 289.157 201.448 289.066 201.46C288.847 201.489 288.642 201.535 288.451 201.6C288.263 201.662 288.111 201.756 287.994 201.882C287.88 202.006 287.822 202.175 287.822 202.389C287.822 202.682 287.931 202.904 288.148 203.054C288.367 203.202 288.644 203.276 288.98 203.276ZM295.738 203.905V198.415H296.552V199.273H296.624C296.738 198.98 296.923 198.752 297.178 198.59C297.433 198.426 297.739 198.344 298.096 198.344C298.458 198.344 298.76 198.426 299 198.59C299.243 198.752 299.433 198.98 299.569 199.273H299.626C299.766 198.99 299.977 198.764 300.258 198.598C300.54 198.428 300.877 198.344 301.27 198.344C301.761 198.344 302.162 198.498 302.474 198.805C302.786 199.11 302.942 199.585 302.942 200.231V203.905H302.099V200.231C302.099 199.826 301.988 199.536 301.767 199.362C301.545 199.188 301.284 199.101 300.984 199.101C300.598 199.101 300.299 199.218 300.087 199.452C299.875 199.683 299.769 199.976 299.769 200.331V203.905H298.911V200.145C298.911 199.833 298.81 199.582 298.607 199.391C298.405 199.198 298.144 199.101 297.825 199.101C297.605 199.101 297.401 199.16 297.21 199.277C297.022 199.393 296.869 199.555 296.752 199.763C296.638 199.968 296.581 200.205 296.581 200.474V203.905H295.738ZM306.1 204.033C305.752 204.033 305.436 203.968 305.153 203.837C304.869 203.703 304.644 203.512 304.477 203.261C304.31 203.009 304.227 202.704 304.227 202.346C304.227 202.032 304.289 201.777 304.413 201.582C304.537 201.384 304.702 201.229 304.91 201.117C305.117 201.005 305.346 200.922 305.596 200.867C305.848 200.81 306.102 200.764 306.357 200.731C306.691 200.688 306.961 200.656 307.168 200.635C307.378 200.611 307.53 200.572 307.626 200.517C307.723 200.462 307.772 200.367 307.772 200.231V200.202C307.772 199.85 307.676 199.576 307.483 199.38C307.292 199.185 307.003 199.087 306.614 199.087C306.212 199.087 305.896 199.175 305.667 199.352C305.439 199.528 305.278 199.716 305.185 199.916L304.384 199.63C304.527 199.297 304.718 199.037 304.956 198.851C305.197 198.663 305.459 198.532 305.742 198.458C306.028 198.382 306.309 198.344 306.586 198.344C306.762 198.344 306.965 198.365 307.193 198.408C307.424 198.449 307.647 198.533 307.862 198.662C308.078 198.791 308.258 198.985 308.401 199.244C308.544 199.504 308.616 199.852 308.616 200.288V203.905H307.772V203.161H307.729C307.672 203.28 307.577 203.408 307.443 203.544C307.31 203.68 307.133 203.795 306.911 203.89C306.689 203.986 306.419 204.033 306.1 204.033ZM306.228 203.276C306.562 203.276 306.843 203.21 307.072 203.079C307.303 202.948 307.477 202.779 307.594 202.572C307.713 202.364 307.772 202.146 307.772 201.918V201.146C307.737 201.189 307.658 201.228 307.536 201.264C307.417 201.297 307.279 201.327 307.122 201.353C306.967 201.377 306.816 201.398 306.668 201.417C306.523 201.434 306.405 201.448 306.314 201.46C306.095 201.489 305.89 201.535 305.699 201.6C305.511 201.662 305.359 201.756 305.242 201.882C305.128 202.006 305.07 202.175 305.07 202.389C305.07 202.682 305.179 202.904 305.396 203.054C305.615 203.202 305.892 203.276 306.228 203.276ZM313.615 201.66V198.415H314.458V203.905H313.615V202.975H313.557C313.429 203.254 313.229 203.491 312.957 203.687C312.685 203.88 312.342 203.976 311.928 203.976C311.585 203.976 311.28 203.901 311.013 203.751C310.746 203.599 310.536 203.37 310.384 203.065C310.231 202.757 310.155 202.37 310.155 201.903V198.415H310.999V201.846C310.999 202.246 311.111 202.566 311.334 202.804C311.561 203.042 311.849 203.161 312.199 203.161C312.409 203.161 312.622 203.108 312.839 203C313.058 202.893 313.242 202.729 313.389 202.507C313.54 202.286 313.615 202.003 313.615 201.66ZM316.003 203.905V198.415H316.818V199.244H316.875C316.975 198.973 317.156 198.752 317.418 198.583C317.68 198.414 317.975 198.33 318.304 198.33C318.366 198.33 318.444 198.331 318.537 198.333C318.629 198.335 318.7 198.339 318.747 198.344V199.202C318.719 199.194 318.653 199.184 318.551 199.169C318.451 199.153 318.345 199.144 318.233 199.144C317.966 199.144 317.728 199.2 317.518 199.312C317.311 199.422 317.146 199.574 317.025 199.77C316.906 199.963 316.846 200.183 316.846 200.431V203.905H316.003ZM319.747 203.905V198.415H320.591V203.905H319.747ZM320.176 197.5C320.012 197.5 319.87 197.444 319.751 197.332C319.634 197.22 319.576 197.086 319.576 196.929C319.576 196.771 319.634 196.637 319.751 196.525C319.87 196.413 320.012 196.357 320.176 196.357C320.34 196.357 320.481 196.413 320.598 196.525C320.717 196.637 320.776 196.771 320.776 196.929C320.776 197.086 320.717 197.22 320.598 197.332C320.481 197.444 320.34 197.5 320.176 197.5ZM326.024 199.645L325.266 199.859C325.218 199.733 325.148 199.61 325.055 199.491C324.965 199.37 324.841 199.269 324.684 199.191C324.526 199.112 324.325 199.073 324.08 199.073C323.744 199.073 323.464 199.15 323.24 199.305C323.018 199.458 322.907 199.652 322.907 199.888C322.907 200.097 322.984 200.263 323.136 200.384C323.289 200.506 323.527 200.607 323.851 200.688L324.666 200.888C325.156 201.008 325.522 201.19 325.763 201.435C326.003 201.678 326.124 201.991 326.124 202.375C326.124 202.69 326.033 202.971 325.852 203.219C325.673 203.466 325.423 203.662 325.102 203.805C324.78 203.948 324.406 204.019 323.979 204.019C323.42 204.019 322.956 203.898 322.589 203.655C322.222 203.411 321.99 203.056 321.892 202.59L322.693 202.389C322.769 202.685 322.913 202.906 323.125 203.054C323.34 203.202 323.62 203.276 323.965 203.276C324.358 203.276 324.67 203.192 324.902 203.026C325.135 202.856 325.252 202.654 325.252 202.418C325.252 202.227 325.185 202.068 325.052 201.939C324.918 201.808 324.713 201.71 324.437 201.646L323.522 201.432C323.019 201.312 322.65 201.128 322.414 200.878C322.181 200.625 322.064 200.309 322.064 199.931C322.064 199.621 322.151 199.347 322.325 199.109C322.501 198.87 322.741 198.683 323.043 198.548C323.348 198.412 323.694 198.344 324.08 198.344C324.623 198.344 325.049 198.463 325.359 198.701C325.671 198.939 325.893 199.254 326.024 199.645Z" fill="black"/>
<circle cx="272.452" cy="241.714" r="11.0702" fill="#3E68FF"/>
<path d="M217.827 171.46C217.827 170.87 218.298 170.393 218.879 170.393C219.46 170.393 219.931 170.87 219.931 171.46V172.25C220.858 172.388 221.593 172.697 222.137 173.178C222.587 173.573 222.912 174.045 223.112 174.595C223.359 175.275 222.772 175.901 222.059 175.933C221.403 175.962 220.894 175.438 220.499 174.905C220.421 174.8 220.332 174.708 220.235 174.631C219.894 174.352 219.381 174.213 218.695 174.213C217.987 174.213 217.432 174.361 217.031 174.656C216.773 174.845 216.644 175.099 216.644 175.416C216.644 175.705 216.765 175.953 217.007 176.159C217.314 176.421 218.061 176.694 219.246 176.978C220.432 177.262 221.308 177.557 221.873 177.863C222.444 178.163 222.889 178.578 223.207 179.107C223.531 179.631 223.693 180.279 223.693 181.053C223.693 181.755 223.501 182.412 223.117 183.024C222.732 183.636 222.189 184.093 221.486 184.394C221.038 184.582 220.52 184.71 219.931 184.778V185.33C219.931 185.92 219.46 186.397 218.879 186.397C218.298 186.397 217.827 185.92 217.827 185.33V184.775C216.794 184.646 215.966 184.31 215.343 183.767C214.793 183.284 214.391 182.653 214.139 181.875C213.925 181.213 214.439 180.58 215.123 180.513C215.759 180.45 216.3 180.914 216.592 181.491C216.732 181.77 216.906 182 217.114 182.181C217.553 182.559 218.143 182.748 218.884 182.748C219.669 182.748 220.259 182.581 220.654 182.247C221.055 181.908 221.256 181.512 221.256 181.061C221.256 180.772 221.171 180.527 221 180.327C220.836 180.121 220.545 179.942 220.127 179.792C219.842 179.692 219.191 179.514 218.176 179.258C216.869 178.929 215.953 178.525 215.426 178.047C214.684 177.373 214.314 176.552 214.314 175.583C214.314 174.959 214.487 174.378 214.833 173.837C215.184 173.292 215.686 172.877 216.34 172.593C216.776 172.405 217.272 172.279 217.827 172.216V171.46Z" fill="#F39800"/>
<path opacity="0.5" d="M97.6166 115.319L99.9203 121.852H100.011L102.315 115.319H103.3L100.451 123.079H99.4808L96.6315 115.319H97.6166ZM104.388 123.079V117.259H105.282V123.079H104.388ZM104.842 116.289C104.668 116.289 104.518 116.23 104.391 116.111C104.268 115.993 104.206 115.85 104.206 115.683C104.206 115.517 104.268 115.374 104.391 115.255C104.518 115.136 104.668 115.077 104.842 115.077C105.017 115.077 105.166 115.136 105.289 115.255C105.416 115.374 105.479 115.517 105.479 115.683C105.479 115.85 105.416 115.993 105.289 116.111C105.166 116.23 105.017 116.289 104.842 116.289ZM111.679 117.259L109.527 123.079H108.617L106.465 117.259H107.435L109.042 121.897H109.102L110.709 117.259H111.679ZM115.091 123.201C114.53 123.201 114.046 123.077 113.64 122.829C113.235 122.579 112.923 122.231 112.704 121.784C112.486 121.334 112.378 120.811 112.378 120.215C112.378 119.619 112.486 119.093 112.704 118.639C112.923 118.181 113.229 117.825 113.621 117.57C114.015 117.313 114.474 117.184 115 117.184C115.303 117.184 115.602 117.234 115.898 117.335C116.193 117.436 116.462 117.6 116.705 117.828C116.947 118.053 117.141 118.351 117.285 118.722C117.429 119.093 117.501 119.551 117.501 120.094V120.473H113.014V119.7H116.591C116.591 119.371 116.526 119.078 116.394 118.821C116.265 118.563 116.081 118.36 115.841 118.211C115.604 118.061 115.323 117.987 115 117.987C114.644 117.987 114.335 118.075 114.075 118.252C113.818 118.427 113.619 118.654 113.48 118.934C113.341 119.215 113.272 119.515 113.272 119.836V120.351C113.272 120.791 113.348 121.163 113.499 121.469C113.653 121.772 113.867 122.003 114.14 122.163C114.412 122.319 114.73 122.397 115.091 122.397C115.326 122.397 115.538 122.365 115.727 122.299C115.919 122.231 116.085 122.13 116.224 121.996C116.363 121.859 116.47 121.69 116.546 121.488L117.41 121.731C117.319 122.024 117.166 122.281 116.951 122.504C116.736 122.723 116.471 122.895 116.155 123.019C115.84 123.14 115.485 123.201 115.091 123.201ZM118.861 123.079V117.259H119.725V118.139H119.785C119.891 117.851 120.083 117.617 120.361 117.438C120.639 117.258 120.952 117.169 121.301 117.169C121.367 117.169 121.449 117.17 121.547 117.172C121.646 117.175 121.72 117.179 121.771 117.184V118.093C121.74 118.085 121.671 118.074 121.562 118.059C121.456 118.041 121.344 118.032 121.225 118.032C120.942 118.032 120.69 118.092 120.467 118.211C120.248 118.327 120.073 118.488 119.944 118.696C119.818 118.9 119.755 119.134 119.755 119.396V123.079H118.861ZM122.831 123.079V117.259H123.695V118.139H123.755C123.861 117.851 124.053 117.617 124.331 117.438C124.609 117.258 124.922 117.169 125.271 117.169C125.337 117.169 125.419 117.17 125.517 117.172C125.616 117.175 125.69 117.179 125.741 117.184V118.093C125.71 118.085 125.641 118.074 125.532 118.059C125.426 118.041 125.314 118.032 125.195 118.032C124.912 118.032 124.66 118.092 124.437 118.211C124.218 118.327 124.043 118.488 123.914 118.696C123.788 118.9 123.725 119.134 123.725 119.396V123.079H122.831ZM128.513 123.216C128.145 123.216 127.81 123.146 127.509 123.007C127.209 122.866 126.97 122.663 126.793 122.397C126.616 122.13 126.528 121.806 126.528 121.427C126.528 121.094 126.594 120.824 126.725 120.617C126.856 120.407 127.032 120.243 127.252 120.124C127.471 120.005 127.714 119.917 127.979 119.859C128.247 119.798 128.516 119.75 128.786 119.715C129.14 119.669 129.427 119.635 129.646 119.612C129.869 119.587 130.03 119.546 130.131 119.487C130.235 119.429 130.287 119.328 130.287 119.184V119.154C130.287 118.78 130.184 118.49 129.98 118.283C129.778 118.075 129.471 117.972 129.059 117.972C128.632 117.972 128.297 118.065 128.055 118.252C127.812 118.439 127.642 118.639 127.543 118.851L126.695 118.548C126.846 118.194 127.048 117.919 127.301 117.722C127.556 117.522 127.834 117.383 128.135 117.305C128.438 117.224 128.736 117.184 129.029 117.184C129.216 117.184 129.43 117.206 129.673 117.252C129.918 117.295 130.154 117.385 130.381 117.521C130.611 117.657 130.802 117.863 130.954 118.139C131.105 118.414 131.181 118.783 131.181 119.245V123.079H130.287V122.291H130.241C130.181 122.418 130.08 122.553 129.938 122.697C129.797 122.841 129.608 122.963 129.374 123.064C129.139 123.165 128.852 123.216 128.513 123.216ZM128.65 122.413C129.003 122.413 129.302 122.343 129.544 122.204C129.789 122.065 129.973 121.886 130.097 121.666C130.224 121.446 130.287 121.215 130.287 120.973V120.154C130.249 120.2 130.165 120.241 130.037 120.279C129.91 120.315 129.764 120.346 129.597 120.374C129.433 120.399 129.272 120.422 129.116 120.442C128.962 120.46 128.837 120.475 128.741 120.488C128.508 120.518 128.291 120.567 128.089 120.636C127.889 120.701 127.728 120.801 127.604 120.935C127.483 121.066 127.422 121.246 127.422 121.473C127.422 121.784 127.537 122.019 127.767 122.178C127.999 122.334 128.294 122.413 128.65 122.413ZM138.345 117.259V118.017H135.329V117.259H138.345ZM136.208 115.865H137.102V121.412C137.102 121.665 137.139 121.854 137.212 121.981C137.288 122.104 137.384 122.188 137.5 122.231C137.619 122.271 137.744 122.291 137.875 122.291C137.974 122.291 138.055 122.286 138.118 122.276C138.181 122.264 138.231 122.253 138.269 122.246L138.451 123.049C138.39 123.072 138.306 123.095 138.197 123.117C138.089 123.143 137.951 123.155 137.784 123.155C137.532 123.155 137.284 123.101 137.042 122.992C136.802 122.884 136.602 122.718 136.443 122.496C136.286 122.274 136.208 121.993 136.208 121.655V115.865ZM139.69 123.079V117.259H140.554V118.139H140.615C140.721 117.851 140.913 117.617 141.191 117.438C141.468 117.258 141.782 117.169 142.13 117.169C142.196 117.169 142.278 117.17 142.377 117.172C142.475 117.175 142.55 117.179 142.6 117.184V118.093C142.57 118.085 142.5 118.074 142.392 118.059C142.286 118.041 142.173 118.032 142.055 118.032C141.772 118.032 141.519 118.092 141.297 118.211C141.077 118.327 140.903 118.488 140.774 118.696C140.648 118.9 140.584 119.134 140.584 119.396V123.079H139.69ZM143.66 123.079V117.259H144.554V123.079H143.66ZM144.115 116.289C143.94 116.289 143.79 116.23 143.664 116.111C143.54 115.993 143.478 115.85 143.478 115.683C143.478 115.517 143.54 115.374 143.664 115.255C143.79 115.136 143.94 115.077 144.115 115.077C144.289 115.077 144.438 115.136 144.562 115.255C144.688 115.374 144.751 115.517 144.751 115.683C144.751 115.85 144.688 115.993 144.562 116.111C144.438 116.23 144.289 116.289 144.115 116.289ZM150.315 118.563L149.511 118.79C149.461 118.656 149.386 118.526 149.288 118.4C149.192 118.271 149.06 118.165 148.894 118.082C148.727 117.998 148.514 117.957 148.253 117.957C147.897 117.957 147.6 118.039 147.363 118.203C147.128 118.365 147.011 118.57 147.011 118.821C147.011 119.043 147.091 119.218 147.253 119.347C147.415 119.476 147.667 119.583 148.011 119.669L148.875 119.881C149.395 120.008 149.783 120.201 150.038 120.461C150.293 120.719 150.421 121.051 150.421 121.458C150.421 121.791 150.325 122.089 150.133 122.352C149.943 122.615 149.678 122.822 149.337 122.973C148.996 123.125 148.599 123.201 148.147 123.201C147.554 123.201 147.062 123.072 146.673 122.814C146.284 122.557 146.038 122.18 145.934 121.685L146.783 121.473C146.864 121.786 147.017 122.021 147.242 122.178C147.469 122.334 147.766 122.413 148.132 122.413C148.549 122.413 148.88 122.324 149.125 122.147C149.372 121.968 149.496 121.753 149.496 121.503C149.496 121.301 149.425 121.132 149.284 120.995C149.143 120.857 148.925 120.753 148.632 120.685L147.662 120.457C147.129 120.331 146.738 120.135 146.488 119.87C146.24 119.602 146.116 119.268 146.116 118.866C146.116 118.538 146.209 118.247 146.393 117.995C146.58 117.742 146.834 117.544 147.155 117.4C147.478 117.256 147.844 117.184 148.253 117.184C148.829 117.184 149.281 117.31 149.61 117.563C149.941 117.815 150.176 118.149 150.315 118.563ZM154.298 117.259V118.017H151.282V117.259H154.298ZM152.161 115.865H153.055V121.412C153.055 121.665 153.092 121.854 153.165 121.981C153.241 122.104 153.337 122.188 153.453 122.231C153.572 122.271 153.697 122.291 153.828 122.291C153.927 122.291 154.007 122.286 154.071 122.276C154.134 122.264 154.184 122.253 154.222 122.246L154.404 123.049C154.343 123.072 154.259 123.095 154.15 123.117C154.041 123.143 153.904 123.155 153.737 123.155C153.484 123.155 153.237 123.101 152.994 122.992C152.754 122.884 152.555 122.718 152.396 122.496C152.239 122.274 152.161 121.993 152.161 121.655V115.865ZM155.643 123.079V117.259H156.537V123.079H155.643ZM156.098 116.289C155.923 116.289 155.773 116.23 155.647 116.111C155.523 115.993 155.461 115.85 155.461 115.683C155.461 115.517 155.523 115.374 155.647 115.255C155.773 115.136 155.923 115.077 156.098 115.077C156.272 115.077 156.421 115.136 156.545 115.255C156.671 115.374 156.734 115.517 156.734 115.683C156.734 115.85 156.671 115.993 156.545 116.111C156.421 116.23 156.272 116.289 156.098 116.289ZM162.146 125.262V122.185H162.07C162.004 122.291 161.911 122.425 161.79 122.587C161.668 122.746 161.495 122.889 161.271 123.015C161.046 123.139 160.746 123.201 160.373 123.201C159.888 123.201 159.459 123.078 159.088 122.833C158.717 122.586 158.426 122.237 158.217 121.787C158.007 121.335 157.902 120.801 157.902 120.185C157.902 119.573 158.007 119.043 158.217 118.593C158.426 118.144 158.718 117.796 159.092 117.551C159.466 117.306 159.898 117.184 160.388 117.184C160.767 117.184 161.066 117.247 161.286 117.373C161.508 117.497 161.677 117.638 161.794 117.798C161.912 117.954 162.004 118.083 162.07 118.184H162.176V117.259H163.04V125.262H162.146ZM160.494 122.397C160.853 122.397 161.156 122.304 161.403 122.117C161.651 121.928 161.839 121.666 161.968 121.333C162.097 120.997 162.161 120.609 162.161 120.169C162.161 119.735 162.098 119.355 161.972 119.029C161.845 118.701 161.658 118.445 161.411 118.264C161.163 118.079 160.858 117.987 160.494 117.987C160.115 117.987 159.799 118.084 159.547 118.279C159.297 118.471 159.108 118.732 158.982 119.063C158.858 119.391 158.796 119.76 158.796 120.169C158.796 120.584 158.86 120.96 158.986 121.299C159.115 121.635 159.304 121.902 159.554 122.102C159.807 122.299 160.12 122.397 160.494 122.397ZM168.345 120.7V117.259H169.239V123.079H168.345V122.094H168.284C168.148 122.39 167.936 122.641 167.648 122.848C167.36 123.053 166.996 123.155 166.556 123.155C166.193 123.155 165.869 123.076 165.586 122.917C165.303 122.755 165.081 122.512 164.919 122.189C164.758 121.863 164.677 121.453 164.677 120.958V117.259H165.571V120.897C165.571 121.321 165.69 121.66 165.927 121.912C166.167 122.165 166.473 122.291 166.844 122.291C167.067 122.291 167.293 122.234 167.523 122.121C167.755 122.007 167.949 121.833 168.106 121.598C168.265 121.363 168.345 121.064 168.345 120.7ZM173.317 123.201C172.756 123.201 172.272 123.077 171.866 122.829C171.462 122.579 171.15 122.231 170.93 121.784C170.713 121.334 170.604 120.811 170.604 120.215C170.604 119.619 170.713 119.093 170.93 118.639C171.15 118.181 171.455 117.825 171.847 117.57C172.241 117.313 172.701 117.184 173.226 117.184C173.529 117.184 173.828 117.234 174.124 117.335C174.42 117.436 174.689 117.6 174.931 117.828C175.174 118.053 175.367 118.351 175.511 118.722C175.655 119.093 175.727 119.551 175.727 120.094V120.473H171.241V119.7H174.817C174.817 119.371 174.752 119.078 174.62 118.821C174.492 118.563 174.307 118.36 174.067 118.211C173.83 118.061 173.549 117.987 173.226 117.987C172.87 117.987 172.562 118.075 172.301 118.252C172.044 118.427 171.846 118.654 171.707 118.934C171.568 119.215 171.498 119.515 171.498 119.836V120.351C171.498 120.791 171.574 121.163 171.726 121.469C171.88 121.772 172.093 122.003 172.366 122.163C172.639 122.319 172.956 122.397 173.317 122.397C173.552 122.397 173.764 122.365 173.954 122.299C174.145 122.231 174.311 122.13 174.45 121.996C174.589 121.859 174.696 121.69 174.772 121.488L175.636 121.731C175.545 122.024 175.392 122.281 175.177 122.504C174.963 122.723 174.697 122.895 174.382 123.019C174.066 123.14 173.711 123.201 173.317 123.201Z" fill="black"/>
<path d="M101.165 104.463H97.4423V93.4755H101.241C102.331 93.4755 103.268 93.6954 104.052 94.1353C104.839 94.5717 105.443 95.1993 105.865 96.0184C106.287 96.8374 106.498 97.8173 106.498 98.9583C106.498 100.103 106.285 101.086 105.86 101.909C105.438 102.731 104.828 103.363 104.03 103.803C103.236 104.243 102.281 104.463 101.165 104.463ZM99.4327 102.74H101.069C101.834 102.74 102.473 102.601 102.984 102.322C103.496 102.039 103.88 101.619 104.138 101.061C104.395 100.5 104.524 99.7987 104.524 98.9583C104.524 98.1178 104.395 97.4204 104.138 96.866C103.88 96.3081 103.499 95.8914 102.995 95.616C102.494 95.337 101.872 95.1975 101.128 95.1975H99.4327V102.74ZM110.675 104.629C110.152 104.629 109.682 104.536 109.264 104.35C108.849 104.16 108.52 103.881 108.276 103.513C108.037 103.145 107.917 102.69 107.917 102.15C107.917 101.685 108.003 101.301 108.175 100.997C108.346 100.693 108.58 100.45 108.877 100.267C109.174 100.085 109.509 99.9472 109.881 99.8542C110.256 99.7576 110.644 99.6879 111.045 99.6449C111.528 99.5949 111.919 99.5502 112.22 99.5108C112.52 99.4679 112.738 99.4035 112.874 99.3177C113.014 99.2283 113.083 99.0906 113.083 98.9046V98.8724C113.083 98.4683 112.964 98.1553 112.724 97.9336C112.484 97.7118 112.139 97.601 111.688 97.601C111.213 97.601 110.835 97.7047 110.557 97.9121C110.281 98.1196 110.095 98.3646 109.999 98.6471L108.185 98.3896C108.328 97.8889 108.564 97.4704 108.893 97.1342C109.222 96.7945 109.625 96.5405 110.101 96.3724C110.576 96.2008 111.102 96.1149 111.678 96.1149C112.075 96.1149 112.47 96.1614 112.863 96.2544C113.257 96.3474 113.616 96.5012 113.942 96.7158C114.267 96.9268 114.528 97.2147 114.725 97.5795C114.925 97.9443 115.025 98.4003 115.025 98.9475V104.463H113.158V103.331H113.094C112.976 103.559 112.81 103.774 112.595 103.974C112.384 104.171 112.118 104.33 111.796 104.452C111.477 104.57 111.104 104.629 110.675 104.629ZM111.179 103.202C111.569 103.202 111.907 103.125 112.193 102.971C112.479 102.814 112.699 102.606 112.853 102.349C113.01 102.091 113.089 101.811 113.089 101.507V100.535C113.028 100.586 112.924 100.632 112.778 100.675C112.634 100.718 112.474 100.755 112.295 100.788C112.116 100.82 111.939 100.848 111.764 100.873C111.588 100.899 111.436 100.92 111.308 100.938C111.018 100.977 110.759 101.042 110.53 101.131C110.301 101.22 110.12 101.346 109.988 101.507C109.856 101.664 109.789 101.868 109.789 102.118C109.789 102.476 109.92 102.746 110.181 102.928C110.442 103.111 110.775 103.202 111.179 103.202ZM121.093 96.2222V97.7244H116.356V96.2222H121.093ZM117.525 94.248H119.467V101.984C119.467 102.245 119.507 102.445 119.585 102.585C119.668 102.721 119.775 102.814 119.907 102.864C120.04 102.914 120.186 102.939 120.347 102.939C120.469 102.939 120.58 102.93 120.68 102.912C120.784 102.894 120.862 102.878 120.916 102.864L121.243 104.382C121.139 104.418 120.991 104.457 120.798 104.5C120.608 104.543 120.376 104.568 120.1 104.575C119.614 104.589 119.176 104.516 118.786 104.355C118.396 104.191 118.087 103.937 117.858 103.593C117.633 103.25 117.522 102.821 117.525 102.306V94.248ZM125.088 104.629C124.566 104.629 124.096 104.536 123.677 104.35C123.263 104.16 122.933 103.881 122.69 103.513C122.451 103.145 122.331 102.69 122.331 102.15C122.331 101.685 122.417 101.301 122.588 100.997C122.76 100.693 122.994 100.45 123.291 100.267C123.588 100.085 123.922 99.9472 124.294 99.8542C124.67 99.7576 125.058 99.6879 125.459 99.6449C125.941 99.5949 126.333 99.5502 126.633 99.5108C126.934 99.4679 127.152 99.4035 127.288 99.3177C127.427 99.2283 127.497 99.0906 127.497 98.9046V98.8724C127.497 98.4683 127.377 98.1553 127.138 97.9336C126.898 97.7118 126.553 97.601 126.102 97.601C125.627 97.601 125.249 97.7047 124.97 97.9121C124.695 98.1196 124.509 98.3646 124.412 98.6471L122.599 98.3896C122.742 97.8889 122.978 97.4704 123.307 97.1342C123.636 96.7945 124.039 96.5405 124.514 96.3724C124.99 96.2008 125.516 96.1149 126.092 96.1149C126.489 96.1149 126.884 96.1614 127.277 96.2544C127.671 96.3474 128.03 96.5012 128.355 96.7158C128.681 96.9268 128.942 97.2147 129.139 97.5795C129.339 97.9443 129.439 98.4003 129.439 98.9475V104.463H127.572V103.331H127.508C127.39 103.559 127.224 103.774 127.009 103.974C126.798 104.171 126.531 104.33 126.21 104.452C125.891 104.57 125.518 104.629 125.088 104.629ZM125.593 103.202C125.982 103.202 126.32 103.125 126.607 102.971C126.893 102.814 127.113 102.606 127.266 102.349C127.424 102.091 127.502 101.811 127.502 101.507V100.535C127.442 100.586 127.338 100.632 127.191 100.675C127.048 100.718 126.887 100.755 126.709 100.788C126.53 100.82 126.353 100.848 126.177 100.873C126.002 100.899 125.85 100.92 125.721 100.938C125.432 100.977 125.172 101.042 124.943 101.131C124.715 101.22 124.534 101.346 124.402 101.507C124.269 101.664 124.203 101.868 124.203 102.118C124.203 102.476 124.334 102.746 124.595 102.928C124.856 103.111 125.188 103.202 125.593 103.202ZM141.196 96.4958C141.146 96.0273 140.935 95.6625 140.563 95.4014C140.195 95.1403 139.715 95.0098 139.125 95.0098C138.71 95.0098 138.355 95.0724 138.058 95.1975C137.761 95.3227 137.534 95.4926 137.376 95.7072C137.219 95.9218 137.139 96.1668 137.135 96.4422C137.135 96.6711 137.187 96.8696 137.291 97.0377C137.398 97.2058 137.543 97.3488 137.725 97.4668C137.907 97.5813 138.11 97.6779 138.331 97.7565C138.553 97.8352 138.777 97.9014 139.002 97.955L140.032 98.2125C140.447 98.3091 140.846 98.4397 141.228 98.6042C141.615 98.7687 141.96 98.9761 142.264 99.2265C142.571 99.4768 142.814 99.7791 142.993 100.133C143.172 100.487 143.262 100.902 143.262 101.378C143.262 102.022 143.097 102.588 142.768 103.078C142.439 103.565 141.963 103.946 141.341 104.221C140.722 104.493 139.973 104.629 139.093 104.629C138.238 104.629 137.496 104.496 136.867 104.232C136.241 103.967 135.751 103.581 135.397 103.073C135.046 102.565 134.857 101.946 134.828 101.217H136.786C136.815 101.6 136.933 101.918 137.14 102.172C137.348 102.426 137.618 102.615 137.95 102.74C138.287 102.866 138.662 102.928 139.077 102.928C139.51 102.928 139.889 102.864 140.214 102.735C140.543 102.603 140.801 102.42 140.987 102.188C141.173 101.952 141.268 101.676 141.271 101.362C141.268 101.076 141.184 100.839 141.019 100.654C140.855 100.464 140.624 100.307 140.327 100.181C140.034 100.053 139.69 99.9382 139.297 99.8381L138.047 99.5162C137.142 99.2837 136.427 98.9314 135.901 98.4593C135.379 97.9837 135.118 97.3524 135.118 96.5656C135.118 95.9182 135.293 95.3513 135.644 94.8649C135.998 94.3785 136.479 94.0012 137.087 93.733C137.695 93.4611 138.383 93.3252 139.152 93.3252C139.932 93.3252 140.615 93.4611 141.201 93.733C141.792 94.0012 142.255 94.3749 142.591 94.8542C142.927 95.3299 143.101 95.8771 143.111 96.4958H141.196ZM147.321 104.629C146.799 104.629 146.329 104.536 145.91 104.35C145.495 104.16 145.166 103.881 144.923 103.513C144.684 103.145 144.564 102.69 144.564 102.15C144.564 101.685 144.65 101.301 144.821 100.997C144.993 100.693 145.227 100.45 145.524 100.267C145.821 100.085 146.155 99.9472 146.527 99.8542C146.903 99.7576 147.291 99.6879 147.691 99.6449C148.174 99.5949 148.566 99.5502 148.866 99.5108C149.167 99.4679 149.385 99.4035 149.521 99.3177C149.66 99.2283 149.73 99.0906 149.73 98.9046V98.8724C149.73 98.4683 149.61 98.1553 149.371 97.9336C149.131 97.7118 148.786 97.601 148.335 97.601C147.86 97.601 147.482 97.7047 147.203 97.9121C146.928 98.1196 146.742 98.3646 146.645 98.6471L144.832 98.3896C144.975 97.8889 145.211 97.4704 145.54 97.1342C145.869 96.7945 146.272 96.5405 146.747 96.3724C147.223 96.2008 147.749 96.1149 148.325 96.1149C148.722 96.1149 149.117 96.1614 149.51 96.2544C149.904 96.3474 150.263 96.5012 150.588 96.7158C150.914 96.9268 151.175 97.2147 151.372 97.5795C151.572 97.9443 151.672 98.4003 151.672 98.9475V104.463H149.805V103.331H149.741C149.623 103.559 149.456 103.774 149.242 103.974C149.031 104.171 148.764 104.33 148.443 104.452C148.124 104.57 147.75 104.629 147.321 104.629ZM147.826 103.202C148.215 103.202 148.553 103.125 148.84 102.971C149.126 102.814 149.346 102.606 149.499 102.349C149.657 102.091 149.735 101.811 149.735 101.507V100.535C149.675 100.586 149.571 100.632 149.424 100.675C149.281 100.718 149.12 100.755 148.941 100.788C148.763 100.82 148.586 100.848 148.41 100.873C148.235 100.899 148.083 100.92 147.954 100.938C147.665 100.977 147.405 101.042 147.176 101.131C146.948 101.22 146.767 101.346 146.635 101.507C146.502 101.664 146.436 101.868 146.436 102.118C146.436 102.476 146.567 102.746 146.828 102.928C147.089 103.111 147.421 103.202 147.826 103.202ZM160.69 96.2222L157.756 104.463H155.61L152.675 96.2222H154.746L156.64 102.343H156.726L158.625 96.2222H160.69ZM165.402 104.623C164.576 104.623 163.862 104.452 163.261 104.108C162.664 103.762 162.205 103.272 161.883 102.638C161.561 102.002 161.4 101.253 161.4 100.391C161.4 99.543 161.561 98.7991 161.883 98.1589C162.208 97.5151 162.662 97.0144 163.245 96.6568C163.828 96.2955 164.513 96.1149 165.3 96.1149C165.808 96.1149 166.287 96.1972 166.738 96.3617C167.192 96.5226 167.593 96.773 167.939 97.1128C168.29 97.4525 168.565 97.8853 168.766 98.411C168.966 98.9332 169.066 99.5555 169.066 100.278V100.873H162.312V99.5645H167.204C167.201 99.1925 167.12 98.8617 166.963 98.572C166.806 98.2787 166.586 98.048 166.303 97.8799C166.024 97.7118 165.699 97.6278 165.327 97.6278C164.93 97.6278 164.581 97.7244 164.281 97.9175C163.98 98.107 163.746 98.3574 163.578 98.6686C163.413 98.9761 163.329 99.3141 163.326 99.6825V100.825C163.326 101.304 163.413 101.716 163.589 102.059C163.764 102.399 164.009 102.66 164.324 102.842C164.638 103.021 165.007 103.111 165.429 103.111C165.711 103.111 165.967 103.071 166.196 102.993C166.425 102.91 166.623 102.79 166.791 102.633C166.96 102.476 167.086 102.281 167.172 102.048L168.986 102.252C168.871 102.731 168.653 103.15 168.331 103.508C168.013 103.862 167.605 104.137 167.108 104.334C166.611 104.527 166.042 104.623 165.402 104.623Z" fill="#1D2125"/>
</g>
</g>
<defs>
<filter id="filter0_d_2436_515" x="0.481018" y="0.755034" width="469.689" height="469.47" filterUnits="userSpaceOnUse" color-interpolation-filters="sRGB">
<feFlood flood-opacity="0" result="BackgroundImageFix"/>
<feColorMatrix in="SourceAlpha" type="matrix" values="0 0 0 0 0 0 0 0 0 0 0 0 0 0 0 0 0 0 127 0" result="hardAlpha"/>
<feOffset dy="4.96793"/>
<feGaussianBlur stdDeviation="37.2595"/>
<feComposite in2="hardAlpha" operator="out"/>
<feColorMatrix type="matrix" values="0 0 0 0 0 0 0 0 0 0 0 0 0 0 0 0 0 0 0.08 0"/>
<feBlend mode="normal" in2="BackgroundImageFix" result="effect1_dropShadow_2436_515"/>
<feBlend mode="normal" in="SourceGraphic" in2="effect1_dropShadow_2436_515" result="shape"/>
</filter>
<clipPath id="clip0_2436_515">
<rect x="75" y="70.3061" width="320.651" height="320.432" rx="21.6238" fill="white"/>
</clipPath>
</defs>
</svg>
