<svg width="238" height="238" viewBox="0 0 238 238" fill="none" xmlns="http://www.w3.org/2000/svg">
<g clip-path="url(#clip0_2436_541)">
<rect x="0.618408" y="0.262939" width="237.382" height="237.219" rx="14.5494" fill="#1D2125"/>
<g filter="url(#filter0_d_2436_541)">
<rect x="0.618164" y="0.262505" width="237.219" height="237.219" fill="white"/>
</g>
<circle opacity="0.67" cx="80.5836" cy="130.908" r="36.8715" fill="#2B59FF"/>
<circle opacity="0.77" cx="121.709" cy="162.816" r="26.59" fill="#FFC947"/>
<circle opacity="0.9" cx="140.501" cy="102.899" r="54.2436" fill="#45C646"/>
<path d="M119.531 102.072C118.618 101.687 117.953 101.159 117.534 100.489C117.123 99.8106 116.918 99.0694 116.918 98.2654C116.918 96.8918 117.396 95.757 118.35 94.8608C119.314 93.9647 120.679 93.5166 122.446 93.5166C124.196 93.5166 125.553 93.9647 126.516 94.8608C127.488 95.757 127.974 96.8918 127.974 98.2654C127.974 99.1197 127.752 99.8818 127.308 100.552C126.864 101.213 126.24 101.72 125.436 102.072C126.458 102.482 127.232 103.081 127.76 103.868C128.296 104.656 128.564 105.564 128.564 106.595C128.564 108.295 128.02 109.677 126.931 110.74C125.85 111.804 124.41 112.336 122.609 112.336C120.934 112.336 119.54 111.896 118.426 111.017C117.111 109.978 116.453 108.554 116.453 106.745C116.453 105.749 116.7 104.836 117.195 104.007C117.689 103.169 118.468 102.524 119.531 102.072ZM120.26 98.5166C120.26 99.2202 120.457 99.7687 120.85 100.162C121.252 100.556 121.784 100.753 122.446 100.753C123.116 100.753 123.652 100.556 124.054 100.162C124.456 99.7604 124.657 99.2076 124.657 98.5041C124.657 97.8424 124.456 97.3148 124.054 96.9211C123.66 96.5191 123.137 96.3181 122.484 96.3181C121.805 96.3181 121.265 96.5191 120.863 96.9211C120.461 97.3232 120.26 97.855 120.26 98.5166ZM119.933 106.406C119.933 107.378 120.18 108.136 120.675 108.68C121.177 109.224 121.801 109.497 122.546 109.497C123.275 109.497 123.878 109.237 124.355 108.718C124.833 108.19 125.072 107.432 125.072 106.444C125.072 105.581 124.829 104.89 124.343 104.371C123.857 103.843 123.242 103.58 122.496 103.58C121.633 103.58 120.989 103.877 120.561 104.471C120.143 105.066 119.933 105.711 119.933 106.406ZM130.901 107.75L134.318 107.374C134.402 108.069 134.619 108.584 134.971 108.919C135.323 109.254 135.788 109.421 136.366 109.421C137.094 109.421 137.714 109.086 138.225 108.416C138.736 107.746 139.062 106.356 139.205 104.245C138.317 105.276 137.207 105.791 135.876 105.791C134.427 105.791 133.175 105.234 132.119 104.12C131.072 102.997 130.549 101.54 130.549 99.7478C130.549 97.8801 131.102 96.3768 132.207 95.2377C133.321 94.0903 134.737 93.5166 136.454 93.5166C138.321 93.5166 139.854 94.241 141.052 95.69C142.249 97.1305 142.848 99.5049 142.848 102.813C142.848 106.18 142.224 108.609 140.976 110.1C139.728 111.59 138.104 112.336 136.102 112.336C134.661 112.336 133.497 111.955 132.609 111.193C131.722 110.422 131.152 109.275 130.901 107.75ZM138.891 100.037C138.891 98.8977 138.627 98.0141 138.099 97.386C137.58 96.7578 136.977 96.4438 136.29 96.4438C135.637 96.4438 135.093 96.7034 134.657 97.2227C134.23 97.7335 134.016 98.5753 134.016 99.7478C134.016 100.937 134.251 101.812 134.72 102.373C135.189 102.926 135.775 103.203 136.479 103.203C137.157 103.203 137.727 102.935 138.187 102.399C138.656 101.863 138.891 101.075 138.891 100.037ZM145.901 112.009V108.479H149.431V112.009H145.901ZM152.308 97.1222V93.8432H164.381V96.4061C163.384 97.386 162.371 98.793 161.341 100.627C160.311 102.461 159.523 104.413 158.979 106.482C158.443 108.542 158.179 110.384 158.187 112.009H154.783C154.842 109.463 155.365 106.867 156.353 104.22C157.35 101.574 158.677 99.2076 160.336 97.1222H152.308Z" fill="white"/>
<path d="M79.8348 134.502V136.398H72.6785C72.756 135.681 72.9885 135.003 73.376 134.364C73.7634 133.719 74.5287 132.867 75.6718 131.806C76.5921 130.949 77.1563 130.368 77.3646 130.063C77.6455 129.641 77.786 129.225 77.786 128.813C77.786 128.358 77.6625 128.009 77.4155 127.767C77.1733 127.52 76.8367 127.396 76.4056 127.396C75.9794 127.396 75.6403 127.525 75.3885 127.781C75.1366 128.038 74.9913 128.464 74.9525 129.06L72.9182 128.857C73.0393 127.733 73.4195 126.926 74.0589 126.437C74.6982 125.948 75.4974 125.703 76.4565 125.703C77.5075 125.703 78.3333 125.987 78.9339 126.553C79.5345 127.12 79.8348 127.825 79.8348 128.668C79.8348 129.147 79.7476 129.605 79.5733 130.041C79.4038 130.472 79.1325 130.925 78.7596 131.399C78.5125 131.714 78.0669 132.167 77.4227 132.758C76.7785 133.349 76.3693 133.741 76.1949 133.935C76.0254 134.129 75.8873 134.318 75.7808 134.502H79.8348ZM81.1498 133.572L83.126 133.332C83.189 133.836 83.3585 134.221 83.6346 134.487C83.9107 134.754 84.2449 134.887 84.6372 134.887C85.0586 134.887 85.4122 134.727 85.6979 134.407C85.9886 134.088 86.1339 133.656 86.1339 133.114C86.1339 132.601 85.9958 132.194 85.7197 131.893C85.4437 131.593 85.107 131.443 84.7099 131.443C84.4483 131.443 84.1359 131.494 83.7726 131.596L83.9979 129.932C84.55 129.946 84.9714 129.828 85.262 129.576C85.5526 129.319 85.6979 128.98 85.6979 128.559C85.6979 128.2 85.5914 127.914 85.3783 127.701C85.1651 127.488 84.8818 127.382 84.5282 127.382C84.1795 127.382 83.8816 127.503 83.6346 127.745C83.3876 127.987 83.2374 128.341 83.1841 128.806L81.3024 128.486C81.4332 127.842 81.6294 127.328 81.8909 126.946C82.1573 126.558 82.5254 126.256 82.9952 126.038C83.4699 125.815 84.0003 125.703 84.5863 125.703C85.589 125.703 86.393 126.023 86.9984 126.662C87.4973 127.186 87.7468 127.776 87.7468 128.435C87.7468 129.37 87.2358 130.116 86.2138 130.673C86.8241 130.804 87.3108 131.097 87.6741 131.552C88.0422 132.007 88.2263 132.557 88.2263 133.201C88.2263 134.136 87.8848 134.933 87.2019 135.591C86.5189 136.25 85.6689 136.58 84.6517 136.58C83.6879 136.58 82.8887 136.303 82.2542 135.751C81.6197 135.194 81.2516 134.468 81.1498 133.572Z" fill="white"/>
<path d="M119.29 168.307H117.249V160.613C116.503 161.31 115.624 161.826 114.611 162.16V160.308C115.144 160.133 115.723 159.804 116.348 159.32C116.973 158.83 117.401 158.261 117.634 157.612H119.29V168.307ZM129.244 166.41V168.307H122.087C122.165 167.59 122.397 166.912 122.785 166.272C123.172 165.628 123.938 164.776 125.081 163.715C126.001 162.858 126.565 162.276 126.774 161.971C127.054 161.55 127.195 161.133 127.195 160.722C127.195 160.266 127.071 159.918 126.824 159.676C126.582 159.428 126.246 159.305 125.815 159.305C125.388 159.305 125.049 159.433 124.797 159.69C124.546 159.947 124.4 160.373 124.361 160.969L122.327 160.765C122.448 159.642 122.828 158.835 123.468 158.346C124.107 157.857 124.906 157.612 125.865 157.612C126.916 157.612 127.742 157.895 128.343 158.462C128.943 159.029 129.244 159.734 129.244 160.576C129.244 161.056 129.157 161.514 128.982 161.95C128.813 162.381 128.541 162.833 128.168 163.308C127.921 163.623 127.476 164.076 126.832 164.667C126.187 165.258 125.778 165.65 125.604 165.844C125.434 166.038 125.296 166.226 125.19 166.41H129.244Z" fill="white"/>
<path opacity="0.5" d="M20.9205 40.3487L23.2082 46.8353H23.2985L25.5861 40.3487H26.5643L23.7349 48.0543H22.7717L19.9423 40.3487H20.9205ZM27.6442 48.0543V42.2751H28.5321V48.0543H27.6442ZM28.0957 41.3119C27.9226 41.3119 27.7733 41.2529 27.6479 41.135C27.525 41.0172 27.4636 40.8754 27.4636 40.7099C27.4636 40.5443 27.525 40.4026 27.6479 40.2847C27.7733 40.1668 27.9226 40.1079 28.0957 40.1079C28.2687 40.1079 28.4167 40.1668 28.5396 40.2847C28.6651 40.4026 28.7278 40.5443 28.7278 40.7099C28.7278 40.8754 28.6651 41.0172 28.5396 41.135C28.4167 41.2529 28.2687 41.3119 28.0957 41.3119ZM34.8842 42.2751L32.7471 48.0543H31.8441L29.707 42.2751H30.6702L32.2655 46.8804H32.3257L33.921 42.2751H34.8842ZM38.2723 48.1747C37.7155 48.1747 37.2351 48.0518 36.8313 47.806C36.43 47.5577 36.1202 47.2115 35.902 46.7675C35.6862 46.3211 35.5784 45.8018 35.5784 45.2099C35.5784 44.6179 35.6862 44.0962 35.902 43.6446C36.1202 43.1906 36.4237 42.837 36.8125 42.5836C37.2038 42.3278 37.6603 42.1998 38.182 42.1998C38.483 42.1998 38.7803 42.25 39.0738 42.3503C39.3672 42.4507 39.6344 42.6137 39.8752 42.8395C40.116 43.0627 40.3079 43.3587 40.4508 43.7274C40.5938 44.0962 40.6653 44.5502 40.6653 45.0895V45.4657H36.2105V44.6982H39.7623C39.7623 44.3721 39.6971 44.0811 39.5666 43.8252C39.4387 43.5694 39.2556 43.3675 39.0173 43.2195C38.7815 43.0715 38.5031 42.9975 38.182 42.9975C37.8284 42.9975 37.5223 43.0853 37.264 43.2609C37.0081 43.4339 36.8112 43.6597 36.6733 43.9381C36.5353 44.2166 36.4663 44.515 36.4663 44.8336V45.3453C36.4663 45.7818 36.5416 46.1517 36.6921 46.4553C36.8451 46.7563 37.057 46.9858 37.3279 47.1438C37.5989 47.2993 37.9136 47.3771 38.2723 47.3771C38.5056 47.3771 38.7163 47.3445 38.9044 47.2792C39.0951 47.2115 39.2594 47.1112 39.3973 46.9782C39.5353 46.8428 39.6419 46.6747 39.7171 46.4741L40.575 46.7149C40.4847 47.0058 40.3329 47.2617 40.1197 47.4824C39.9065 47.7006 39.6432 47.8712 39.3296 47.9941C39.0161 48.1145 38.6636 48.1747 38.2723 48.1747ZM42.0161 48.0543V42.2751H42.8739V43.148H42.9341C43.0395 42.862 43.2301 42.63 43.506 42.4519C43.7819 42.2738 44.093 42.1848 44.4391 42.1848C44.5043 42.1848 44.5859 42.186 44.6837 42.1886C44.7815 42.1911 44.8555 42.1948 44.9057 42.1998V43.1028C44.8756 43.0953 44.8066 43.084 44.6987 43.069C44.5934 43.0514 44.4818 43.0426 44.3639 43.0426C44.0829 43.0426 43.8321 43.1016 43.6114 43.2195C43.3931 43.3349 43.2201 43.4954 43.0921 43.7011C42.9667 43.9043 42.904 44.1363 42.904 44.3972V48.0543H42.0161ZM45.9582 48.0543V42.2751H46.8161V43.148H46.8763C46.9816 42.862 47.1723 42.63 47.4482 42.4519C47.7241 42.2738 48.0351 42.1848 48.3813 42.1848C48.4465 42.1848 48.528 42.186 48.6259 42.1886C48.7237 42.1911 48.7977 42.1948 48.8478 42.1998V43.1028C48.8177 43.0953 48.7488 43.084 48.6409 43.069C48.5356 43.0514 48.4239 43.0426 48.306 43.0426C48.0251 43.0426 47.7743 43.1016 47.5535 43.2195C47.3353 43.3349 47.1622 43.4954 47.0343 43.7011C46.9089 43.9043 46.8462 44.1363 46.8462 44.3972V48.0543H45.9582ZM51.6011 48.1898C51.2349 48.1898 50.9025 48.1208 50.604 47.9828C50.3055 47.8424 50.0685 47.6404 49.8929 47.3771C49.7173 47.1112 49.6295 46.7901 49.6295 46.4139C49.6295 46.0828 49.6947 45.8144 49.8252 45.6087C49.9556 45.4005 50.1299 45.2374 50.3481 45.1196C50.5664 45.0017 50.8072 44.9139 51.0706 44.8562C51.3364 44.796 51.6036 44.7483 51.872 44.7132C52.2231 44.6681 52.5078 44.6342 52.7261 44.6116C52.9468 44.5865 53.1073 44.5451 53.2077 44.4875C53.3105 44.4298 53.3619 44.3294 53.3619 44.1865V44.1564C53.3619 43.7851 53.2603 43.4967 53.0572 43.291C52.8565 43.0853 52.5517 42.9824 52.1429 42.9824C51.719 42.9824 51.3866 43.0753 51.1458 43.2609C50.905 43.4465 50.7357 43.6446 50.6379 43.8553L49.7951 43.5543C49.9456 43.2032 50.1462 42.9298 50.3971 42.7341C50.6504 42.536 50.9263 42.398 51.2248 42.3202C51.5258 42.24 51.8218 42.1998 52.1128 42.1998C52.2984 42.1998 52.5116 42.2224 52.7524 42.2676C52.9957 42.3102 53.2302 42.3993 53.456 42.5347C53.6843 42.6702 53.8736 42.8746 54.0241 43.148C54.1746 43.4214 54.2499 43.7876 54.2499 44.2467V48.0543H53.3619V47.2717H53.3168C53.2566 47.3971 53.1562 47.5313 53.0158 47.6743C52.8753 47.8173 52.6884 47.9389 52.4552 48.0393C52.2219 48.1396 51.9372 48.1898 51.6011 48.1898ZM51.7365 47.3921C52.0877 47.3921 52.3837 47.3231 52.6245 47.1852C52.8678 47.0472 53.0509 46.8691 53.1738 46.6509C53.2992 46.4327 53.3619 46.2032 53.3619 45.9624V45.1497C53.3243 45.1948 53.2415 45.2362 53.1136 45.2738C52.9882 45.3089 52.8427 45.3403 52.6771 45.3679C52.5141 45.393 52.3548 45.4155 52.1993 45.4356C52.0463 45.4532 51.9221 45.4682 51.8268 45.4808C51.5961 45.5109 51.3803 45.5598 51.1797 45.6275C50.9815 45.6927 50.821 45.7918 50.6981 45.9247C50.5777 46.0552 50.5175 46.2333 50.5175 46.459C50.5175 46.7675 50.6316 47.0008 50.8599 47.1588C51.0906 47.3144 51.3828 47.3921 51.7365 47.3921ZM61.3639 42.2751V43.0276H58.3689V42.2751H61.3639ZM59.2418 40.8905H60.1298V46.3988C60.1298 46.6496 60.1661 46.8378 60.2389 46.9632C60.3141 47.0861 60.4094 47.1689 60.5248 47.2115C60.6427 47.2517 60.7669 47.2717 60.8973 47.2717C60.9951 47.2717 61.0754 47.2667 61.1381 47.2567C61.2008 47.2441 61.251 47.2341 61.2886 47.2266L61.4692 48.0242C61.409 48.0468 61.325 48.0694 61.2171 48.0919C61.1093 48.117 60.9726 48.1296 60.807 48.1296C60.5562 48.1296 60.3104 48.0756 60.0696 47.9678C59.8313 47.8599 59.6331 47.6956 59.4751 47.4749C59.3196 47.2542 59.2418 46.9757 59.2418 46.6396V40.8905ZM62.6996 48.0543V42.2751H63.5574V43.148H63.6176C63.723 42.862 63.9136 42.63 64.1895 42.4519C64.4654 42.2738 64.7765 42.1848 65.1226 42.1848C65.1878 42.1848 65.2694 42.186 65.3672 42.1886C65.465 42.1911 65.539 42.1948 65.5892 42.1998V43.1028C65.5591 43.0953 65.4901 43.084 65.3822 43.069C65.2769 43.0514 65.1653 43.0426 65.0474 43.0426C64.7664 43.0426 64.5156 43.1016 64.2949 43.2195C64.0766 43.3349 63.9036 43.4954 63.7756 43.7011C63.6502 43.9043 63.5875 44.1363 63.5875 44.3972V48.0543H62.6996ZM66.6417 48.0543V42.2751H67.5297V48.0543H66.6417ZM67.0932 41.3119C66.9202 41.3119 66.7709 41.2529 66.6455 41.135C66.5226 41.0172 66.4611 40.8754 66.4611 40.7099C66.4611 40.5443 66.5226 40.4026 66.6455 40.2847C66.7709 40.1668 66.9202 40.1079 67.0932 40.1079C67.2663 40.1079 67.4143 40.1668 67.5372 40.2847C67.6626 40.4026 67.7253 40.5443 67.7253 40.7099C67.7253 40.8754 67.6626 41.0172 67.5372 41.135C67.4143 41.2529 67.2663 41.3119 67.0932 41.3119ZM73.2497 43.5694L72.452 43.7951C72.4018 43.6622 72.3278 43.533 72.23 43.4076C72.1347 43.2797 72.0043 43.1743 71.8387 43.0916C71.6732 43.0088 71.4612 42.9674 71.2029 42.9674C70.8492 42.9674 70.5544 43.0489 70.3187 43.212C70.0854 43.3725 69.9687 43.5769 69.9687 43.8252C69.9687 44.046 70.049 44.2203 70.2095 44.3482C70.3701 44.4762 70.6209 44.5828 70.9621 44.6681L71.8199 44.8788C72.3366 45.0042 72.7217 45.1961 72.975 45.4544C73.2283 45.7103 73.355 46.0401 73.355 46.444C73.355 46.7751 73.2597 47.071 73.0691 47.3319C72.8809 47.5928 72.6176 47.7985 72.2789 47.949C71.9403 48.0995 71.5465 48.1747 71.0975 48.1747C70.508 48.1747 70.0202 48.0468 69.6339 47.7909C69.2476 47.5351 69.003 47.1613 68.9002 46.6697L69.743 46.459C69.8233 46.77 69.975 47.0033 70.1983 47.1588C70.424 47.3144 70.7187 47.3921 71.0825 47.3921C71.4963 47.3921 71.8249 47.3043 72.0682 47.1287C72.3141 46.9506 72.437 46.7374 72.437 46.4891C72.437 46.2884 72.3667 46.1204 72.2263 45.9849C72.0858 45.847 71.8701 45.7441 71.5791 45.6764L70.6159 45.4507C70.0866 45.3252 69.6978 45.1308 69.4495 44.8675C69.2037 44.6016 69.0808 44.2692 69.0808 43.8704C69.0808 43.5443 69.1723 43.2559 69.3555 43.005C69.5411 42.7542 69.7932 42.5573 70.1117 42.4143C70.4328 42.2713 70.7965 42.1998 71.2029 42.1998C71.7748 42.1998 72.2237 42.3253 72.5498 42.5761C72.8784 42.8269 73.1117 43.158 73.2497 43.5694ZM77.205 42.2751V43.0276H74.21V42.2751H77.205ZM75.083 40.8905H75.9709V46.3988C75.9709 46.6496 76.0073 46.8378 76.08 46.9632C76.1553 47.0861 76.2506 47.1689 76.366 47.2115C76.4839 47.2517 76.608 47.2717 76.7385 47.2717C76.8363 47.2717 76.9166 47.2667 76.9793 47.2567C77.042 47.2441 77.0921 47.2341 77.1298 47.2266L77.3104 48.0242C77.2502 48.0468 77.1661 48.0694 77.0583 48.0919C76.9504 48.117 76.8137 48.1296 76.6482 48.1296C76.3973 48.1296 76.1515 48.0756 75.9107 47.9678C75.6724 47.8599 75.4743 47.6956 75.3162 47.4749C75.1607 47.2542 75.083 46.9757 75.083 46.6396V40.8905ZM78.5407 48.0543V42.2751H79.4287V48.0543H78.5407ZM78.9922 41.3119C78.8191 41.3119 78.6699 41.2529 78.5445 41.135C78.4216 41.0172 78.3601 40.8754 78.3601 40.7099C78.3601 40.5443 78.4216 40.4026 78.5445 40.2847C78.6699 40.1668 78.8191 40.1079 78.9922 40.1079C79.1653 40.1079 79.3133 40.1668 79.4362 40.2847C79.5616 40.4026 79.6243 40.5443 79.6243 40.7099C79.6243 40.8754 79.5616 41.0172 79.4362 41.135C79.3133 41.2529 79.1653 41.3119 78.9922 41.3119ZM84.9981 50.2215V47.1664H84.9229C84.8577 47.2717 84.7649 47.4047 84.6445 47.5652C84.5241 47.7232 84.3522 47.8649 84.129 47.9904C83.9057 48.1133 83.6085 48.1747 83.2373 48.1747C82.7557 48.1747 82.3305 48.0531 81.9618 47.8098C81.5931 47.5639 81.3046 47.2178 81.0964 46.7713C80.8882 46.3223 80.7841 45.7918 80.7841 45.1798C80.7841 44.5727 80.8882 44.046 81.0964 43.5995C81.3046 43.153 81.5943 42.8081 81.9655 42.5648C82.3368 42.3215 82.7657 42.1998 83.2523 42.1998C83.6286 42.1998 83.9258 42.2625 84.144 42.388C84.3648 42.5109 84.5328 42.6513 84.6482 42.8094C84.7661 42.9649 84.8577 43.0928 84.9229 43.1931H85.0282V42.2751H85.8861V50.2215H84.9981ZM83.3577 47.3771C83.7139 47.3771 84.0149 47.2843 84.2607 47.0986C84.5065 46.9105 84.6934 46.6509 84.8213 46.3198C84.9492 45.9862 85.0132 45.6012 85.0132 45.1647C85.0132 44.7333 84.9505 44.3558 84.8251 44.0322C84.6996 43.7061 84.514 43.4528 84.2682 43.2722C84.0224 43.089 83.7189 42.9975 83.3577 42.9975C82.9814 42.9975 82.6679 43.0941 82.417 43.2872C82.1687 43.4778 81.9818 43.7375 81.8564 44.0661C81.7335 44.3921 81.6721 44.7584 81.6721 45.1647C81.6721 45.5761 81.7348 45.9498 81.8602 46.2859C81.9881 46.6195 82.1762 46.8854 82.4246 47.0836C82.6754 47.2792 82.9864 47.3771 83.3577 47.3771ZM91.1536 45.6915V42.2751H92.0416V48.0543H91.1536V47.0761H91.0934C90.958 47.3695 90.7473 47.6191 90.4613 47.8248C90.1754 48.028 89.8142 48.1296 89.3777 48.1296C89.0165 48.1296 88.6954 48.0506 88.4145 47.8925C88.1336 47.732 87.9128 47.4912 87.7523 47.1701C87.5918 46.8466 87.5115 46.4389 87.5115 45.9473V42.2751H88.3995V45.8871C88.3995 46.3085 88.5173 46.6446 88.7531 46.8955C88.9914 47.1463 89.2949 47.2717 89.6637 47.2717C89.8844 47.2717 90.1089 47.2153 90.3371 47.1024C90.5679 46.9895 90.7611 46.8165 90.9166 46.5832C91.0746 46.3499 91.1536 46.0527 91.1536 45.6915ZM96.091 48.1747C95.5341 48.1747 95.0538 48.0518 94.6499 47.806C94.2486 47.5577 93.9388 47.2115 93.7206 46.7675C93.5049 46.3211 93.397 45.8018 93.397 45.2099C93.397 44.6179 93.5049 44.0962 93.7206 43.6446C93.9388 43.1906 94.2423 42.837 94.6311 42.5836C95.0224 42.3278 95.4789 42.1998 96.0007 42.1998C96.3017 42.1998 96.5989 42.25 96.8924 42.3503C97.1859 42.4507 97.453 42.6137 97.6938 42.8395C97.9346 43.0627 98.1265 43.3587 98.2695 43.7274C98.4125 44.0962 98.4839 44.5502 98.4839 45.0895V45.4657H94.0291V44.6982H97.5809C97.5809 44.3721 97.5157 44.0811 97.3853 43.8252C97.2574 43.5694 97.0742 43.3675 96.836 43.2195C96.6002 43.0715 96.3217 42.9975 96.0007 42.9975C95.647 42.9975 95.341 43.0853 95.0826 43.2609C94.8268 43.4339 94.6299 43.6597 94.4919 43.9381C94.3539 44.2166 94.285 44.515 94.285 44.8336V45.3453C94.285 45.7818 94.3602 46.1517 94.5107 46.4553C94.6637 46.7563 94.8757 46.9858 95.1466 47.1438C95.4175 47.2993 95.7323 47.3771 96.091 47.3771C96.3243 47.3771 96.535 47.3445 96.7231 47.2792C96.9137 47.2115 97.078 47.1112 97.216 46.9782C97.3539 46.8428 97.4605 46.6747 97.5358 46.4741L98.3936 46.7149C98.3033 47.0058 98.1516 47.2617 97.9384 47.4824C97.7252 47.7006 97.4618 47.8712 97.1482 47.9941C96.8347 48.1145 96.4823 48.1747 96.091 48.1747Z" fill="black"/>
<path d="M23.2299 30.2493H20.4736V22.1155H23.2855C24.0931 22.1155 24.7868 22.2783 25.3667 22.604C25.9492 22.927 26.3966 23.3917 26.7091 23.998C27.0215 24.6043 27.1777 25.3298 27.1777 26.1744C27.1777 27.0217 27.0202 27.7498 26.7051 28.3588C26.3927 28.9678 25.9412 29.4351 25.3508 29.7608C24.763 30.0864 24.056 30.2493 23.2299 30.2493ZM21.9471 28.9744H23.1584C23.7251 28.9744 24.1977 28.8711 24.5763 28.6646C24.9549 28.4554 25.2396 28.1443 25.4302 27.7313C25.6208 27.3156 25.7162 26.7966 25.7162 26.1744C25.7162 25.5522 25.6208 25.0359 25.4302 24.6255C25.2396 24.2125 24.9576 23.904 24.5843 23.7001C24.2136 23.4936 23.7529 23.3903 23.2021 23.3903H21.9471V28.9744ZM30.2696 30.3724C29.883 30.3724 29.5348 30.3036 29.2251 30.1659C28.9179 30.0255 28.6743 29.819 28.4943 29.5463C28.3169 29.2736 28.2282 28.9373 28.2282 28.5375C28.2282 28.1933 28.2917 27.9087 28.4188 27.6836C28.5459 27.4586 28.7193 27.2785 28.9391 27.1435C29.1589 27.0085 29.4064 26.9065 29.6818 26.8377C29.9598 26.7662 30.2471 26.7146 30.5436 26.6828C30.9011 26.6457 31.191 26.6126 31.4134 26.5835C31.6358 26.5517 31.7973 26.5041 31.8979 26.4405C32.0012 26.3743 32.0528 26.2724 32.0528 26.1347V26.1109C32.0528 25.8117 31.9641 25.58 31.7867 25.4159C31.6093 25.2517 31.3538 25.1696 31.0202 25.1696C30.6681 25.1696 30.3887 25.2464 30.1822 25.4C29.9783 25.5535 29.8407 25.7349 29.7692 25.9441L28.4268 25.7534C28.5327 25.3828 28.7074 25.073 28.951 24.8241C29.1946 24.5725 29.4925 24.3846 29.8446 24.2601C30.1968 24.133 30.586 24.0695 31.0123 24.0695C31.3062 24.0695 31.5988 24.1039 31.89 24.1727C32.1813 24.2416 32.4473 24.3554 32.6883 24.5143C32.9292 24.6705 33.1225 24.8837 33.2681 25.1537C33.4164 25.4238 33.4906 25.7614 33.4906 26.1665V30.2493H32.1084V29.4113H32.0608C31.9734 29.5807 31.8503 29.7396 31.6914 29.8879C31.5352 30.0335 31.338 30.1513 31.0997 30.2413C30.864 30.3287 30.5873 30.3724 30.2696 30.3724ZM30.6429 29.316C30.9315 29.316 31.1817 29.259 31.3936 29.1452C31.6054 29.0287 31.7682 28.8751 31.8821 28.6845C31.9986 28.4938 32.0568 28.286 32.0568 28.0609V27.3421C32.0118 27.3791 31.935 27.4136 31.8265 27.4453C31.7205 27.4771 31.6014 27.5049 31.469 27.5287C31.3366 27.5526 31.2056 27.5738 31.0758 27.5923C30.9461 27.6108 30.8336 27.6267 30.7382 27.6399C30.5238 27.6691 30.3318 27.7167 30.1624 27.7829C29.9929 27.8491 29.8592 27.9418 29.7612 28.0609C29.6633 28.1774 29.6143 28.3284 29.6143 28.5137C29.6143 28.7785 29.7109 28.9784 29.9042 29.1134C30.0975 29.2484 30.3437 29.316 30.6429 29.316ZM37.9824 24.1489V25.261H34.4755V24.1489H37.9824ZM35.3413 22.6874H36.779V28.4144C36.779 28.6077 36.8082 28.756 36.8664 28.8592C36.9273 28.9598 37.0067 29.0287 37.1047 29.0657C37.2027 29.1028 37.3112 29.1213 37.4304 29.1213C37.5204 29.1213 37.6025 29.1147 37.6766 29.1015C37.7534 29.0883 37.8117 29.0763 37.8514 29.0657L38.0936 30.1897C38.0169 30.2162 37.907 30.2453 37.764 30.2771C37.6237 30.3089 37.4516 30.3274 37.2477 30.3327C36.8876 30.3433 36.5632 30.289 36.2746 30.1699C35.986 30.0481 35.757 29.8601 35.5876 29.6059C35.4208 29.3517 35.3387 29.034 35.3413 28.6527V22.6874ZM40.9403 30.3724C40.5537 30.3724 40.2055 30.3036 39.8957 30.1659C39.5886 30.0255 39.345 29.819 39.165 29.5463C38.9876 29.2736 38.8989 28.9373 38.8989 28.5375C38.8989 28.1933 38.9624 27.9087 39.0895 27.6836C39.2166 27.4586 39.39 27.2785 39.6098 27.1435C39.8296 27.0085 40.0771 26.9065 40.3525 26.8377C40.6305 26.7662 40.9178 26.7146 41.2143 26.6828C41.5718 26.6457 41.8617 26.6126 42.0841 26.5835C42.3065 26.5517 42.468 26.5041 42.5686 26.4405C42.6719 26.3743 42.7235 26.2724 42.7235 26.1347V26.1109C42.7235 25.8117 42.6348 25.58 42.4574 25.4159C42.28 25.2517 42.0245 25.1696 41.6909 25.1696C41.3388 25.1696 41.0594 25.2464 40.8529 25.4C40.649 25.5535 40.5113 25.7349 40.4399 25.9441L39.0975 25.7534C39.2034 25.3828 39.3781 25.073 39.6217 24.8241C39.8653 24.5725 40.1632 24.3846 40.5153 24.2601C40.8675 24.133 41.2567 24.0695 41.683 24.0695C41.9769 24.0695 42.2694 24.1039 42.5607 24.1727C42.8519 24.2416 43.118 24.3554 43.359 24.5143C43.5999 24.6705 43.7932 24.8837 43.9388 25.1537C44.0871 25.4238 44.1612 25.7614 44.1612 26.1665V30.2493H42.7791V29.4113H42.7315C42.6441 29.5807 42.521 29.7396 42.3621 29.8879C42.2059 30.0335 42.0086 30.1513 41.7703 30.2413C41.5347 30.3287 41.258 30.3724 40.9403 30.3724ZM41.3136 29.316C41.6022 29.316 41.8524 29.259 42.0642 29.1452C42.2761 29.0287 42.4389 28.8751 42.5527 28.6845C42.6692 28.4938 42.7275 28.286 42.7275 28.0609V27.3421C42.6825 27.3791 42.6057 27.4136 42.4971 27.4453C42.3912 27.4771 42.2721 27.5049 42.1397 27.5287C42.0073 27.5526 41.8762 27.5738 41.7465 27.5923C41.6168 27.6108 41.5042 27.6267 41.4089 27.6399C41.1945 27.6691 41.0025 27.7167 40.833 27.7829C40.6636 27.8491 40.5299 27.9418 40.4319 28.0609C40.3339 28.1774 40.285 28.3284 40.285 28.5137C40.285 28.7785 40.3816 28.9784 40.5749 29.1134C40.7682 29.2484 41.0144 29.316 41.3136 29.316ZM51.4273 24.1489V25.261H47.9204V24.1489H51.4273ZM48.7862 22.6874H50.2239V28.4144C50.2239 28.6077 50.253 28.756 50.3113 28.8592C50.3722 28.9598 50.4516 29.0287 50.5496 29.0657C50.6475 29.1028 50.7561 29.1213 50.8752 29.1213C50.9652 29.1213 51.0473 29.1147 51.1215 29.1015C51.1982 29.0883 51.2565 29.0763 51.2962 29.0657L51.5385 30.1897C51.4617 30.2162 51.3518 30.2453 51.2088 30.2771C51.0685 30.3089 50.8964 30.3274 50.6925 30.3327C50.3324 30.3433 50.0081 30.289 49.7195 30.1699C49.4309 30.0481 49.2019 29.8601 49.0324 29.6059C48.8656 29.3517 48.7835 29.034 48.7862 28.6527V22.6874ZM52.6297 30.2493V24.1489H54.0237V25.1656H54.0873C54.1985 24.8135 54.3891 24.5421 54.6592 24.3515C54.9319 24.1582 55.243 24.0615 55.5925 24.0615C55.6719 24.0615 55.7606 24.0655 55.8586 24.0735C55.9592 24.0787 56.0426 24.088 56.1088 24.1013V25.4238C56.0479 25.4026 55.9513 25.3841 55.8189 25.3682C55.6891 25.3497 55.5634 25.3404 55.4416 25.3404C55.1794 25.3404 54.9438 25.3973 54.7346 25.5112C54.5281 25.6224 54.3653 25.7773 54.2461 25.9758C54.127 26.1744 54.0674 26.4035 54.0674 26.6629V30.2493H52.6297ZM58.7102 30.3724C58.3236 30.3724 57.9754 30.3036 57.6657 30.1659C57.3585 30.0255 57.1149 29.819 56.9349 29.5463C56.7575 29.2736 56.6688 28.9373 56.6688 28.5375C56.6688 28.1933 56.7323 27.9087 56.8594 27.6836C56.9865 27.4586 57.1599 27.2785 57.3797 27.1435C57.5995 27.0085 57.847 26.9065 58.1224 26.8377C58.4004 26.7662 58.6877 26.7146 58.9842 26.6828C59.3417 26.6457 59.6316 26.6126 59.854 26.5835C60.0764 26.5517 60.2379 26.5041 60.3385 26.4405C60.4418 26.3743 60.4934 26.2724 60.4934 26.1347V26.1109C60.4934 25.8117 60.4047 25.58 60.2273 25.4159C60.0499 25.2517 59.7944 25.1696 59.4608 25.1696C59.1087 25.1696 58.8293 25.2464 58.6228 25.4C58.4189 25.5535 58.2813 25.7349 58.2098 25.9441L56.8674 25.7534C56.9733 25.3828 57.148 25.073 57.3916 24.8241C57.6352 24.5725 57.9331 24.3846 58.2852 24.2601C58.6374 24.133 59.0266 24.0695 59.4529 24.0695C59.7468 24.0695 60.0393 24.1039 60.3306 24.1727C60.6219 24.2416 60.8879 24.3554 61.1289 24.5143C61.3698 24.6705 61.5631 24.8837 61.7087 25.1537C61.857 25.4238 61.9312 25.7614 61.9312 26.1665V30.2493H60.549V29.4113H60.5014C60.414 29.5807 60.2909 29.7396 60.132 29.8879C59.9758 30.0335 59.7785 30.1513 59.5403 30.2413C59.3046 30.3287 59.0279 30.3724 58.7102 30.3724ZM59.0835 29.316C59.3721 29.316 59.6223 29.259 59.8342 29.1452C60.046 29.0287 60.2088 28.8751 60.3227 28.6845C60.4392 28.4938 60.4974 28.286 60.4974 28.0609V27.3421C60.4524 27.3791 60.3756 27.4136 60.2671 27.4453C60.1611 27.4771 60.042 27.5049 59.9096 27.5287C59.7772 27.5526 59.6462 27.5738 59.5164 27.5923C59.3867 27.6108 59.2742 27.6267 59.1788 27.6399C58.9644 27.6691 58.7724 27.7167 58.603 27.7829C58.4335 27.8491 58.2998 27.9418 58.2018 28.0609C58.1039 28.1774 58.0549 28.3284 58.0549 28.5137C58.0549 28.7785 58.1515 28.9784 58.3448 29.1134C58.5381 29.2484 58.7843 29.316 59.0835 29.316ZM64.8145 26.6748V30.2493H63.3768V24.1489H64.751V25.1855H64.8225C64.9628 24.8439 65.1865 24.5725 65.4937 24.3713C65.8035 24.1701 66.1861 24.0695 66.6415 24.0695C67.0625 24.0695 67.4292 24.1595 67.7416 24.3395C68.0567 24.5196 68.3003 24.7804 68.4724 25.122C68.6471 25.4635 68.7332 25.8779 68.7305 26.3651V30.2493H67.2928V26.5875C67.2928 26.1797 67.1869 25.8607 66.9751 25.6303C66.7659 25.4 66.476 25.2848 66.1053 25.2848C65.8538 25.2848 65.63 25.3404 65.4341 25.4516C65.2408 25.5602 65.0886 25.7177 64.9774 25.9242C64.8688 26.1307 64.8145 26.3809 64.8145 26.6748ZM75.0136 25.7614L73.703 25.9044C73.6659 25.772 73.601 25.6475 73.5084 25.531C73.4183 25.4145 73.2965 25.3205 73.143 25.249C72.9894 25.1776 72.8014 25.1418 72.579 25.1418C72.2798 25.1418 72.0283 25.2067 71.8244 25.3364C71.6232 25.4662 71.5239 25.6343 71.5265 25.8408C71.5239 26.0182 71.5888 26.1625 71.7211 26.2737C71.8562 26.3849 72.0786 26.4763 72.3884 26.5478L73.4289 26.7702C74.0061 26.8946 74.4351 27.0919 74.7157 27.3619C74.999 27.632 75.142 27.9855 75.1447 28.4223C75.142 28.8063 75.0295 29.1452 74.8071 29.4391C74.5873 29.7303 74.2815 29.958 73.8896 30.1222C73.4978 30.2864 73.0477 30.3684 72.5393 30.3684C71.7926 30.3684 71.1916 30.2122 70.7362 29.8998C70.2808 29.5847 70.0094 29.1465 69.922 28.5852L71.324 28.4501C71.3875 28.7255 71.5226 28.9334 71.7291 29.0737C71.9356 29.214 72.2043 29.2842 72.5353 29.2842C72.8769 29.2842 73.1509 29.214 73.3574 29.0737C73.5666 28.9334 73.6712 28.7599 73.6712 28.5534C73.6712 28.3787 73.6037 28.2344 73.4686 28.1205C73.3363 28.0067 73.1297 27.9193 72.8491 27.8584L71.8085 27.6399C71.2234 27.5181 70.7905 27.3129 70.5098 27.0243C70.2291 26.7331 70.0901 26.3651 70.0928 25.9202C70.0901 25.5443 70.1921 25.2186 70.3986 24.9432C70.6078 24.6652 70.8977 24.4508 71.2684 24.2998C71.6417 24.1463 72.072 24.0695 72.5591 24.0695C73.274 24.0695 73.8367 24.2217 74.2471 24.5262C74.6601 24.8307 74.9156 25.2424 75.0136 25.7614ZM79.4201 24.1489V25.261H75.8139V24.1489H79.4201ZM76.7154 30.2493V23.573C76.7154 23.1626 76.8001 22.8211 76.9696 22.5484C77.1417 22.2756 77.3721 22.0718 77.6607 21.9367C77.9493 21.8017 78.2696 21.7342 78.6218 21.7342C78.8707 21.7342 79.0918 21.754 79.285 21.7938C79.4783 21.8335 79.6213 21.8692 79.714 21.901L79.428 23.013C79.3671 22.9945 79.2903 22.976 79.1977 22.9574C79.105 22.9363 79.0017 22.9257 78.8879 22.9257C78.6205 22.9257 78.4311 22.9905 78.3199 23.1203C78.2114 23.2474 78.1571 23.4301 78.1571 23.6683V30.2493H76.7154ZM83.0173 30.3684C82.4057 30.3684 81.8775 30.2413 81.4327 29.9872C80.9905 29.7303 80.6503 29.3676 80.412 28.8989C80.1737 28.4276 80.0545 27.8729 80.0545 27.2348C80.0545 26.6073 80.1737 26.0566 80.412 25.5827C80.6529 25.1061 80.9892 24.7354 81.4208 24.4706C81.8523 24.2032 82.3594 24.0695 82.9419 24.0695C83.3179 24.0695 83.6727 24.1304 84.0063 24.2522C84.3425 24.3713 84.6391 24.5567 84.8959 24.8082C85.1554 25.0597 85.3593 25.3801 85.5075 25.7693C85.6558 26.1559 85.7299 26.6166 85.7299 27.1514V27.5923H80.7297V26.6232H84.3518C84.3492 26.3479 84.2896 26.1029 84.1731 25.8885C84.0566 25.6714 83.8937 25.5006 83.6846 25.3761C83.4781 25.2517 83.2371 25.1895 82.9617 25.1895C82.6678 25.1895 82.4097 25.261 82.1873 25.4039C81.9649 25.5443 81.7914 25.7296 81.667 25.96C81.5452 26.1877 81.483 26.4379 81.4803 26.7106V27.5565C81.4803 27.9113 81.5452 28.2158 81.6749 28.47C81.8047 28.7215 81.9861 28.9148 82.2191 29.0499C82.4521 29.1822 82.7248 29.2484 83.0372 29.2484C83.2464 29.2484 83.4357 29.2193 83.6051 29.1611C83.7746 29.1002 83.9215 29.0115 84.046 28.895C84.1704 28.7785 84.2644 28.6342 84.328 28.4621L85.6704 28.613C85.5856 28.9678 85.4241 29.2776 85.1858 29.5423C84.9502 29.8045 84.6484 30.0083 84.2803 30.154C83.9123 30.2969 83.4913 30.3684 83.0173 30.3684ZM86.9463 30.2493V24.1489H88.3403V25.1656H88.4038C88.515 24.8135 88.7057 24.5421 88.9757 24.3515C89.2485 24.1582 89.5596 24.0615 89.9091 24.0615C89.9885 24.0615 90.0772 24.0655 90.1752 24.0735C90.2758 24.0787 90.3592 24.088 90.4254 24.1013V25.4238C90.3645 25.4026 90.2678 25.3841 90.1354 25.3682C90.0057 25.3497 89.8799 25.3404 89.7581 25.3404C89.496 25.3404 89.2604 25.3973 89.0512 25.5112C88.8447 25.6224 88.6818 25.7773 88.5627 25.9758C88.4435 26.1744 88.384 26.4035 88.384 26.6629V30.2493H86.9463Z" fill="#1D2125"/>
</g>
<defs>
<filter id="filter0_d_2436_541" x="-64.2533" y="-60.2842" width="366.962" height="366.962" filterUnits="userSpaceOnUse" color-interpolation-filters="sRGB">
<feFlood flood-opacity="0" result="BackgroundImageFix"/>
<feColorMatrix in="SourceAlpha" type="matrix" values="0 0 0 0 0 0 0 0 0 0 0 0 0 0 0 0 0 0 127 0" result="hardAlpha"/>
<feOffset dy="4.32476"/>
<feGaussianBlur stdDeviation="32.4357"/>
<feComposite in2="hardAlpha" operator="out"/>
<feColorMatrix type="matrix" values="0 0 0 0 0 0 0 0 0 0 0 0 0 0 0 0 0 0 0.08 0"/>
<feBlend mode="normal" in2="BackgroundImageFix" result="effect1_dropShadow_2436_541"/>
<feBlend mode="normal" in="SourceGraphic" in2="effect1_dropShadow_2436_541" result="shape"/>
</filter>
<clipPath id="clip0_2436_541">
<rect x="0.618408" y="0.262939" width="237.382" height="237.219" rx="14.5494" fill="white"/>
</clipPath>
</defs>
</svg>
