<svg width="37" height="36" viewBox="0 0 37 36" fill="none" xmlns="http://www.w3.org/2000/svg">
<rect x="11.0885" y="9.76596" width="14.7289" height="14.7289" rx="2.83248" stroke="#FAFAFA" stroke-width="1.13299"/>
<path fill-rule="evenodd" clip-rule="evenodd" d="M22.8189 13.9018C22.9251 14.0111 22.9848 14.1592 22.9848 14.3136C22.9848 14.4681 22.9251 14.6162 22.8189 14.7255L17.3339 20.3589C17.2275 20.468 17.0833 20.5293 16.933 20.5293C16.7826 20.5293 16.6384 20.468 16.532 20.3589L14.0732 17.8336C13.973 17.7231 13.9184 17.577 13.921 17.426C13.9236 17.275 13.9831 17.131 14.0871 17.0242C14.1911 16.9174 14.3313 16.8563 14.4783 16.8536C14.6253 16.8509 14.7676 16.907 14.8751 17.0099L16.933 19.1235L22.017 13.9018C22.1234 13.7927 22.2676 13.7314 22.418 13.7314C22.5683 13.7314 22.7126 13.7927 22.8189 13.9018Z" fill="#FAFAFA"/>
</svg>
