<svg width="368" height="353" viewBox="0 0 368 353" fill="none" xmlns="http://www.w3.org/2000/svg">
<g filter="url(#filter0_d_2436_552)">
<rect x="65.6182" y="61" width="237.013" height="222.315" rx="8.55058" fill="#FAFAFA"/>
<rect x="66.0457" y="61.4275" width="236.158" height="221.46" rx="8.12305" stroke="url(#paint0_linear_2436_552)" stroke-width="0.855058"/>
</g>
<path d="M160.871 93.9243V102.652H159.848L155.092 95.7993H155.007V102.652H153.95V93.9243H154.973L159.746 100.794H159.831V93.9243H160.871ZM165.593 102.788C164.963 102.788 164.419 102.649 163.961 102.37C163.507 102.089 163.156 101.697 162.909 101.194C162.665 100.689 162.542 100.1 162.542 99.43C162.542 98.7596 162.665 98.1687 162.909 97.6573C163.156 97.1431 163.5 96.7425 163.94 96.4556C164.383 96.1658 164.9 96.0209 165.491 96.0209C165.832 96.0209 166.169 96.0777 166.501 96.1914C166.834 96.305 167.136 96.4897 167.409 96.7454C167.682 96.9982 167.899 97.3334 168.061 97.751C168.223 98.1687 168.304 98.6829 168.304 99.2937V99.7198H163.258V98.8505H167.281C167.281 98.4812 167.207 98.1516 167.059 97.8618C166.915 97.5721 166.707 97.3434 166.437 97.1758C166.17 97.0081 165.855 96.9243 165.491 96.9243C165.091 96.9243 164.744 97.0238 164.451 97.2226C164.162 97.4187 163.939 97.6743 163.782 97.9897C163.626 98.305 163.548 98.6431 163.548 99.0039V99.5834C163.548 100.078 163.633 100.497 163.804 100.841C163.977 101.181 164.217 101.441 164.524 101.62C164.831 101.796 165.187 101.885 165.593 101.885C165.858 101.885 166.096 101.848 166.309 101.774C166.525 101.697 166.711 101.583 166.868 101.433C167.024 101.279 167.145 101.089 167.23 100.862L168.201 101.135C168.099 101.464 167.927 101.754 167.686 102.004C167.444 102.251 167.146 102.444 166.791 102.583C166.436 102.72 166.037 102.788 165.593 102.788ZM171.316 102.652L169.322 96.1062H170.379L171.794 101.118H171.862L173.26 96.1062H174.334L175.714 101.1H175.782L177.197 96.1062H178.254L176.26 102.652H175.271L173.839 97.6232H173.737L172.305 102.652H171.316ZM188.822 93.9243H189.879V99.7027C189.879 100.299 189.738 100.832 189.457 101.301C189.179 101.767 188.785 102.135 188.277 102.404C187.768 102.671 187.172 102.805 186.487 102.805C185.802 102.805 185.206 102.671 184.697 102.404C184.189 102.135 183.794 101.767 183.513 101.301C183.234 100.832 183.095 100.299 183.095 99.7027V93.9243H184.152V99.6175C184.152 100.044 184.245 100.423 184.433 100.755C184.62 101.085 184.888 101.345 185.234 101.535C185.584 101.723 186.001 101.816 186.487 101.816C186.973 101.816 187.39 101.723 187.74 101.535C188.089 101.345 188.356 101.085 188.541 100.755C188.728 100.423 188.822 100.044 188.822 99.6175V93.9243ZM196.489 97.5721L195.586 97.8277C195.529 97.6772 195.445 97.5309 195.335 97.3888C195.227 97.2439 195.079 97.1246 194.891 97.0309C194.704 96.9371 194.464 96.8902 194.171 96.8902C193.771 96.8902 193.437 96.9826 193.17 97.1672C192.906 97.3491 192.774 97.5806 192.774 97.8618C192.774 98.1118 192.864 98.3093 193.046 98.4542C193.228 98.5991 193.512 98.7198 193.899 98.8164L194.87 99.055C195.455 99.1971 195.891 99.4144 196.178 99.707C196.465 99.9968 196.609 100.37 196.609 100.828C196.609 101.203 196.501 101.538 196.285 101.833C196.072 102.129 195.774 102.362 195.39 102.532C195.006 102.703 194.56 102.788 194.052 102.788C193.384 102.788 192.832 102.643 192.394 102.353C191.957 102.064 191.68 101.64 191.563 101.083L192.518 100.845C192.609 101.197 192.781 101.461 193.033 101.637C193.289 101.814 193.623 101.902 194.035 101.902C194.504 101.902 194.876 101.802 195.151 101.603C195.43 101.402 195.569 101.16 195.569 100.879C195.569 100.652 195.489 100.461 195.33 100.308C195.171 100.152 194.927 100.035 194.597 99.9584L193.506 99.7027C192.907 99.5607 192.467 99.3405 192.185 99.0422C191.907 98.7411 191.768 98.3647 191.768 97.913C191.768 97.5437 191.872 97.217 192.079 96.9329C192.289 96.6488 192.575 96.4258 192.935 96.2638C193.299 96.1019 193.711 96.0209 194.171 96.0209C194.819 96.0209 195.328 96.163 195.697 96.4471C196.069 96.7312 196.333 97.1062 196.489 97.5721ZM200.867 102.788C200.236 102.788 199.692 102.649 199.235 102.37C198.78 102.089 198.429 101.697 198.182 101.194C197.938 100.689 197.816 100.1 197.816 99.43C197.816 98.7596 197.938 98.1687 198.182 97.6573C198.429 97.1431 198.773 96.7425 199.214 96.4556C199.657 96.1658 200.174 96.0209 200.765 96.0209C201.106 96.0209 201.442 96.0777 201.775 96.1914C202.107 96.305 202.41 96.4897 202.682 96.7454C202.955 96.9982 203.172 97.3334 203.334 97.751C203.496 98.1687 203.577 98.6829 203.577 99.2937V99.7198H198.532V98.8505H202.554C202.554 98.4812 202.481 98.1516 202.333 97.8618C202.188 97.5721 201.981 97.3434 201.711 97.1758C201.444 97.0081 201.128 96.9243 200.765 96.9243C200.364 96.9243 200.017 97.0238 199.725 97.2226C199.435 97.4187 199.212 97.6743 199.056 97.9897C198.9 98.305 198.821 98.6431 198.821 99.0039V99.5834C198.821 100.078 198.907 100.497 199.077 100.841C199.25 101.181 199.491 101.441 199.797 101.62C200.104 101.796 200.461 101.885 200.867 101.885C201.131 101.885 201.37 101.848 201.583 101.774C201.799 101.697 201.985 101.583 202.141 101.433C202.297 101.279 202.418 101.089 202.503 100.862L203.475 101.135C203.373 101.464 203.201 101.754 202.959 102.004C202.718 102.251 202.419 102.444 202.064 102.583C201.709 102.72 201.31 102.788 200.867 102.788ZM205.107 102.652V96.1062H206.079V97.0948H206.147C206.266 96.7709 206.482 96.5081 206.794 96.3064C207.107 96.1047 207.459 96.0039 207.851 96.0039C207.925 96.0039 208.017 96.0053 208.128 96.0081C208.239 96.011 208.323 96.0152 208.38 96.0209V97.0437C208.346 97.0351 208.267 97.0223 208.145 97.0053C208.026 96.9854 207.9 96.9755 207.766 96.9755C207.448 96.9755 207.164 97.0422 206.914 97.1758C206.667 97.3064 206.471 97.4883 206.326 97.7212C206.184 97.9513 206.113 98.2141 206.113 98.5096V102.652H205.107ZM214.208 97.5721L213.305 97.8277C213.248 97.6772 213.164 97.5309 213.053 97.3888C212.945 97.2439 212.798 97.1246 212.61 97.0309C212.423 96.9371 212.183 96.8902 211.89 96.8902C211.489 96.8902 211.156 96.9826 210.889 97.1672C210.624 97.3491 210.492 97.5806 210.492 97.8618C210.492 98.1118 210.583 98.3093 210.765 98.4542C210.947 98.5991 211.231 98.7198 211.617 98.8164L212.589 99.055C213.174 99.1971 213.61 99.4144 213.897 99.707C214.184 99.9968 214.328 100.37 214.328 100.828C214.328 101.203 214.22 101.538 214.004 101.833C213.791 102.129 213.492 102.362 213.109 102.532C212.725 102.703 212.279 102.788 211.771 102.788C211.103 102.788 210.551 102.643 210.113 102.353C209.676 102.064 209.399 101.64 209.282 101.083L210.237 100.845C210.328 101.197 210.499 101.461 210.752 101.637C211.008 101.814 211.342 101.902 211.754 101.902C212.222 101.902 212.595 101.802 212.87 101.603C213.149 101.402 213.288 101.16 213.288 100.879C213.288 100.652 213.208 100.461 213.049 100.308C212.89 100.152 212.646 100.035 212.316 99.9584L211.225 99.7027C210.626 99.5607 210.185 99.3405 209.904 99.0422C209.626 98.7411 209.487 98.3647 209.487 97.913C209.487 97.5437 209.59 97.217 209.798 96.9329C210.008 96.6488 210.293 96.4258 210.654 96.2638C211.018 96.1019 211.43 96.0209 211.89 96.0209C212.538 96.0209 213.046 96.163 213.416 96.4471C213.788 96.7312 214.052 97.1062 214.208 97.5721Z" fill="#12141D"/>
<path d="M153.877 131.244V128.759L160.108 118.943H162.251V122.382H160.983L157.055 128.598V128.715H165.909V131.244H153.877ZM161.041 133.867V130.486L161.099 129.385V118.943H164.058V133.867H161.041ZM168.422 133.867V131.594L173.734 126.675C174.186 126.237 174.565 125.844 174.871 125.494C175.182 125.144 175.418 124.802 175.578 124.466C175.738 124.126 175.818 123.76 175.818 123.366C175.818 122.929 175.719 122.552 175.52 122.236C175.321 121.916 175.048 121.67 174.704 121.5C174.359 121.326 173.967 121.238 173.53 121.238C173.074 121.238 172.675 121.33 172.335 121.515C171.995 121.7 171.733 121.964 171.548 122.309C171.363 122.654 171.271 123.065 171.271 123.541H168.276C168.276 122.564 168.497 121.717 168.939 120.998C169.381 120.279 170.001 119.722 170.797 119.329C171.594 118.935 172.512 118.738 173.552 118.738C174.621 118.738 175.551 118.928 176.343 119.307C177.14 119.681 177.759 120.201 178.201 120.866C178.644 121.532 178.865 122.295 178.865 123.155C178.865 123.718 178.753 124.275 178.529 124.823C178.311 125.372 177.92 125.982 177.356 126.653C176.793 127.318 175.998 128.117 174.973 129.05L172.794 131.185V131.287H179.061V133.867H168.422ZM185.161 131.827L185.081 132.628C185.018 133.27 184.897 133.908 184.717 134.545C184.542 135.186 184.357 135.767 184.163 136.287C183.974 136.806 183.821 137.215 183.704 137.511H181.693C181.766 137.224 181.865 136.823 181.991 136.308C182.118 135.798 182.237 135.225 182.349 134.589C182.46 133.952 182.531 133.304 182.56 132.643L182.596 131.827H185.161ZM193.417 134.071C192.329 134.071 191.359 133.884 190.509 133.51C189.664 133.131 188.996 132.611 188.505 131.951C188.019 131.285 187.769 130.517 187.754 129.648H190.932C190.951 130.012 191.07 130.333 191.289 130.61C191.512 130.882 191.809 131.093 192.178 131.244C192.547 131.394 192.963 131.47 193.424 131.47C193.905 131.47 194.33 131.385 194.699 131.215C195.069 131.045 195.358 130.809 195.567 130.508C195.776 130.206 195.88 129.859 195.88 129.466C195.88 129.067 195.768 128.715 195.545 128.409C195.326 128.098 195.01 127.855 194.597 127.68C194.189 127.505 193.703 127.418 193.14 127.418H191.748V125.1H193.14C193.616 125.1 194.036 125.018 194.401 124.853C194.77 124.687 195.056 124.459 195.261 124.168C195.465 123.871 195.567 123.526 195.567 123.133C195.567 122.759 195.477 122.431 195.297 122.149C195.122 121.862 194.874 121.639 194.554 121.479C194.238 121.318 193.869 121.238 193.446 121.238C193.018 121.238 192.627 121.316 192.273 121.471C191.918 121.622 191.634 121.838 191.42 122.12C191.206 122.402 191.092 122.732 191.078 123.111H188.053C188.068 122.251 188.313 121.493 188.789 120.837C189.265 120.181 189.907 119.669 190.713 119.3C191.525 118.926 192.44 118.738 193.461 118.738C194.49 118.738 195.392 118.926 196.164 119.3C196.937 119.674 197.537 120.179 197.964 120.815C198.397 121.447 198.61 122.156 198.605 122.943C198.61 123.779 198.35 124.476 197.826 125.035C197.306 125.594 196.628 125.948 195.793 126.099V126.215C196.89 126.356 197.726 126.738 198.299 127.36C198.878 127.977 199.164 128.749 199.159 129.677C199.164 130.527 198.919 131.283 198.423 131.943C197.933 132.604 197.255 133.124 196.39 133.503C195.525 133.882 194.534 134.071 193.417 134.071ZM207.406 134.071C206.283 134.071 205.285 133.889 204.41 133.525C203.541 133.155 202.858 132.653 202.363 132.016C201.867 131.38 201.619 130.658 201.619 129.852C201.619 129.23 201.76 128.659 202.042 128.139C202.329 127.615 202.717 127.18 203.208 126.835C203.699 126.485 204.248 126.262 204.855 126.164V126.062C204.058 125.902 203.412 125.516 202.916 124.904C202.421 124.287 202.173 123.57 202.173 122.754C202.173 121.981 202.399 121.294 202.851 120.692C203.303 120.084 203.922 119.608 204.709 119.263C205.501 118.913 206.4 118.738 207.406 118.738C208.411 118.738 209.308 118.913 210.095 119.263C210.886 119.613 211.508 120.092 211.96 120.699C212.412 121.301 212.64 121.986 212.645 122.754C212.64 123.575 212.388 124.292 211.887 124.904C211.387 125.516 210.746 125.902 209.963 126.062V126.164C210.561 126.262 211.103 126.485 211.589 126.835C212.079 127.18 212.468 127.615 212.754 128.139C213.046 128.659 213.194 129.23 213.199 129.852C213.194 130.658 212.944 131.38 212.448 132.016C211.953 132.653 211.268 133.155 210.393 133.525C209.524 133.889 208.528 134.071 207.406 134.071ZM207.406 131.754C207.906 131.754 208.343 131.664 208.717 131.484C209.091 131.3 209.383 131.047 209.592 130.726C209.806 130.401 209.912 130.027 209.912 129.604C209.912 129.172 209.803 128.79 209.584 128.46C209.366 128.125 209.069 127.862 208.695 127.673C208.321 127.479 207.891 127.381 207.406 127.381C206.925 127.381 206.495 127.479 206.116 127.673C205.737 127.862 205.438 128.125 205.219 128.46C205.006 128.79 204.899 129.172 204.899 129.604C204.899 130.027 205.003 130.401 205.212 130.726C205.421 131.047 205.715 131.3 206.094 131.484C206.473 131.664 206.91 131.754 207.406 131.754ZM207.406 125.086C207.823 125.086 208.195 125.001 208.52 124.831C208.846 124.661 209.101 124.425 209.286 124.124C209.47 123.823 209.563 123.475 209.563 123.082C209.563 122.693 209.47 122.353 209.286 122.062C209.101 121.765 208.848 121.534 208.528 121.369C208.207 121.199 207.833 121.114 207.406 121.114C206.983 121.114 206.609 121.199 206.283 121.369C205.958 121.534 205.703 121.765 205.518 122.062C205.338 122.353 205.248 122.693 205.248 123.082C205.248 123.475 205.341 123.823 205.525 124.124C205.71 124.425 205.965 124.661 206.291 124.831C206.616 125.001 206.988 125.086 207.406 125.086ZM216.406 133.867L222.593 121.624V121.522H215.386V118.943H225.858V121.559L219.663 133.867H216.406Z" fill="#12141D"/>
<rect x="91.2871" y="86.6516" width="46.2048" height="56.4338" rx="10.2607" fill="#73CED0"/>
<path d="M116.841 222.293C105.221 223.077 90.4309 208.533 90.4309 208.533V260.228H270.972V186.603C252.542 200.54 245.167 185.155 222.048 186.603C205.771 187.622 201.527 214.937 186.546 208.533C169.526 201.257 160.261 181.757 142.385 186.603C125.775 191.105 134.019 221.134 116.841 222.293Z" fill="url(#paint1_linear_2436_552)"/>
<path d="M91.2869 208.402C91.2869 208.402 105.902 222.863 117.384 222.083C134.359 220.931 126.212 191.075 142.626 186.598C160.289 181.78 169.445 201.168 186.263 208.402C201.067 214.769 205.26 187.612 221.345 186.598C244.189 185.159 251.478 200.456 269.689 186.598" stroke="#73CED0" stroke-width="1.71012" stroke-linecap="round"/>
<g clip-path="url(#clip0_2436_552)">
<path d="M121.234 123.42H107.544V121.71C107.544 120.576 107.994 119.489 108.797 118.687C109.599 117.885 110.687 117.435 111.822 117.435H116.956C118.09 117.435 119.179 117.885 119.981 118.687C120.783 119.489 121.234 120.576 121.234 121.71V123.42ZM114.389 115.725C113.715 115.725 113.047 115.592 112.424 115.334C111.801 115.076 111.235 114.698 110.759 114.222C110.282 113.746 109.904 113.18 109.646 112.558C109.388 111.935 109.255 111.268 109.255 110.594C109.255 109.92 109.388 109.253 109.646 108.631C109.904 108.008 110.282 107.443 110.759 106.967C111.235 106.49 111.801 106.112 112.424 105.854C113.047 105.597 113.715 105.464 114.389 105.464C115.75 105.464 117.056 106.004 118.019 106.967C118.982 107.929 119.523 109.234 119.523 110.594C119.523 111.955 118.982 113.26 118.019 114.222C117.056 115.184 115.75 115.725 114.389 115.725Z" fill="white"/>
</g>
<path d="M227.336 171.302C227.336 173.662 225.421 175.577 223.058 175.577C220.694 175.577 218.779 173.662 218.779 171.302C218.779 168.941 220.694 167.026 223.058 167.026C225.421 167.026 227.336 168.941 227.336 171.302Z" fill="white" stroke="#73CED0" stroke-width="1.71012"/>
<line x1="222.631" y1="157.621" x2="222.631" y2="242.272" stroke="url(#paint2_linear_2436_552)" stroke-width="0.855058" stroke-dasharray="1.71 1.71"/>
<defs>
<filter id="filter0_d_2436_552" x="0.746712" y="0.453311" width="366.756" height="352.058" filterUnits="userSpaceOnUse" color-interpolation-filters="sRGB">
<feFlood flood-opacity="0" result="BackgroundImageFix"/>
<feColorMatrix in="SourceAlpha" type="matrix" values="0 0 0 0 0 0 0 0 0 0 0 0 0 0 0 0 0 0 127 0" result="hardAlpha"/>
<feOffset dy="4.32476"/>
<feGaussianBlur stdDeviation="32.4357"/>
<feComposite in2="hardAlpha" operator="out"/>
<feColorMatrix type="matrix" values="0 0 0 0 0 0 0 0 0 0 0 0 0 0 0 0 0 0 0.08 0"/>
<feBlend mode="normal" in2="BackgroundImageFix" result="effect1_dropShadow_2436_552"/>
<feBlend mode="normal" in="SourceGraphic" in2="effect1_dropShadow_2436_552" result="shape"/>
</filter>
<linearGradient id="paint0_linear_2436_552" x1="65.6182" y1="68.5981" x2="298.242" y2="274.2" gradientUnits="userSpaceOnUse">
<stop stop-color="white" stop-opacity="0.15"/>
<stop offset="1" stop-color="white" stop-opacity="0"/>
</linearGradient>
<linearGradient id="paint1_linear_2436_552" x1="181.129" y1="148.643" x2="180.702" y2="260.228" gradientUnits="userSpaceOnUse">
<stop stop-color="#4BA2A4"/>
<stop offset="1" stop-color="white" stop-opacity="0"/>
</linearGradient>
<linearGradient id="paint2_linear_2436_552" x1="222.203" y1="151.208" x2="222.203" y2="232.438" gradientUnits="userSpaceOnUse">
<stop stop-color="white"/>
<stop offset="1" stop-color="white" stop-opacity="0"/>
</linearGradient>
<clipPath id="clip0_2436_552">
<rect width="20.5355" height="20.5214" fill="white" transform="translate(104.122 104.608)"/>
</clipPath>
</defs>
</svg>
